<?xml version="1.0" encoding="utf-8"?>
<!-- Generator: Adobe Illustrator 17.1.0, SVG Export Plug-In . SVG Version: 6.00 Build 0)  -->
<!DOCTYPE svg PUBLIC "-//W3C//DTD SVG 1.1//EN" "http://www.w3.org/Graphics/SVG/1.1/DTD/svg11.dtd">
<svg version="1.1" id="Layer_1" xmlns="http://www.w3.org/2000/svg" xmlns:xlink="http://www.w3.org/1999/xlink" x="0px" y="0px"
	 viewBox="0 0 50 50" enable-background="new 0 0 50 50" xml:space="preserve">
<path fill="#333333" d="M15.4,46.2h-3.8c-1.2,0-2.1-0.8-2.3-1.9L6.2,32.7h9.2c0,0-1.7,5.4,0.6,7.3C19.4,42.9,18.5,46.2,15.4,46.2z
	 M21.2,21.2v1.9c7.3,0,9.6-1.7,9.6-1.7v-3.8C30.8,17.5,28.7,21.2,21.2,21.2z M50,23.1c0,12.7-3.8,23.1-8.7,23.1
	c-1.7,0-3.5-1.5-4.8-4c-3.5-4.6-8.5-11.3-21.2-11.3H5.8C2.5,30.8,0,28.3,0,25v-3.8c0-3.3,2.5-5.8,5.8-5.8h9.6
	c13.1,0,18.3-8.8,22.3-13.1C38.8,0.8,40,0,41.3,0C46.2,0,50,10.4,50,23.1z M15.4,23.1v-3.8H8.7c0,0-2.9,0-2.9,3.8H15.4z M32.7,23.1
	c0-4,0.2-7.5,0.6-10.6c-3.3,2.9-7.7,5.8-14,6.5v8.1c6.3,0.8,10.8,3.1,14,5.8C32.9,30,32.7,26.7,32.7,23.1z M46.2,23.1
	c0-11.7-3.3-18.3-4.8-19.2c-1.2,0.8-3.7,5.2-4.6,13.5h1.7c3.3,0,5.8,2.5,5.8,5.8s-2.5,5.8-5.8,5.8h-1.7c0.8,8.1,3.3,12.7,4.6,13.5
	C42.9,41.3,46.2,34.8,46.2,23.1z"/>
</svg>
