<?xml version="1.0" encoding="utf-8"?>
<!-- Generator: Adobe Illustrator 17.1.0, SVG Export Plug-In . SVG Version: 6.00 Build 0)  -->
<!DOCTYPE svg PUBLIC "-//W3C//DTD SVG 1.1//EN" "http://www.w3.org/Graphics/SVG/1.1/DTD/svg11.dtd">
<svg version="1.1" id="Layer_1" xmlns="http://www.w3.org/2000/svg" xmlns:xlink="http://www.w3.org/1999/xlink" x="0px" y="0px"
	 viewBox="0 0 50 50" enable-background="new 0 0 50 50" xml:space="preserve">
<path fill="#333333" d="M39.4,19l0.4,6.9c1.2-0.4,2.3-0.6,3.3,0.4c1.3,1.3,0.6,3.7-0.4,4.4l-2.3,2.7l0.8,12.7l-3.7,3.5l-7.7-21
	L19.2,39.4V46L15,50l-2.9-12.1L0,35l4.2-4.2h6.5L21.5,20l-21-7.7l3.3-3.7l12.7,1L19,7.1c1-1,3.3-1.7,4.4-0.4c1,1,0.8,2.3,0.4,3.3
	l6.9,0.4l6-6c1.9-1.9,9.4-6.3,12.1-3.7S47.1,11,45.2,12.9L39.4,19z"/>
</svg>
