<?xml version="1.0" encoding="utf-8"?>
<!-- Generator: Adobe Illustrator 17.1.0, SVG Export Plug-In . SVG Version: 6.00 Build 0)  -->
<!DOCTYPE svg PUBLIC "-//W3C//DTD SVG 1.1//EN" "http://www.w3.org/Graphics/SVG/1.1/DTD/svg11.dtd">
<svg version="1.1" id="Layer_1" xmlns="http://www.w3.org/2000/svg" xmlns:xlink="http://www.w3.org/1999/xlink" x="0px" y="0px"
	 viewBox="0 0 50 50" enable-background="new 0 0 50 50" xml:space="preserve">
<path fill="#333333" d="M28.5,21.2l-1.5-3.3c0,0,1.9-0.2,2.5,0.8C30.2,19.6,28.5,21.2,28.5,21.2z M26.3,11.9c-0.6-1-2.5-0.8-2.5-0.8
	l1.5,3.5C25.4,14.6,26.9,13.1,26.3,11.9z M1.5,10.6c-0.8,1.2-1.2,1.3-1.5,1.9c0,0,2.1,3.3,6.5,1.9C6.5,14,5.4,11,5.4,11
	S3.7,11.5,1.5,10.6z M45.4,27.1c-0.2,2.9,4.2,8.1,4.2,11.3c0,4.4-1.5,6.7-3.7,8.7s-3.1,2.3-6,2.7C29.8,51,26.3,38.5,26.3,38.5
	S15.4,9.2,14.4,6.9c-1-2.1-1.5,0.6-1.5,0.6s-0.8,3.1-2.1,4.4c-1,1-1.7,1.3-1.7,1.3L7.7,9.8c3.7-2.7,1.2-6,4.4-8.7
	c2.7-2.5,6.5-0.4,8.1,2.7c1.3,2.7,3.1,6.3,3.5,7.3c-0.6,0-1,0.2-1.3,0.4c-1.3,0.6-1.5,1.7-1,2.9c0.4,1,1.3,1.5,2.9,1
	c0.4-0.2,0.8-0.6,1.2-0.8l1.5,3.3c-0.4,0-1,0.2-1.3,0.4c-1.3,0.6-1.5,1.7-1,2.9s1.5,1.7,2.9,1c0.4-0.2,0.8-0.4,1.2-0.8l1.7,3.7
	c-0.6,0-1,0.2-1.3,0.4c-1.3,0.6-1.5,1.7-1,2.9s1.5,1.7,2.9,1c0.4-0.2,0.8-0.6,1.2-0.8L30.6,25c0,0,1.9-0.2,2.5,0.8
	c0.8,1.2-1,2.7-1,2.7l4.4,10c0,1.7,1.5,2.7,2.3,2.5c1.9-0.2,2.3-2.3,1-4.6c-2.7-4.2-3.7-7.1-4.2-9c-1-3.5,0.6-6.5-1.9-9
	c-2.5-2.3-1-2.9,0.6-2.3s11.7,3.7,14,4.2c2.1,0.6,2.3,1.7-0.4,2.5C46.3,23.3,45.8,24.2,45.4,27.1z M41.9,29.4
	c0.8-0.8,0.8-1.9,0.2-2.7c-0.8-0.8-1.9-0.8-2.7-0.2c-0.8,0.8-0.8,1.9-0.2,2.7C40,30,41.2,30.2,41.9,29.4z M44.8,32.9
	c-0.8-0.8-1.9-0.8-2.7-0.2c-0.8,0.8-0.8,1.9-0.2,2.7c0.8,0.8,1.9,0.8,2.7,0.2C45.4,34.8,45.4,33.7,44.8,32.9z"/>
</svg>
