<?xml version="1.0" encoding="utf-8"?>
<!-- Generator: Adobe Illustrator 17.1.0, SVG Export Plug-In . SVG Version: 6.00 Build 0)  -->
<!DOCTYPE svg PUBLIC "-//W3C//DTD SVG 1.1//EN" "http://www.w3.org/Graphics/SVG/1.1/DTD/svg11.dtd">
<svg version="1.1" id="Layer_1" xmlns="http://www.w3.org/2000/svg" xmlns:xlink="http://www.w3.org/1999/xlink" x="0px" y="0px"
	 viewBox="0 0 50 50" enable-background="new 0 0 50 50" xml:space="preserve">
<path fill="#333333" d="M45.8,27.9c0,2.1-1.3,3.7-3.3,4.2l-2.7,7.1c-1,3.1-5.2,3.1-5.2,3.1H15.4c0,0-4.2,0-5.2-3.1l-2.7-7.1
	c-1.9-0.6-3.3-2.3-3.3-4.2c0-2.5,1.9-4.4,4.4-4.4c1.9,0,3.7,1.3,4.2,3.3l1.9,4.4C15,31,17.7,29,25,29s9.8,1.9,10,2.1l2.1-4.8
	c0.6-1.7,2.3-2.9,4.2-2.9C43.8,23.5,45.8,25.4,45.8,27.9z M8.7,21.2c2.9,0,5.6,1.9,6.3,4.6l1,2.1c1.9-0.8,4.8-1.3,9-1.3
	s6.9,0.6,8.8,1.3l1.2-2.5c1-2.5,3.5-4.2,6.3-4.2c0.2,0,0.4,0,0.6,0l0,0c0-5.2-4.2-9.2-9.2-9.2c-0.6,0-1.3,0-1.9,0.2
	C29.2,10.8,27.1,10,25,10s-4.2,0.8-5.8,2.1c-0.6-0.2-1.3-0.2-1.9-0.2c-5.2,0-9.2,4.2-9.2,9.2l0,0C8.3,21.2,8.5,21.2,8.7,21.2z
	 M9.8,47.3c-0.4,1,0,2.1,0.8,2.5c0.4,0.2,0.6,0.2,1,0.2c0.8,0,1.3-0.4,1.7-1.2l1.9-3.8c0-0.2,0-0.4,0.2-0.4c-1,0-2.5-0.2-3.8-1
	L9.8,47.3z M38.5,43.7c-1.3,0.6-2.7,0.8-3.8,1c0,0.2,0,0.4,0.2,0.4l1.9,3.8c0.4,0.8,1,1.2,1.7,1.2c0.4,0,0.6,0,0.8-0.2
	c1-0.4,1.3-1.5,0.8-2.5L38.5,43.7z"/>
</svg>
