<?xml version="1.0" encoding="utf-8"?>
<!-- Generator: Adobe Illustrator 17.1.0, SVG Export Plug-In . SVG Version: 6.00 Build 0)  -->
<!DOCTYPE svg PUBLIC "-//W3C//DTD SVG 1.1//EN" "http://www.w3.org/Graphics/SVG/1.1/DTD/svg11.dtd">
<svg version="1.1" id="Layer_1" xmlns="http://www.w3.org/2000/svg" xmlns:xlink="http://www.w3.org/1999/xlink" x="0px" y="0px"
	 viewBox="0 0 50 50" enable-background="new 0 0 50 50" xml:space="preserve">
<path fill="#333333" d="M17.5,7.7c0-4.2,3.5-7.5,7.5-7.5s7.5,3.5,7.5,7.5s-3.3,7.5-7.5,7.5S17.5,11.9,17.5,7.7z M33.7,31.7
	c-2.3,3.7-6,5.6-6,5.6l3.1,3.1c0,0-2.9,5.2-3.3,5.8c-0.4,0.8-1,2.5,0.6,3.5c1.5,1,2.9-0.4,3.5-1c0.6-0.6,4.6-6,5.8-7.5
	c1.3-1.9,1-2.3,0-3.8C36.7,36,33.7,31.7,33.7,31.7z M19.2,40.4l3.1-3.1c0,0-3.7-1.7-6-5.6c0,0-3.1,4.2-3.8,5.6c-1,1.5-1.3,2.1,0,3.8
	c1.2,1.5,5.2,6.7,5.8,7.5s2.1,1.9,3.5,1c1.5-1,1-2.5,0.6-3.5C22.1,45.4,19.2,40.4,19.2,40.4z M42.3,26l-9.8-9c0,0-1.2-1.3-2.9-1.3
	s-9,0-9,0s-1.5-0.2-2.9,1c-1.2,1.2-8.5,8.1-9.8,9.4c0,0-0.2,0-0.2,0.2H7.5l0,0c-0.4,0.6-0.8,1.2-0.8,1.7c0,1.5,1.2,2.7,2.7,2.7
	c0.8,0,1.3-0.4,1.9-0.8l0,0l0,0l0,0l6-5.6v4.6h15.4v-4.6l5.8,5.6c0.6,0.6,1.2,1,2.1,1c1.5,0,2.7-1.2,2.7-2.7
	C43.3,27.1,42.9,26.3,42.3,26z"/>
</svg>
