<?xml version="1.0" encoding="utf-8"?>
<!-- Generator: Adobe Illustrator 17.1.0, SVG Export Plug-In . SVG Version: 6.00 Build 0)  -->
<!DOCTYPE svg PUBLIC "-//W3C//DTD SVG 1.1//EN" "http://www.w3.org/Graphics/SVG/1.1/DTD/svg11.dtd">
<svg version="1.1" id="Layer_1" xmlns="http://www.w3.org/2000/svg" xmlns:xlink="http://www.w3.org/1999/xlink" x="0px" y="0px"
	 viewBox="0 0 50 50" enable-background="new 0 0 50 50" xml:space="preserve">
<path fill="#333333" d="M32.3,37.5c0.6,0.8,0.6,2.1-0.4,2.7c-0.2,0.2-2.9,2.1-6.9,2.1s-6.7-1.9-6.9-2.1c-0.8-0.6-1-1.9-0.4-2.7
	s1.9-1,2.7-0.4c0,0,1.7,1.3,4.6,1.3c2.9,0,4.4-1.3,4.6-1.3C30.4,36.5,31.7,36.7,32.3,37.5z M50,30.8c0,2.5-1.7,4.6-3.8,5.4
	C43.1,46.3,33.1,50,25,50S6.9,46.3,3.8,36.2C1.5,35.4,0,33.3,0,30.8s1.7-4.8,4-5.6c1.2-8.3,7.5-15,16-16.9c-1-0.6-2.3-0.6-2.7-0.6
	c-1,0-1.9-0.8-1.9-1.9c0-1,0.8-1.9,1.7-1.9c1.7,0,4.6,0.4,6.3,2.3c1.2-4.4,4.4-6,4.4-6c1-0.4,2.1,0,2.5,1s0,2.1-1,2.5
	c0,0-1.9,1.2-2.5,4.2c9.8,1,17.5,8.1,18.8,17.5C48.3,26,50,28.3,50,30.8z M46.2,30.8c0-1-0.8-1.9-1.7-1.9h-1.9l-0.2-1.7
	c-0.6-8.8-8.1-15.6-17.3-15.6S8.3,18.3,7.7,27.1v1.7H5.8c-1.2,0-1.9,1-1.9,1.9s0.8,1.9,1.7,1.9h1.5L7.5,34C9.4,42.9,17.9,46,25.2,46
	c7.1,0,15.6-3.1,17.7-11.9l0.4-1.3l1.3-0.2C45.4,32.7,46.2,31.7,46.2,30.8z M21.2,28.8c0-2.1-1.7-3.8-3.8-3.8s-3.8,1.7-3.8,3.8
	s1.7,3.8,3.8,3.8S21.2,31,21.2,28.8z M32.7,25c-2.1,0-3.8,1.7-3.8,3.8s1.7,3.8,3.8,3.8s3.8-1.7,3.8-3.8S34.8,25,32.7,25z"/>
</svg>
