<?xml version="1.0" encoding="utf-8"?>
<!-- Generator: Adobe Illustrator 17.1.0, SVG Export Plug-In . SVG Version: 6.00 Build 0)  -->
<!DOCTYPE svg PUBLIC "-//W3C//DTD SVG 1.1//EN" "http://www.w3.org/Graphics/SVG/1.1/DTD/svg11.dtd">
<svg version="1.1" id="Layer_1" xmlns="http://www.w3.org/2000/svg" xmlns:xlink="http://www.w3.org/1999/xlink" x="0px" y="0px"
	 viewBox="0 0 50 50" enable-background="new 0 0 50 50" xml:space="preserve">
<path fill="#333333" d="M36.5,48.1c0,0-6.3-1.2-9.6-4V32.5c7.3-1.2,13.3-8.1,13.3-13.8c0-10.4-2.3-17.1-2.5-17.5
	C37.5,0.6,36.7,0,36,0H14.2c-0.8,0-1.5,0.6-1.9,1.3c0,0.2-2.5,7.1-2.5,17.3c0,6.5,6.2,12.9,13.3,13.8V44c-3.3,2.9-9.6,4-9.6,4
	c-1.2,0-1.9,1-1.9,1.9h26.9C38.5,48.8,37.7,48.1,36.5,48.1z M13.7,18.7c0-7.1,1.3-12.5,1.9-14.8h18.8c0.2,1,0.6,2.1,0.8,3.8
	c-0.4,0-16,0-16,0s-1.9,4.6-1.9,12.3c0,4,3.7,7.9,8.1,8.8c-0.2,0-0.4,0-0.4,0C19.2,28.8,13.7,23.8,13.7,18.7z"/>
</svg>
