<?xml version="1.0" encoding="utf-8"?>
<!-- Generator: Adobe Illustrator 17.1.0, SVG Export Plug-In . SVG Version: 6.00 Build 0)  -->
<!DOCTYPE svg PUBLIC "-//W3C//DTD SVG 1.1//EN" "http://www.w3.org/Graphics/SVG/1.1/DTD/svg11.dtd">
<svg version="1.1" id="Layer_1" xmlns="http://www.w3.org/2000/svg" xmlns:xlink="http://www.w3.org/1999/xlink" x="0px" y="0px"
	 viewBox="0 0 50 50" enable-background="new 0 0 50 50" xml:space="preserve">
<path fill="#333333" d="M48.1,16c0.8,0.8,0.8,1.9,0,2.7L46.7,20c-0.8,0.8-1.9,0.8-2.7,0l-5.6-5.6l-24,23.8l5.6,5.6
	c0.8,0.8,0.8,1.9,0,2.7l-1.3,1.5c-0.8,0.8-1.9,0.8-2.7,0l-14-14c-0.8-0.8-0.8-1.9,0-2.7L3.3,30C4,29.2,5.2,29.2,6,30l5.6,5.6
	l24-23.8L30,6.2c-0.8-0.8-0.8-1.9,0-2.7l1.3-1.5c0.8-0.8,1.9-0.8,2.7,0L48.1,16z M49.4,8.8l-2.7-2.7L48.8,4c0.8-0.8,0.8-1.9,0-2.7
	s-2.1-0.8-2.7,0L44,3.5l-2.7-2.7c-0.8-0.8-1.9-0.8-2.7,0l-1,1l11.2,11.2l1-1C50.2,11,50.2,9.6,49.4,8.8z M0.6,38.3
	c-0.8,0.8-0.8,1.9,0,2.7l2.7,2.7l-2.1,2.1c-0.8,0.8-0.8,1.9,0,2.7s1.9,0.8,2.7,0L6,46.3L8.7,49c0.8,0.8,1.9,0.8,2.7,0l1-1L1.2,36.9
	L0.6,38.3z"/>
</svg>
