<?xml version="1.0" encoding="utf-8"?>
<!-- Generator: Adobe Illustrator 17.1.0, SVG Export Plug-In . SVG Version: 6.00 Build 0)  -->
<!DOCTYPE svg PUBLIC "-//W3C//DTD SVG 1.1//EN" "http://www.w3.org/Graphics/SVG/1.1/DTD/svg11.dtd">
<svg version="1.1" id="Layer_1" xmlns="http://www.w3.org/2000/svg" xmlns:xlink="http://www.w3.org/1999/xlink" x="0px" y="0px"
	 viewBox="0 0 50 50" enable-background="new 0 0 50 50" xml:space="preserve">
<path fill="#333333" d="M13.5,5.8v38.5c0,1.2-0.8,1.9-1.9,1.9H7.7c-1.2,0-1.9-0.8-1.9-1.9V5.8c0-1.2,0.8-1.9,1.9-1.9h3.8
	C12.7,3.8,13.5,4.6,13.5,5.8z M30.8,3.8h-7.7c-1.2,0-1.9,0.8-1.9,1.9v38.5c0,1.2,0.8,1.9,1.9,1.9h7.7c1.2,0,1.9-0.8,1.9-1.9V5.8
	C32.7,4.6,31.9,3.8,30.8,3.8z M17.3,3.8c-1.2,0-1.9,0.8-1.9,1.9v38.5c0,1.2,0.8,1.9,1.9,1.9s1.9-0.8,1.9-1.9V5.8
	C19.2,4.6,18.5,3.8,17.3,3.8z M1.9,3.8C0.8,3.8,0,4.6,0,5.8v38.5c0,1.2,0.8,1.9,1.9,1.9s1.9-0.8,1.9-1.9V5.8
	C3.8,4.6,3.1,3.8,1.9,3.8z M36.5,3.8c-1.2,0-1.9,0.8-1.9,1.9v38.5c0,1.2,0.8,1.9,1.9,1.9s1.9-0.8,1.9-1.9V5.8
	C38.5,4.6,37.7,3.8,36.5,3.8z M42.3,3.8c-1.2,0-1.9,0.8-1.9,1.9v38.5c0,1.2,0.8,1.9,1.9,1.9s1.9-0.8,1.9-1.9V5.8
	C44.2,4.6,43.5,3.8,42.3,3.8z M48.1,3.8c-1.2,0-1.9,0.8-1.9,1.9v38.5c0,1.2,0.8,1.9,1.9,1.9s1.9-0.8,1.9-1.9V5.8
	C50,4.6,49.2,3.8,48.1,3.8z"/>
</svg>
