<?xml version="1.0" encoding="utf-8"?>
<!-- Generator: Adobe Illustrator 17.1.0, SVG Export Plug-In . SVG Version: 6.00 Build 0)  -->
<!DOCTYPE svg PUBLIC "-//W3C//DTD SVG 1.1//EN" "http://www.w3.org/Graphics/SVG/1.1/DTD/svg11.dtd">
<svg version="1.1" id="Layer_1" xmlns="http://www.w3.org/2000/svg" xmlns:xlink="http://www.w3.org/1999/xlink" x="0px" y="0px"
	 viewBox="0 0 50 50" enable-background="new 0 0 50 50" xml:space="preserve">
<path fill="#333333" d="M25,0.4C11.3,0.4,0.4,11.3,0.4,25s11,24.6,24.6,24.6s24.6-11,24.6-24.6S38.7,0.4,25,0.4z M45.6,21.7
	c-0.2,0-0.4,0.2-0.4,0.2s-4.2,4-14.8,5c-0.2-9,6.7-15.2,9.2-16.9C42.7,13.1,44.8,17.1,45.6,21.7z M26.2,45.2c0,0-4-5-5.2-15
	c1.2,0,2.5,0.2,3.8,0.2c1,0,1.7,0,2.5,0c1.3,6.5,6.7,10,9.6,11.3c-3.1,2.3-6.7,3.7-10.8,4C26.3,45.6,26.3,45.4,26.2,45.2z
	 M13.1,25.8c-0.2-8.5-1.9-13.8-2.7-15.6c3.3-3.3,7.5-5.4,12.3-6c-1.7,2.9-5,9.6-5,20.6c0,0.6,0,1.2,0,1.7
	C16,26.5,14.4,26.2,13.1,25.8z M7.7,36.5c-2.1-3.3-3.5-7.1-3.5-11.3c1.2,0.8,3.1,1.9,5.8,2.9c-0.2,6-1.9,8.3-1.9,8.3
	C7.9,36.3,7.9,36.5,7.7,36.5z M5,21.9c-0.2-0.2-0.2-0.2-0.4-0.2c0.6-3.3,1.7-6.2,3.7-8.8c0.8,2.3,1.7,6.3,1.9,11.9
	C6.5,23.5,5,22.1,5,21.9z M20.8,25c0-13.5,5.4-20.2,5.4-20.2c0.2-0.2,0.2-0.4,0.4-0.6C30.4,4.4,34,6,37.1,8.1
	c-3.3,2.5-10.2,9.2-9.8,19.2c-0.8,0-1.5,0-2.3,0c-1.5,0-2.9,0-4.2-0.2C20.8,26.5,20.8,25.8,20.8,25z M9.4,38.8
	c0.2,0,0.6-0.2,0.8-0.4c0.2-0.4,2.3-2.9,2.7-9.4c1.5,0.4,3.1,0.8,5,1c0.8,8.3,3.5,13.5,4.8,15.8C17.5,45.2,12.9,42.5,9.4,38.8z
	 M39.8,39.6c-1.7-0.8-7.7-3.5-9.2-9.4c8.3-0.8,12.9-3.3,15.2-4.8C45.8,30.8,43.5,35.8,39.8,39.6z"/>
</svg>
