<?xml version="1.0" encoding="utf-8"?>
<!-- Generator: Adobe Illustrator 17.1.0, SVG Export Plug-In . SVG Version: 6.00 Build 0)  -->
<!DOCTYPE svg PUBLIC "-//W3C//DTD SVG 1.1//EN" "http://www.w3.org/Graphics/SVG/1.1/DTD/svg11.dtd">
<svg version="1.1" id="Layer_1" xmlns="http://www.w3.org/2000/svg" xmlns:xlink="http://www.w3.org/1999/xlink" x="0px" y="0px"
	 viewBox="0 0 50 50" enable-background="new 0 0 50 50" xml:space="preserve">
<path fill="#333333" d="M38.5,21.2H11.5c0-5.8,5-10.6,11.5-11.3V0h3.8v9.8C33.5,10.6,38.5,15.4,38.5,21.2z M9.6,26.9h30.8
	c1.2,0,1.9-0.8,1.9-1.9s-0.8-1.9-1.9-1.9H9.6c-1.2,0-1.9,0.8-1.9,1.9S8.5,26.9,9.6,26.9z M23.1,32.7c0,1.2,0.8,1.9,1.9,1.9
	s1.9-0.8,1.9-1.9s-0.8-1.9-1.9-1.9S23.1,31.5,23.1,32.7z M30.8,32.7c0,1.2,0.8,1.9,1.9,1.9s1.9-0.8,1.9-1.9s-0.8-1.9-1.9-1.9
	S30.8,31.5,30.8,32.7z M15.4,32.7c0,1.2,0.8,1.9,1.9,1.9s1.9-0.8,1.9-1.9s-0.8-1.9-1.9-1.9S15.4,31.5,15.4,32.7z M25,46.2
	c-1.2,0-1.9,0.8-1.9,1.9S23.8,50,25,50s1.9-0.8,1.9-1.9S26.2,46.2,25,46.2z M32.7,46.2c-1.2,0-1.9,0.8-1.9,1.9s0.8,1.9,1.9,1.9
	s1.9-0.8,1.9-1.9S33.8,46.2,32.7,46.2z M40.4,46.2c-1.2,0-1.9,0.8-1.9,1.9s0.8,1.9,1.9,1.9s1.9-0.8,1.9-1.9S41.5,46.2,40.4,46.2z
	 M17.3,46.2c-1.2,0-1.9,0.8-1.9,1.9s0.8,1.9,1.9,1.9s1.9-0.8,1.9-1.9S18.5,46.2,17.3,46.2z M9.6,46.2c-1.2,0-1.9,0.8-1.9,1.9
	S8.5,50,9.6,50s1.9-0.8,1.9-1.9S10.8,46.2,9.6,46.2z M21.2,38.5c-1.2,0-1.9,0.8-1.9,1.9s0.8,1.9,1.9,1.9s1.9-0.8,1.9-1.9
	S22.3,38.5,21.2,38.5z M28.8,38.5c-1.2,0-1.9,0.8-1.9,1.9s0.8,1.9,1.9,1.9s1.9-0.8,1.9-1.9S30,38.5,28.8,38.5z M36.5,38.5
	c-1.2,0-1.9,0.8-1.9,1.9s0.8,1.9,1.9,1.9s1.9-0.8,1.9-1.9S37.7,38.5,36.5,38.5z M13.5,38.5c-1.2,0-1.9,0.8-1.9,1.9s0.8,1.9,1.9,1.9
	s1.9-0.8,1.9-1.9S14.6,38.5,13.5,38.5z"/>
</svg>
