<?xml version="1.0" encoding="utf-8"?>
<!-- Generator: Adobe Illustrator 17.1.0, SVG Export Plug-In . SVG Version: 6.00 Build 0)  -->
<!DOCTYPE svg PUBLIC "-//W3C//DTD SVG 1.1//EN" "http://www.w3.org/Graphics/SVG/1.1/DTD/svg11.dtd">
<svg version="1.1" id="Layer_1" xmlns="http://www.w3.org/2000/svg" xmlns:xlink="http://www.w3.org/1999/xlink" x="0px" y="0px"
	 viewBox="0 0 50 50" enable-background="new 0 0 50 50" xml:space="preserve">
<path fill="#333333" d="M48.1,11.5h-1.9c0,0-1.9,0-1.9,1.9H5.8c0-1.9-1.9-1.9-1.9-1.9H1.9c-1.2,0-1.9,0.8-1.9,1.9v34.6
	C0,49.2,0.8,50,1.9,50h1.9c0,0,1.9,0,1.9-1.9s0-1.9,0-1.9c0-1.2,0.8-1.9,1.9-1.9h34.6c1.2,0,1.9,0.8,1.9,1.9c0,0,0,0,0,1.9
	s1.9,1.9,1.9,1.9h1.9c1.2,0,1.9-0.8,1.9-1.9V13.5C50,12.3,49.2,11.5,48.1,11.5z M5.8,23.1c0-3.3,0.6-5.8,3.8-5.8h9.6
	c3.3,0,3.8,2.5,3.8,5.8H5.8z M26.9,23.1c0-3.3,0.6-5.8,3.8-5.8h9.6c3.3,0,3.8,2.5,3.8,5.8H26.9z"/>
</svg>
