<?xml version="1.0" encoding="utf-8"?>
<!-- Generator: Adobe Illustrator 17.1.0, SVG Export Plug-In . SVG Version: 6.00 Build 0)  -->
<!DOCTYPE svg PUBLIC "-//W3C//DTD SVG 1.1//EN" "http://www.w3.org/Graphics/SVG/1.1/DTD/svg11.dtd">
<svg version="1.1" id="Layer_1" xmlns="http://www.w3.org/2000/svg" xmlns:xlink="http://www.w3.org/1999/xlink" x="0px" y="0px"
	 viewBox="0 0 50 50" enable-background="new 0 0 50 50" xml:space="preserve">
<path fill="#333333" d="M33.8,40.2L33.8,40.2c0-0.6-0.2-1-0.2-1.3c0-1,0.2-2.1,0.4-3.1c1.2-4.6,4.4-10.2,4.4-20l0,0l0,0l0,0
	c0-0.2,0-0.6,0-1c0-0.2,0-0.6,0-1c0,0,0,0,0-0.2c0-0.8,0-1.3-0.2-2.1l0,0l0,0C37.9,6.3,36.7,0,35.6,0H14.4c-1.5,0-2.9,11-2.9,15.8
	c0,12.1,4.8,17.5,4.8,23.1c0,3.7-2.9,8.8-2.9,8.8c0,1.7,1.2,2.3,1.9,2.3c0,0,4.4-0.8,9.6-0.8s9.6,0.8,9.6,0.8c0.8,0,1.9-0.6,1.9-2.3
	c0,0-0.8-1.5-1.5-3.7c-0.2-0.4-0.4-0.8-0.4-1.2c0,0,0,0,0-0.2c-0.2-0.4-0.2-0.8-0.4-1.3v-0.2C33.8,41,33.8,40.6,33.8,40.2z M25,45.4
	c-2.3,0-4.6,0.2-6.3,0.4c0.8-2.1,1.5-4.6,1.5-6.7c0-2.9-1-5.6-1.9-8.3c-1.3-4-2.9-8.5-2.9-15c0-3.7,0.8-9.2,1.3-11.9h16.5
	c0.4,1.7,0.8,4.8,1.2,7.7c-1.3,0-2.9,0-3.7,0c-1.9,0-1.9,2.3-1.9,4.2s2.7,7.3-1,7.3s-1-5.4-1-7.3s0-4.2-1.9-4.2s-6.5,0-6.5,0
	c-0.2,1.5-0.2,3.1-0.2,4.2c0,12.1,4.8,17.5,4.8,23.1c0,1.2-0.2,2.3-0.6,3.7c0.8,0,1.7-0.2,2.5-0.2c2.1,0,3.8,0.2,5.4,0.6
	c0.2,1,0.6,1.9,1,2.9C29.6,45.6,27.3,45.4,25,45.4z"/>
</svg>
