<?xml version="1.0" encoding="utf-8"?>
<!-- Generator: Adobe Illustrator 17.1.0, SVG Export Plug-In . SVG Version: 6.00 Build 0)  -->
<!DOCTYPE svg PUBLIC "-//W3C//DTD SVG 1.1//EN" "http://www.w3.org/Graphics/SVG/1.1/DTD/svg11.dtd">
<svg version="1.1" id="Layer_1" xmlns="http://www.w3.org/2000/svg" xmlns:xlink="http://www.w3.org/1999/xlink" x="0px" y="0px"
	 viewBox="0 0 50 50" enable-background="new 0 0 50 50" xml:space="preserve">
<path fill="#333333" d="M49.6,19.4c-4,5.2-9.2,5.2-16.5-2.5c-7.9-8.3-0.8-10-3.5-16.5c6.9,4.4,1.3,9,4,13.3
	c3.8,0.4,6.9-7.1,6.9-11.3c2.9,2.9,2.1,11.9-1.9,14.6C40.4,20,45.2,20.4,49.6,19.4z M31.3,18.5c7.5,7.5,12.9,14,5.2,21.9
	c-9.2,9.4-28.5,12.3-33.8,6.9c-5.6-5.6-1-26.2,6.9-33.8C17.1,5.4,23.8,11,31.3,18.5z M9.4,23.8c0.6,0.4,1.7,0,2.5-1
	c0.8-1,1-2.3,0.4-2.7s-1.7,0-2.5,1C9,22.3,8.8,23.5,9.4,23.8z M7.3,36.9c-0.6-0.4-1.5,0.2-2.3,1.3c-0.6,1.2-0.6,2.3,0,2.7
	c0.6,0.4,1.5-0.4,2.3-1.5C7.9,38.5,7.9,37.1,7.3,36.9z M11,28.1c-0.6-0.6-1.7-0.2-2.5,0.8c-1,1-1.3,2.1-0.8,2.5
	c0.6,0.6,1.7,0.2,2.5-0.8C11.2,29.6,11.5,28.5,11,28.1z M16,42.3c-0.4-0.6-1.5-0.6-2.7,0.2s-1.7,1.7-1.3,2.3
	c0.4,0.6,1.5,0.6,2.7-0.2C15.6,43.8,16.3,42.9,16,42.3z M18.7,32.7c-0.6-0.6-1.7-0.2-2.5,0.8c-1,1-1.3,2.1-0.8,2.5
	c0.6,0.6,1.7,0.2,2.5-0.8C18.8,34.2,19,33.1,18.7,32.7z M20.2,21.9c-0.6-0.6-1.7-0.2-2.5,0.8c-1,1-1.3,2.1-0.8,2.5
	c0.6,0.6,1.7,0.2,2.5-0.8C20.4,23.7,20.6,22.5,20.2,21.9z M20.6,13.3c-0.4-0.6-1.5-0.6-2.7,0c-1.2,0.6-1.9,1.7-1.5,2.3
	s1.5,0.6,2.7,0C20.2,14.8,21,13.8,20.6,13.3z M26.5,37.7c-0.4-0.6-1.5-0.6-2.7,0.2c-1.2,0.8-1.7,1.7-1.3,2.3
	c0.4,0.6,1.5,0.6,2.7-0.2C26.3,39.4,26.9,38.3,26.5,37.7z M27.9,26.5c-0.6-0.6-1.7-0.2-2.5,0.8c-1,1-1.3,2.1-0.8,2.5
	c0.6,0.6,1.7,0.2,2.5-0.8C27.9,28.1,28.3,26.9,27.9,26.5z M27.9,17.5c-0.4-0.6-1.7-0.2-2.7,0.6c-1,1-1.3,1.9-1,2.5s1.7,0.2,2.7-0.6
	C27.9,19,28.3,17.9,27.9,17.5z M32.7,34.8c0.6,0.4,1.7-0.4,2.3-1.5c0.6-1.2,0.6-2.3,0-2.7c-0.6-0.4-1.7,0.4-2.3,1.3
	C31.9,33.3,31.9,34.4,32.7,34.8z"/>
</svg>
