<?xml version="1.0" encoding="utf-8"?>
<!-- Generator: Adobe Illustrator 17.1.0, SVG Export Plug-In . SVG Version: 6.00 Build 0)  -->
<!DOCTYPE svg PUBLIC "-//W3C//DTD SVG 1.1//EN" "http://www.w3.org/Graphics/SVG/1.1/DTD/svg11.dtd">
<svg version="1.1" id="Layer_1" xmlns="http://www.w3.org/2000/svg" xmlns:xlink="http://www.w3.org/1999/xlink" x="0px" y="0px"
	 viewBox="0 0 50 50" enable-background="new 0 0 50 50" xml:space="preserve">
<path fill="#333333" d="M29,27.7c0,0,0-4.2-4.2-4.2c-4,0-4,4.2-4,4.2s-4-1.2-5.2,2.5s2.7,5,2.7,5S16,39,19,41s5.8-1,5.8-1
	s2.5,3.1,5.8,1c3.3-2.1,0.8-5.8,0.8-5.8s4-1.5,2.7-5C32.9,26.7,29,27.7,29,27.7z M25,37.7c-2.5,0-4.6-2.1-4.6-4.6s2.1-4.6,4.6-4.6
	s4.6,2.1,4.6,4.6C29.6,35.8,27.5,37.7,25,37.7z M30.8,0C27.5,0,25,2.5,25,5.8s2.5,5.8,5.6,5.8h0.2c0.8,0,3.8,0.6,3.8,2.9
	c0,1.9-3.5,2.9-9.6,2.9s-9.6-1-9.6-2.9c0-1,2.3-2.9,3.8-2.9c4,0,5.8-3.1,5.8-5.8C25,2.9,22.1,0,19.2,0C9.2,0,1.9,7.7,1.9,18.3v3.8
	C1.9,30.4,1.9,50,25,50s23.1-19.6,23.1-27.9v-3.8C48.1,7.7,40.8,0,30.8,0z M44.2,22.1c0,12.5-2.3,24-19.2,24S5.8,34.6,5.8,22.1v-3.8
	c0-6.9,4.2-14.4,13.5-14.4c0.8,0,1.9,1.2,1.9,1.9c0,1.9-1.5,1.9-1.9,1.9c-3.5,0-7.7,3.1-7.7,6.7c0,6.7,10.2,6.7,13.5,6.7
	s13.5,0,13.5-6.7c0-4.6-4.6-6.7-7.5-6.7h-0.2c-1,0-1.9-0.6-1.9-1.9s1-1.9,1.9-1.9c8.8,0,13.5,7.3,13.5,14.4V22.1z"/>
</svg>
