<?xml version="1.0" encoding="utf-8"?>
<!-- Generator: Adobe Illustrator 17.1.0, SVG Export Plug-In . SVG Version: 6.00 Build 0)  -->
<!DOCTYPE svg PUBLIC "-//W3C//DTD SVG 1.1//EN" "http://www.w3.org/Graphics/SVG/1.1/DTD/svg11.dtd">
<svg version="1.1" id="Layer_1" xmlns="http://www.w3.org/2000/svg" xmlns:xlink="http://www.w3.org/1999/xlink" x="0px" y="0px"
	 viewBox="0 0 50 50" enable-background="new 0 0 50 50" xml:space="preserve">
<path fill="#333333" d="M1784.6,2821.2v3.8v3.8v15.4v3.8v15.4v3.8v3.8h-50v-3.8v-3.8v-15.4v-3.8v-15.4v-3.8v-3.8H1784.6z M25.2,40.2
	L25.2,40.2c-0.2,0.2-0.2,0.4-0.4,0.4c0,0-0.2,0-0.2,0.2l0,0c-0.2,0-0.4,0.2-0.6,0.2H10.6c-0.6,0-1-0.2-1.2-0.8c-0.2-0.4-0.4-1,0-1.3
	L16.5,24l-0.8-1.9c-2.5,1-4,2.1-4-1.3c0-1.2,0.4-1.3,1.2-1.3c0.6-0.2,6.3-0.2,6.3-0.2c1,0,1.7,0,1.7,0.6s-0.6,1-2.5,1.3l0.6,1.3
	h11.7c-1-3.1-1.3-5.4-1.3-5.6c0-0.4,0-1,0.4-1.3s0.8-0.6,1.2-0.4c0,0,3.8,0.4,5.4-1.7c0.4-0.6,1.3-0.8,1.9-0.4
	c0.6,0.4,0.8,1.3,0.4,1.9c-1.5,2.3-4.2,2.9-6.2,2.9c1,3.8,3.5,13.3,8.1,20.4c0.4,0.6,0.2,1.5-0.4,1.9c-0.2,0.2-0.6,0.2-0.8,0.2
	c-0.4,0-1-0.2-1.2-0.6c-2.3-3.5-4-7.5-5.4-11L25.2,40.2z M20.2,25.4l4.2,11l7.3-10.6c0-0.2,0-0.2,0-0.4H20.2z M12.9,38.1h9l-4-10.4
	L12.9,38.1z M17.7,32.1l-1.5,3.3c0.2,0.2,0.2,0.4,0.4,0.8h3.7C19.6,34.6,18.8,33.3,17.7,32.1z M16.5,42.7c-1.2,2.1-3.5,3.7-6,3.7
	c-3.8,0-6.9-3.1-6.9-6.9c0-3.7,2.9-6.7,6.5-6.7l1.5-3.3c-0.4,0-0.8-0.2-1.3-0.2c-5.6,0-10.2,4.6-10.2,10.2s4.6,10.2,10.2,10.2
	c4.4,0,8.3-2.9,9.6-6.9L16.5,42.7L16.5,42.7z M39.4,29.2c-0.6,0-1,0-1.3,0.2c0.4,1.2,1,2.1,1.3,3.3l0,0c3.8,0,6.9,3.1,6.9,6.9
	s-3.1,6.9-6.9,6.9s-6.9-3.1-6.9-6.9c0-1.3,0.4-2.7,1.2-3.7c-0.6-1.2-1.2-2.3-1.5-3.5c-1.7,1.9-2.9,4.4-2.9,7.1
	c0,5.6,4.6,10.2,10.2,10.2s10.2-4.6,10.2-10.2S45,29.2,39.4,29.2z"/>
</svg>
