<?xml version="1.0" encoding="utf-8"?>
<!-- Generator: Adobe Illustrator 17.1.0, SVG Export Plug-In . SVG Version: 6.00 Build 0)  -->
<!DOCTYPE svg PUBLIC "-//W3C//DTD SVG 1.1//EN" "http://www.w3.org/Graphics/SVG/1.1/DTD/svg11.dtd">
<svg version="1.1" id="Layer_1" xmlns="http://www.w3.org/2000/svg" xmlns:xlink="http://www.w3.org/1999/xlink" x="0px" y="0px"
	 viewBox="0 0 50 50" enable-background="new 0 0 50 50" xml:space="preserve">
<path fill="#333333" d="M42.3,0H7.7C5.6,0,3.8,1.7,3.8,3.8v42.3c0,2.1,1.7,3.8,3.8,3.8h34.6c2.1,0,3.8-1.7,3.8-3.8V3.8
	C46.2,1.7,44.4,0,42.3,0z M42.3,46.2H7.7V3.8h34.6V46.2z M15.4,11.5c0-1.2,0.8-1.9,1.9-1.9h15.4c1.2,0,1.9,0.8,1.9,1.9
	s-0.8,1.9-1.9,1.9H17.3C16.2,13.5,15.4,12.7,15.4,11.5z M34.6,21.2h1.9c1.2,0,1.9,0.8,1.9,1.9c0,1.2-0.8,1.9-1.9,1.9h-1.9
	c-1.2,0-1.9-0.8-1.9-1.9C32.7,21.9,33.5,21.2,34.6,21.2z M11.5,23.1c0-1.2,0.8-1.9,1.9-1.9h13.5c1.2,0,1.9,0.8,1.9,1.9
	c0,1.2-0.8,1.9-1.9,1.9H13.5C12.3,25,11.5,24.2,11.5,23.1z M11.5,28.8c0-1.2,0.8-1.9,1.9-1.9h13.5c1.2,0,1.9,0.8,1.9,1.9
	s-0.8,1.9-1.9,1.9H13.5C12.3,30.8,11.5,30,11.5,28.8z M38.5,28.8c0,1.2-0.8,1.9-1.9,1.9h-1.9c-1.2,0-1.9-0.8-1.9-1.9
	s0.8-1.9,1.9-1.9h1.9C37.7,26.9,38.5,27.7,38.5,28.8z M11.5,34.6c0-1.2,0.8-1.9,1.9-1.9h13.5c1.2,0,1.9,0.8,1.9,1.9
	s-0.8,1.9-1.9,1.9H13.5C12.3,36.5,11.5,35.8,11.5,34.6z M38.5,34.6c0,1.2-0.8,1.9-1.9,1.9h-1.9c-1.2,0-1.9-0.8-1.9-1.9
	s0.8-1.9,1.9-1.9h1.9C37.7,32.7,38.5,33.5,38.5,34.6z"/>
</svg>
