<?xml version="1.0" encoding="utf-8"?>
<!-- Generator: Adobe Illustrator 17.1.0, SVG Export Plug-In . SVG Version: 6.00 Build 0)  -->
<!DOCTYPE svg PUBLIC "-//W3C//DTD SVG 1.1//EN" "http://www.w3.org/Graphics/SVG/1.1/DTD/svg11.dtd">
<svg version="1.1" id="Layer_1" xmlns="http://www.w3.org/2000/svg" xmlns:xlink="http://www.w3.org/1999/xlink" x="0px" y="0px"
	 viewBox="0 0 50 50" enable-background="new 0 0 50 50" xml:space="preserve">
<path fill="#333333" d="M50,46.2c0,3.3-2.5,3.8-5.8,3.8h-3.8H9.6H5.8C2.5,50,0,49.4,0,46.2h3.8v-10c1,1.2,2.9,2.3,6.7,2.3
	s5.8-1.2,6.7-2.5c1.2,1.2,3.3,2.5,7.7,2.5s6.5-1.2,7.7-2.5c1,1.2,2.9,2.5,6.7,2.5s5.8-1.2,6.7-2.3v10H50z M19.2,20.2V25
	c0,1.2,0.8,1.9,1.9,1.9h5.8c1.2,0,1.9-0.8,1.9-1.9c0,0,0-5.2,0-6.7c0-2.1,1.7-3.1,1.7-4s-0.6-1.7-1.7-1.5c0,0-1.2,0.8-3.5,1.2
	c-2.3,0.6-3.5,0.2-4.2,0.4c-2.1,0.6-3.5,2.3-3.5,4.2S19.2,20.2,19.2,20.2z M24.2,11.5c-2.1-5,1-4.2,1.2-7.1c0.2,1.9,1.9,3.7-0.4,7.1
	c0,0,3.3-0.8,3.7-3.7c0.2-2.9-3.3-7.1-4.2-7.7c-0.2,2.7-3.3,4.4-3.1,7.5C21.5,11,24,11.3,24.2,11.5z M10.6,36.5
	c5.6,0,5.8-2.9,5.8-2.9c0-0.6,0.4-1,1-1l0,0c0.6,0,1,0.4,1,1c0,0.2,0.2,2.9,6.7,2.9s6.7-2.9,6.7-2.9c0-0.6,0.4-1,1-1
	c0.6,0,1,0.4,1,1c0,0.2,0.2,2.9,5.8,2.9c6.2,0,6.3-3.8,6.3-3.8c-0.8-2.3-2.9-3.8-5.4-3.8H9.6c-2.5,0-4.6,1.7-5.4,3.8
	C4.2,32.7,4.6,36.5,10.6,36.5z"/>
</svg>
