<?xml version="1.0" encoding="utf-8"?>
<!-- Generator: Adobe Illustrator 17.1.0, SVG Export Plug-In . SVG Version: 6.00 Build 0)  -->
<!DOCTYPE svg PUBLIC "-//W3C//DTD SVG 1.1//EN" "http://www.w3.org/Graphics/SVG/1.1/DTD/svg11.dtd">
<svg version="1.1" id="Layer_1" xmlns="http://www.w3.org/2000/svg" xmlns:xlink="http://www.w3.org/1999/xlink" x="0px" y="0px"
	 viewBox="0 0 50 50" enable-background="new 0 0 50 50" xml:space="preserve">
<path fill="#333333" d="M46.2,1.9v1.9c0,0.6-0.4,1.2-0.8,1.5l-5.8,3.8c-0.4,0.2-0.8,0.4-1.2,0.4H27.1l-15.4,1.9h-0.2
	c-0.4,0-1-0.2-1.3-0.6c-0.4-0.2-0.6-0.8-0.6-1.3v-1l-5-3.3C4.2,5,3.8,4.4,3.8,3.8V1.9C3.8,0.8,4.6,0,5.8,0h38.5
	C45.4,0,46.2,0.8,46.2,1.9z M45.4,44.6l-5-3.3v-1c0-0.6-0.2-1.2-0.6-1.5c-0.4-0.4-1-0.6-1.5-0.4l-15.2,1.9H11.5
	c-0.4,0-0.8,0.2-1.2,0.4l-5.8,3.8c-0.4,0.4-0.8,1-0.8,1.5v1.9c0,1.2,0.8,1.9,1.9,1.9h38.5c1.2,0,1.9-0.8,1.9-1.9v-1.9
	C46.2,45.6,45.8,45,45.4,44.6z M9.6,17.3h0.2l30.8-3.8c1-0.2,1.7-1.2,1.7-2.1c-0.2-1-1.2-1.7-2.1-1.7L9.4,13.5
	c-1.2,0.2-1.9,1.2-1.7,2.1S8.7,17.3,9.6,17.3z M9.6,23.1h0.2l30.8-3.8c1-0.2,1.7-1.2,1.7-2.1c-0.2-1-1.2-1.7-2.1-1.7L9.4,19.2
	c-1,0.2-1.7,1.2-1.7,2.1C7.9,22.3,8.7,23.1,9.6,23.1z M9.6,28.8h0.2L40.6,25c1-0.2,1.7-1.2,1.7-2.1c-0.2-1-1.2-1.7-2.1-1.7L9.4,25
	c-1,0.2-1.7,1.2-1.7,2.1C7.9,28.1,8.7,28.8,9.6,28.8z M9.6,34.6h0.2l30.8-3.8c1-0.2,1.7-1.2,1.7-2.1c-0.2-1-1.2-1.7-2.1-1.7
	L9.4,30.8c-1,0.2-1.7,1.2-1.7,2.1C7.9,33.8,8.7,34.6,9.6,34.6z M9.6,40.4h0.2l30.8-3.8c1-0.2,1.7-1.2,1.7-2.1
	c-0.2-1-1.2-1.7-2.1-1.7L9.4,36.5c-1,0.2-1.7,1.2-1.7,2.1C7.9,39.6,8.7,40.4,9.6,40.4z"/>
</svg>
