<?xml version="1.0" encoding="utf-8"?>
<!-- Generator: Adobe Illustrator 17.1.0, SVG Export Plug-In . SVG Version: 6.00 Build 0)  -->
<!DOCTYPE svg PUBLIC "-//W3C//DTD SVG 1.1//EN" "http://www.w3.org/Graphics/SVG/1.1/DTD/svg11.dtd">
<svg version="1.1" id="Layer_1" xmlns="http://www.w3.org/2000/svg" xmlns:xlink="http://www.w3.org/1999/xlink" x="0px" y="0px"
	 viewBox="0 0 50 50" enable-background="new 0 0 50 50" xml:space="preserve">
<path fill="#333333" d="M47.9,19.2c0.2-0.6,0.2-1,0-1.5l0,0c0,0,0-0.2-0.2-0.2c0,0-0.2-0.6,0.2-2.1c0.4-1-0.2-2.1-1.2-2.5
	c-1-0.4-2.1,0.2-2.5,1.2c-0.6,1.7-0.6,3.1-0.4,3.8L29.2,36L7.1,29.4c-0.2,0-0.2,0-0.2,0c-0.4-0.2-1.2-1-1.2-3.1c0-1,0.2-1.7,0.8-2.1
	c0.4-0.4,1-0.4,1.5-0.4L28.3,30c0.2,0,0.4,0,0.4,0c0.6,0,1-0.2,1.3-0.6L47.7,8.7c0.4-0.4,0.6-1.2,0.4-1.7c-0.2-0.6-0.8-1-1.3-1.2
	l-24-5.6c-0.6-0.2-1.3,0-1.7,0.6L3.8,20c-0.6,0.4-1.9,2.3-1.9,5.4l0,0c0,0.2,0,0.6,0,1c0,2.3,0.6,3.8,1.3,4.8
	c-0.8,1-1.3,2.3-1.3,4.2c0,4.4,2.5,6.5,4,7.1L29.4,50c0.2,0,0.4,0,0.6,0c0.6,0,1.2-0.2,1.5-0.8l16.2-19.8c0.6-0.6,0.6-1.5,0.2-2.1
	C47.7,27.3,46.2,24,47.9,19.2z M19,8.8l1.3-1.5c0.4-0.4,1.2-0.6,1.9-0.6l12.3,3.1c0.8,0.2,1,0.6,0.6,1.2l-1.3,1.5
	c-0.4,0.4-1.2,0.6-1.9,0.6L19.6,10C18.8,9.8,18.7,9.2,19,8.8z M29.2,45.8L7.3,38.8c-0.2,0-1.5-0.8-1.5-3.5c0-1,0.4-1.5,0.8-2.1
	l22.9,7.1c0.2,0,0.4,0,0.6,0c0.6,0,1.2-0.2,1.5-0.8L43.5,25c0.2,1.2,0.4,2.3,0.6,3.1L29.2,45.8z"/>
</svg>
