<?xml version="1.0" encoding="utf-8"?>
<!-- Generator: Adobe Illustrator 17.1.0, SVG Export Plug-In . SVG Version: 6.00 Build 0)  -->
<!DOCTYPE svg PUBLIC "-//W3C//DTD SVG 1.1//EN" "http://www.w3.org/Graphics/SVG/1.1/DTD/svg11.dtd">
<svg version="1.1" id="Layer_1" xmlns="http://www.w3.org/2000/svg" xmlns:xlink="http://www.w3.org/1999/xlink" x="0px" y="0px"
	 viewBox="0 0 50 50" enable-background="new 0 0 50 50" xml:space="preserve">
<path fill="#333333" d="M17.3,21.5V40c0,0.8-0.6,1.5-1.3,1.7c-1.2,0.4-2.3,0.6-3.8,0.6l0,0c-4,0-8.3-1.7-8.3-5.4V13.5
	c0-1.5,0.4-4.4,3.3-6c1.3-0.8,7.9-5,11.2-7.1c0.6-0.4,1.3-0.4,1.9,0c0.6,0.2,1,0.8,1,1.5v2.7c0,1.2-0.8,1.9-1.9,1.9
	c-0.8,0-1.5-0.6-1.7-1.3C14.4,7.1,10.2,10,9,10.6c-1.2,0.8-1.3,1.7-1.3,2.3c0,0.6,0.2,1.2,0.4,1.3c0.8,0.8,2.9,0.4,5.4-1.2
	c2.5-1.3,14.2-9.2,14.2-9.2c0.6-0.4,1.3-0.4,1.9,0c0.8,0.2,1.2,0.8,1.2,1.5v0.2c0,0.6-0.4,1.2-0.8,1.5c0,0-8.1,5.4-8.8,6
	C18.3,14.8,17.3,17.1,17.3,21.5z M46.2,12.1v25c0,0.6-0.4,1.3-1,1.5c0,0-11.2,8.7-13.5,10c-1.2,0.8-2.7,1.2-4.4,1.2
	c-4,0-8.1-2.1-8.1-5.8V20.4l0,0c0-1.3,0.4-3.5,3.1-5.4c1.5-1.2,11-7.5,11.3-7.9c0.6-0.4,1.3-0.4,1.9-0.2c0.6,0.4,1,1.2,1,1.7v2.9
	c0,1.2-0.8,1.9-1.9,1.9c-0.8,0-1.5-0.6-1.7-1.2c-3.1,2.1-7.3,5-8.3,5.8c-1.2,1-1.3,1.5-1.3,2.3c0,0.6,0.2,1,0.4,1.3
	c1,1,3.7,0.6,6.2-1c1.9-1.2,10.2-7.5,13.3-10c0.6-0.4,1.3-0.6,2.1-0.2S46.2,11.3,46.2,12.1z M42.3,20.8l-9.6,7.5v3.8l9.6-7.5V20.8z"
	/>
</svg>
