<?xml version="1.0" encoding="utf-8"?>
<!-- Generator: Adobe Illustrator 17.1.0, SVG Export Plug-In . SVG Version: 6.00 Build 0)  -->
<!DOCTYPE svg PUBLIC "-//W3C//DTD SVG 1.1//EN" "http://www.w3.org/Graphics/SVG/1.1/DTD/svg11.dtd">
<svg version="1.1" id="Layer_1" xmlns="http://www.w3.org/2000/svg" xmlns:xlink="http://www.w3.org/1999/xlink" x="0px" y="0px"
	 viewBox="0 0 50 50" enable-background="new 0 0 50 50" xml:space="preserve">
<path fill="#333333" d="M32.1,12.1C30,10,27.1,8.8,24,8.8S18.3,10,16,12.1L3.3,25c-4.4,4.4-4.4,11.5,0,16L9,46.7
	c2.1,2.1,5,3.3,8.1,3.3s5.8-1.2,8.1-3.3l12.9-12.9c2.1-2.1,3.3-5,3.3-8.1s-1.2-5.8-3.3-8.1L32.1,12.1z M36.2,29.8L31,24.6
	c-0.8-0.8-1.9-0.8-2.7,0s-0.8,1.9,0,2.7l5.4,5.4l-3.1,3.1l-5.4-5.4c-0.8-0.8-1.9-0.8-2.7,0c-0.8,0.8-0.8,1.9,0,2.7l5.4,5.4l-3.1,3.1
	l-5.4-5.4c-0.8-0.8-1.9-0.8-2.7,0s-0.8,1.9,0,2.7l5.4,5.4c-2.9,2.5-7.5,2.5-10.2-0.2l-5.8-5.8c-2.9-2.9-2.9-7.7,0-10.6L19,14.8
	c1.3-1.3,3.3-2.1,5.2-2.1s3.8,0.8,5.2,2.1l5.8,5.8c1.3,1.3,2.1,3.3,2.1,5.2C37.3,27.3,36.9,28.7,36.2,29.8z M47.3,7.7
	c-0.6,0.6-0.6,1.9-0.2,2.3c1.5,2.3,1.2,4.6-1,6.7L43.8,19c-1,1-3.3-1.3-6.2-4.2l-2.3-2.3c-2.9-2.9-5.4-5-4.2-6.2L33.5,4
	c2.1-2.1,4.4-2.5,6.7-1c0.2,0.2,1.5,0.2,2.1-0.4c0.6-0.6,2.1-2.1,2.1-2.1c1-1,2.1-0.6,2.9,0.4l1.5,1.5c1,1,1.3,2.1,0.4,2.9
	C49.4,5.6,47.9,6.9,47.3,7.7z"/>
</svg>
