<?xml version="1.0" encoding="utf-8"?>
<!-- Generator: Adobe Illustrator 17.1.0, SVG Export Plug-In . SVG Version: 6.00 Build 0)  -->
<!DOCTYPE svg PUBLIC "-//W3C//DTD SVG 1.1//EN" "http://www.w3.org/Graphics/SVG/1.1/DTD/svg11.dtd">
<svg version="1.1" id="Layer_1" xmlns="http://www.w3.org/2000/svg" xmlns:xlink="http://www.w3.org/1999/xlink" x="0px" y="0px"
	 viewBox="0 0 50 50" enable-background="new 0 0 50 50" xml:space="preserve">
<path fill="#333333" d="M46.2,26.9L46.2,26.9L46.2,26.9c0.8,2.7,1.9,5.8,1.9,10.6s-4.8,8.7-10.6,8.7c-4.2,0-7.9-1.9-9.6-4.2
	c-0.8,0.2-1.9,0.4-3.1,0.4s-2.1-0.2-3.1-0.4c-1.7,2.1-5.4,4.2-9.6,4.2c-5.8,0-10.6-3.8-10.6-8.7c0.4-4.8,1.5-7.9,2.3-10.6l0,0l0,0
	v-6.5c0-4-1.3-8.3-3.5-11.7C-0.2,7.9,0,6.7,1,6.2c0.8-0.6,1.9-0.4,2.5,0.6c2.9,4,4.2,8.8,4.2,13.7v6.5c0,0.2,0,0.2,0,0.2
	c8.3,1.2,14.2,6.5,15.2,11c0.6,0.2,1.3,0.2,2.1,0.2c0.8,0,1.5-0.2,2.1-0.2c1-4.6,6.9-10,15.2-11v-0.2v-6.5c0-4.8,1.3-9.6,4.2-13.8
	c0.6-1,1.7-1.2,2.7-0.6c1,0.6,1.2,1.7,0.6,2.7c-2.3,3.5-3.5,7.7-3.5,11.7v6.5H46.2z"/>
</svg>
