<?xml version="1.0" encoding="utf-8"?>
<!-- Generator: Adobe Illustrator 17.1.0, SVG Export Plug-In . SVG Version: 6.00 Build 0)  -->
<!DOCTYPE svg PUBLIC "-//W3C//DTD SVG 1.1//EN" "http://www.w3.org/Graphics/SVG/1.1/DTD/svg11.dtd">
<svg version="1.1" id="Layer_1" xmlns="http://www.w3.org/2000/svg" xmlns:xlink="http://www.w3.org/1999/xlink" x="0px" y="0px"
	 viewBox="0 0 50 50" enable-background="new 0 0 50 50" xml:space="preserve">
<path fill="#333333" d="M25.8,0L1.9,9.6v26.2l25,14.2l21.2-14.4v-26l0,0L25.8,0z M26.7,45.6L5.6,33.3V12.1l0,0l21.3,9.8v23.5
	L26.7,45.6z M28.1,20.4L7.9,11.2L25.8,4l17.9,7.7L28.1,20.4z M16,20.4c0-0.2-0.2-0.2-0.2-0.4l-1.9-0.8c-0.2,0-0.2,0-0.4,0
	s-0.2,0.2-0.2,0.2l-4,11.7c0,0.2,0,0.4,0.2,0.6l1.5,1c0.2,0,0.2,0,0.4,0c0,0,0.2,0,0.2-0.2l1-3.1l3.7,1.9l1.3,5
	c0,0.2,0.2,0.2,0.2,0.4l1.7,1h0.2l0,0c0.2,0,0.6-0.2,0.6-0.4v-0.2L16,20.4z M15.6,28.3l-2.3-1.2l1-3.1c0-0.2,0-0.2,0.2-0.4
	c0,0.4,0.2,0.6,0.2,1L15.6,28.3z M30,9c1.5,0.6,2.3,1,2.7,1.2c0.2,0.2,0.2,0.4,0.2,0.4s-0.2,0.4-0.4,0.6l-1,0.4c-0.2,0-0.4,0-0.4,0
	c-0.4-0.4-1.2-0.6-1.9-1c-2.3-0.8-4.8-0.8-6.3,0c-0.4,0.2-0.8,0.6-0.8,1c0,0.2,0.2,0.8,1.9,1.5c0.8,0.4,1.9,0.8,2.7,1
	c0.2,0,0.2,0.2,0.4,0.4s0,0.4,0,0.4l-0.4,0.6c0,0.2-0.2,0.2-0.4,0.2c0,0,0,0-0.2,0c-0.8-0.2-2.1-0.6-3.5-1.3c-1.9-1-2.9-1.9-2.9-2.9
	c0-0.6,0.2-1.3,1.5-2.1C23.1,7.9,26.7,7.9,30,9z"/>
</svg>
