<?xml version="1.0" encoding="utf-8"?>
<!-- Generator: Adobe Illustrator 17.1.0, SVG Export Plug-In . SVG Version: 6.00 Build 0)  -->
<!DOCTYPE svg PUBLIC "-//W3C//DTD SVG 1.1//EN" "http://www.w3.org/Graphics/SVG/1.1/DTD/svg11.dtd">
<svg version="1.1" id="Layer_1" xmlns="http://www.w3.org/2000/svg" xmlns:xlink="http://www.w3.org/1999/xlink" x="0px" y="0px"
	 viewBox="0 0 50 50" enable-background="new 0 0 50 50" xml:space="preserve">
<path fill="#333333" d="M48.1,25h-3.3l-4.6-2.5c0.2-0.2,0.2-0.6,0.2-0.8v-4.6c0-2.9-1.9-7.1-4.4-9.4c0.4-0.6,0.6-1.2,0.6-1.9V3.8
	c0-2.1-1.7-3.8-3.8-3.8H25c-2.1,0-3.8,1.7-3.8,3.8v1.9c0,0.6,0.2,1.2,0.4,1.5c-1.5,1.3-2.9,3.5-3.7,6.2c-0.2,0-0.4,0-0.6,0
	c-6.3,0-11.2,5-11.5,11.5H1.9C0.8,25,0,25.8,0,26.9v5.8c0,1.2,0.8,1.9,1.9,1.9h1.9v1.9c0,0.2,3.8,11.5,3.8,11.5c0.6,1,1,1.9,1.9,1.9
	h30.8c1.2,0,1.5-0.8,1.9-1.9c0,0,3.8-11.3,3.8-11.5v-1.9h1.9c1.2,0,1.9-0.8,1.9-1.9v-5.8C50,25.8,49.2,25,48.1,25z M27.7,19.8
	l9.2,5.2H22.1L27.7,19.8z M25,9.6c1.2,0,1.9-0.8,1.9-1.9S26.2,5.8,25,5.8V3.8h7.7v1.9c-1.2,0-1.9,0.8-1.9,1.9c0,1,0.8,1.9,1.7,1.9
	c1.2,0.6,4,4.8,4,7.5v3.3l-8.3-4.6c-0.8-0.4-1.7-0.4-2.3,0.2l-0.8,0.8c-1.2-1-2.3-1.9-3.7-2.5C22.5,11.2,24.6,9.6,25,9.6z
	 M17.3,17.3c1.9,0,3.8,0.8,5.2,2.1l-6,5.6H9.6C10,20.6,13.1,17.3,17.3,17.3z M19.2,42.3c0,1.2-0.8,1.9-1.9,1.9s-1.9-0.8-1.9-1.9
	v-7.7c0-1.2,0.8-1.9,1.9-1.9s1.9,0.8,1.9,1.9V42.3z M26.9,42.3c0,1.2-0.8,1.9-1.9,1.9s-1.9-0.8-1.9-1.9v-7.7c0-1.2,0.8-1.9,1.9-1.9
	s1.9,0.8,1.9,1.9V42.3z M34.6,42.3c0,1.2-0.8,1.9-1.9,1.9s-1.9-0.8-1.9-1.9v-7.7c0-1.2,0.8-1.9,1.9-1.9s1.9,0.8,1.9,1.9V42.3z"/>
</svg>
