<?xml version="1.0" encoding="utf-8"?>
<!-- Generator: Adobe Illustrator 17.1.0, SVG Export Plug-In . SVG Version: 6.00 Build 0)  -->
<!DOCTYPE svg PUBLIC "-//W3C//DTD SVG 1.1//EN" "http://www.w3.org/Graphics/SVG/1.1/DTD/svg11.dtd">
<svg version="1.1" id="Layer_1" xmlns="http://www.w3.org/2000/svg" xmlns:xlink="http://www.w3.org/1999/xlink" x="0px" y="0px"
	 viewBox="0 0 50 50" enable-background="new 0 0 50 50" xml:space="preserve">
<path fill="#333333" d="M49.2,23.5l-13.5-9h0.8c0.4,0,0.8-0.2,1-0.8c0.2-0.6,0-0.8-0.4-1.2L25.6,4.8c-0.4-0.2-0.8-0.2-1.2,0
	l-11.5,7.7c-0.4,0.4-0.4,0.8-0.4,1.2s0.6,0.8,1,0.8h0.8l-13.5,9c-0.8,0.4-1,1.3-0.8,2.1c0.4,0.8,1.2,1.3,1.9,1.3h2.9
	c1,0.8,2.7,1.9,5.8,1.9c2.1,0,3.7-1,4.8-2.1c1.2,1.2,2.7,2.1,4.8,2.1s3.7-1,4.8-2.1c1.2,1.2,2.7,2.1,4.8,2.1s3.7-1,4.8-2.1
	c1.2,1.2,2.7,2.1,4.8,2.1c1.2,0,2.1-0.2,2.9-0.4v13.8H30.8V31c-0.4,0-0.6,0-1,0c-1.7,0-3.5-0.6-4.8-1.3c-1.3,1-3.1,1.3-4.8,1.3
	s-3.5-0.4-4.8-1.3c-1.3,1-3.1,1.3-4.8,1.3c-3.1,0-5.2-1-6.3-1.9H3.8v19c0,1.2,0.8,1.9,1.9,1.9h38.5c1.2,0,1.9-0.8,1.9-1.9v-3.8V26.9
	h1.9c0.8,0,1.5-0.6,1.9-1.3C50.2,24.8,49.8,23.8,49.2,23.5z M21.2,40.4h-7.7v-7.7h7.7V40.4z"/>
</svg>
