<?xml version="1.0" encoding="utf-8"?>
<!-- Generator: Adobe Illustrator 17.1.0, SVG Export Plug-In . SVG Version: 6.00 Build 0)  -->
<!DOCTYPE svg PUBLIC "-//W3C//DTD SVG 1.1//EN" "http://www.w3.org/Graphics/SVG/1.1/DTD/svg11.dtd">
<svg version="1.1" id="Layer_1" xmlns="http://www.w3.org/2000/svg" xmlns:xlink="http://www.w3.org/1999/xlink" x="0px" y="0px"
	 viewBox="0 0 50 50" enable-background="new 0 0 50 50" xml:space="preserve">
<path fill="#333333" d="M44.2,9.6h-10c-1-3.3-4.8-5.8-9.2-5.8s-8.3,2.5-9.2,5.8h-10C2.5,9.6,0,12.1,0,15.4v28.8
	C0,47.5,2.5,50,5.8,50h38.5c3.3,0,5.8-2.5,5.8-5.8V15.4C50,12.1,47.5,9.6,44.2,9.6z M21.2,34.6h7.7v1.9c0,1.2-0.8,1.9-1.9,1.9h-3.8
	c-1.2,0-1.9-0.8-1.9-1.9V34.6z M25,7.7c2.1,0,4,0.8,5,1.9H20C21,8.5,22.9,7.7,25,7.7z M3.8,15.4c0-1.2,0.8-1.9,1.9-1.9h38.5
	c1.2,0,1.9,0.8,1.9,1.9v13.5c0,1.2-0.8,1.9-1.9,1.9H28.8c0-1.2-0.8-1.9-1.9-1.9h-3.8c-1.2,0-1.9,0.8-1.9,1.9H5.8
	c-1.2,0-1.9-0.8-1.9-1.9V15.4z"/>
</svg>
