<?xml version="1.0" encoding="utf-8"?>
<!-- Generator: Adobe Illustrator 17.1.0, SVG Export Plug-In . SVG Version: 6.00 Build 0)  -->
<!DOCTYPE svg PUBLIC "-//W3C//DTD SVG 1.1//EN" "http://www.w3.org/Graphics/SVG/1.1/DTD/svg11.dtd">
<svg version="1.1" id="Layer_1" xmlns="http://www.w3.org/2000/svg" xmlns:xlink="http://www.w3.org/1999/xlink" x="0px" y="0px"
	 viewBox="0 0 50 50" enable-background="new 0 0 50 50" xml:space="preserve">
<path fill="#333333" d="M40.4,19.2c-1.5,0-2.7,0.2-3.8,0.6v-4.4c0-1.2-0.8-1.9-1.9-1.9H7.7c-1.2,0-1.9,0.8-1.9,1.9v32.7
	c0,1.2,0.8,1.9,1.9,1.9h26.9c1.2,0,1.9-0.8,1.9-1.9v-5.8c0-1.7,1.5-2.9,4.2-4.6c3.3-2.3,7.3-5,7.3-10.6C48.1,23.8,46,19.2,40.4,19.2
	z M38.7,34.4c-0.8,0.4-1.3,1-2.1,1.5V24.2c0.8-0.4,2.1-1,3.8-1c3.7,0,3.8,3.3,3.8,3.8C44.2,30.6,41.5,32.3,38.7,34.4z M28.8,11.3
	c-5.4-5.6,4-4,1.9-9.8C36.2,7.3,27.3,5.8,28.8,11.3z M21.2,11.3c-5.4-6.3,4-4.4,1.9-11.2C28.5,6.7,19.6,5,21.2,11.3z M13.5,11.3
	c-5.4-5.6,4-4,1.9-9.8C20.8,7.3,11.9,5.8,13.5,11.3z"/>
</svg>
