<?xml version="1.0" encoding="utf-8"?>
<!-- Generator: Adobe Illustrator 17.1.0, SVG Export Plug-In . SVG Version: 6.00 Build 0)  -->
<!DOCTYPE svg PUBLIC "-//W3C//DTD SVG 1.1//EN" "http://www.w3.org/Graphics/SVG/1.1/DTD/svg11.dtd">
<svg version="1.1" id="Layer_1" xmlns="http://www.w3.org/2000/svg" xmlns:xlink="http://www.w3.org/1999/xlink" x="0px" y="0px"
	 viewBox="0 0 50 50" enable-background="new 0 0 50 50" xml:space="preserve">
<path fill="#333333" d="M13.5,9.6c1.3,4.4,12.7,32.9,15.4,36.5c0,0-9.4-3.1-11-3.7c-1.7-0.6-5.4-16.9-5.4-16.9s-3.7,13.3-5,13.3
	C6,38.3,0,36.5,0,36.5C2.9,33.7,11,13.1,13.5,9.6z M37.5,9.6c-2.7,1.2-15.2,2.9-22.1,0c4,11.3,12.7,32.9,15.4,36.5
	c0,0,14.6-3.5,19.2-7.7C44,31.7,40.8,13.8,37.5,9.6z"/>
</svg>
