<?xml version="1.0" encoding="utf-8"?>
<!-- Generator: Adobe Illustrator 17.1.0, SVG Export Plug-In . SVG Version: 6.00 Build 0)  -->
<!DOCTYPE svg PUBLIC "-//W3C//DTD SVG 1.1//EN" "http://www.w3.org/Graphics/SVG/1.1/DTD/svg11.dtd">
<svg version="1.1" id="Layer_1" xmlns="http://www.w3.org/2000/svg" xmlns:xlink="http://www.w3.org/1999/xlink" x="0px" y="0px"
	 viewBox="0 0 50 50" enable-background="new 0 0 50 50" xml:space="preserve">
<path fill="#333333" d="M1784.6,2821.2v3.8v3.8v15.4v3.8v15.4v3.8v3.8h-50v-3.8v-3.8v-15.4v-3.8v-15.4v-3.8v-3.8H1784.6z M37.5,40.8
	c-2.5,0-4.4,1.9-4.4,4.4s1.9,4.4,4.4,4.4c2.5,0,4.4-1.9,4.4-4.4S40,40.8,37.5,40.8z M12.5,40.8c-2.5,0-4.4,1.9-4.4,4.4
	s1.9,4.4,4.4,4.4s4.4-1.9,4.4-4.4S15,40.8,12.5,40.8z M50,38.5v3.8c0,1.2-0.8,1.9-1.9,1.9h-3.8c-0.4-3.3-3.3-6-6.7-6s-6.3,2.7-6.7,6
	H19.2c-0.4-3.3-3.3-6-6.7-6s-6.3,2.7-6.7,6H1.9c-1.2,0-1.9-0.8-1.9-1.9v-9.6c0-1.2,0.8-1.9,1.9-1.9c0,0,1.9,0,3.1,0
	c1.7,0,1.7,0,3.1-1.9s5-6.5,5-6.5c0.2-0.6,1.2-1.2,2.3-1.2h13.5c1.2,0,2.3,0.6,2.9,1.2c0,0,3.7,4.4,5.2,6.3c1.7,2.1,1.7,2.1,3.5,2.1
	C48.1,30.8,50,36.5,50,38.5z M21.2,25H16c-0.2,0-0.8,0.4-0.8,0.4l-4,5.4h10V25z M33.8,30.8l-4.2-5.2c-0.2-0.2-0.8-0.6-1.5-0.6H25
	v5.8H33.8z"/>
</svg>
