<?xml version="1.0" encoding="utf-8"?>
<!-- Generator: Adobe Illustrator 17.1.0, SVG Export Plug-In . SVG Version: 6.00 Build 0)  -->
<!DOCTYPE svg PUBLIC "-//W3C//DTD SVG 1.1//EN" "http://www.w3.org/Graphics/SVG/1.1/DTD/svg11.dtd">
<svg version="1.1" id="Layer_1" xmlns="http://www.w3.org/2000/svg" xmlns:xlink="http://www.w3.org/1999/xlink" x="0px" y="0px"
	 viewBox="0 0 50 50" enable-background="new 0 0 50 50" xml:space="preserve">
<path fill="#333333" d="M49.2,20.4c-0.4,0-0.4-0.2-0.4,0.2c0,0.8,0,1.7-0.8,2.3c-0.6,0.4-1.2,0.4-1.7-0.2c-0.6-0.4-1-1.3-1.3-1.9
	c0.4,0.8,0,2.3-0.8,3.1c-1.2,1.2-1.9-1.3-2.1-2.1c-0.2,0.8-1,0.8-1.2,0.2c-0.4-0.6-0.6-1.3-0.4-1.9c-0.6,0.4-1,0.8-1.5,0
	c-0.4-0.6,0-1.2-0.4-1.7c0,0.2,0,0.2-0.2,0.4c-0.4,0-0.8-0.4-1-0.6c-1.3-1-3.8,0-5.2,0.8c-0.2,0-0.2,0.2-0.4,0.2
	c3.8,4.2,5,9.6,3.7,11c0,0-1.3,1-3.5,2.3C31.7,32.5,30,29,27.7,29c1.7,1.7,2.1,4.4,1.9,5c-1.2,1.7-6.7,5.4-8.1,5.2
	c-1.3-0.2-1.3-2.5-4-3.5c1,1.7,2.5,4.4,1.7,4.8C11.2,45.4,2.3,50.2,1,48.8c-1.5-1.5,9.4-21.3,10.4-21.5c1-0.2,4.2,0.2,7.3,2.5
	c-1.9-4-4.8-4.8-5.4-5.8c-0.6-1,6.5-10.2,6.7-10.2c1.5-1.5,6.7-0.4,11,3.7c0-0.2,0.2-0.2,0.2-0.4c0.8-1.3,1.7-3.8,0.8-5.2
	c-0.2-0.4-0.6-0.6-0.6-1c0.2,0,0.2-0.2,0.4-0.2c-0.4-0.4-1.2,0-1.5-0.4c-0.6-0.6-0.4-1,0-1.5c-0.6,0.2-1.3,0-1.9-0.4
	s-0.6-1.2,0.2-1.2c-0.8-0.2-3.3-1-2.1-2.1c0.6-0.8,2.1-1,3.1-0.8C29,4,28.1,3.7,27.5,3.1c-1,0-1-0.6-0.6-1.2
	c0.6-0.8,1.3-0.8,2.3-0.8c0.6,0,0.2-0.2,0.2-0.4c0.2-0.4,0.8,0.2,1.2,0.4c0,0,0.2,0,0.2,0.2c1,0.8,0.2-0.4,0.6-0.6
	c0.4-0.4,1.2,0.6,1.5,1c0.4,0.6,0.8,1.2,0.8,1.7c0-0.2,0-0.8,0.4-0.8s0.8,0.8,0.8,1c0.4,0.6,0.6,1.2,0.8,1.7c0.2,0.6,0,1,0.2,1.5
	C36,6.7,36,6.5,36.2,6.3c0.8,0.6,0.4,3.1-0.2,3.7c0.4-0.2,0.6-0.4,0.6,0.2c0,0.4-0.2,0.8-0.2,1.2c-0.4,1.2-0.8,2.3-1.3,3.3
	c3.1-4,2.9-6.2,3.8-7.3c0.4-0.6,1.2-0.6,1.5-0.2c-0.2-0.8-0.2-1.5,0.2-2.1c0.4-0.8,1.5-1.2,1.9-0.2c0-0.8,0-1.5,0.6-2.3
	c0.2-0.2,0.8-0.6,1.2-0.4s0.8,0.6,0.6,1c1-1,1.9-1.5,3.1-0.6c0.8,0.8,0.8,2.1,0,2.9c0-0.4,0.2,0.2,0.2,0.4c0,0.4-0.2,0.8-0.6,1.2
	c-0.6,0.6-1.5,0.8-2.5,1c0.4,0,1,0,1.2,0.4c0.2,0.4,0,1-0.4,1.3c-0.4,0.6-1.2,0.6-1.9,0.8c-0.6,0-1,0.2-1.5,0.2
	c0.4,0.2,0.8,0.4,0.4,0.8c-1.3,1.2-2.5,0-7.3,3.8c1-0.6,1.9-1,3.1-1.3c0.8-0.2,1.2-0.4,1.5-0.4c0.6,0,0.4,0.4,0.2,0.6
	c0.6-0.6,3.1-1,3.7-0.2c-0.2,0.2-0.4,0.2-0.6,0.4c0.6,0,1,0,1.5,0.2s1.2,0.4,1.7,0.8c0.2,0.2,1,0.6,1,0.8c0,0.4-0.6,0.4-0.8,0.4
	c0.6,0.2,1.3,0.4,1.7,0.8c0.2,0.2,1.3,1,1,1.5c-0.2,0.4-1.3-0.4-0.6,0.6c0,0,0,0,0.2,0.2C49,19.6,49.6,20.2,49.2,20.4z"/>
</svg>
