<?xml version="1.0" encoding="utf-8"?>
<!-- Generator: Adobe Illustrator 17.1.0, SVG Export Plug-In . SVG Version: 6.00 Build 0)  -->
<!DOCTYPE svg PUBLIC "-//W3C//DTD SVG 1.1//EN" "http://www.w3.org/Graphics/SVG/1.1/DTD/svg11.dtd">
<svg version="1.1" id="Layer_1" xmlns="http://www.w3.org/2000/svg" xmlns:xlink="http://www.w3.org/1999/xlink" x="0px" y="0px"
	 viewBox="0 0 50 50" enable-background="new 0 0 50 50" xml:space="preserve">
<path fill="#333333" d="M44,19.4c0,9.2-7.3,10-7.3,10s-2.1,9-3.5,14.2c-0.6,2.3-1.5,6-3.1,6c-1.2,0-1.3-2.3-1.2-6
	c0.2-4,0.6-7.5-1.7-7.5c-1.7,0-2.3,4.4-3.3,9.8c-0.4,2.3-1,3.7-1.7,3.7c-0.8,0-1.2-1.9-1.5-4c-0.2-1.9-0.6-4.6-1-8.7
	c-0.4-3.8-1.2-4.6-2.3-4.6c-2.1,0-1.9,9.8-2.5,14.6c-0.2,1.5-0.8,2.5-1.3,2.5c-0.6,0-1-0.6-1.5-1.7C11.5,46.3,7.5,31.3,7.5,24
	c0-3.8,1.7-6.7,1.7-6.7S7.1,16,7.1,11C7.1,4,13.3,0.4,18.8,0.4s7.3,3.1,8.1,4c1.3,1.3,0.4,4.2-1.7,2.3c-1.3-1.2-2.5-2.5-6.5-2.5
	c-3.3,0-6.3,3.1-6.3,6.5c0,2.5,1.2,3.1,1.2,3.1s2.5-2.1,5.8-2.1c2.5,0,4.8,1,4.8,1s-5.2,15.2,9.6,16.5c-2.7-0.8-6.7-3.7-6.7-9.8
	s2.3-8.1,2.3-8.1l3.1,4.8c0,0,1.7-0.6,3.1-0.6c1.5,0,3.5,0.6,3.5,0.6l4.2-4.4C43.5,11.7,44,15.2,44,19.4z"/>
</svg>
