<?xml version="1.0" encoding="utf-8"?>
<!-- Generator: Adobe Illustrator 17.1.0, SVG Export Plug-In . SVG Version: 6.00 Build 0)  -->
<!DOCTYPE svg PUBLIC "-//W3C//DTD SVG 1.1//EN" "http://www.w3.org/Graphics/SVG/1.1/DTD/svg11.dtd">
<svg version="1.1" id="Layer_1" xmlns="http://www.w3.org/2000/svg" xmlns:xlink="http://www.w3.org/1999/xlink" x="0px" y="0px"
	 viewBox="0 0 50 50" enable-background="new 0 0 50 50" xml:space="preserve">
<path fill="#333333" d="M25,0C11.2,0,0,11.2,0,25s11.2,25,25,25s25-11.2,25-25S38.8,0,25,0z M25,46.2C13.3,46.2,3.8,36.7,3.8,25
	S13.3,3.8,25,3.8S46.2,13.3,46.2,25S36.7,46.2,25,46.2z M12.3,22.5l-5.2-1c1.3-7.3,7.1-13.1,14.4-14.4l1,5.2
	C17.3,13.3,13.3,17.3,12.3,22.5z M42.9,28.5c-1.3,7.3-7.1,13.1-14.4,14.4l-1-5.2c5.2-1,9.2-5,10.2-10.2L42.9,28.5z M34.4,25
	c0-5.2-4.2-9.4-9.4-9.4s-9.4,4.2-9.4,9.4s4.2,9.4,9.4,9.4S34.4,30.2,34.4,25z M25,27.3c-1.3,0-2.3-1-2.3-2.3s1-2.3,2.3-2.3
	s2.3,1,2.3,2.3S26.3,27.3,25,27.3z"/>
</svg>
