<?xml version="1.0" encoding="utf-8"?>
<!-- Generator: Adobe Illustrator 17.1.0, SVG Export Plug-In . SVG Version: 6.00 Build 0)  -->
<!DOCTYPE svg PUBLIC "-//W3C//DTD SVG 1.1//EN" "http://www.w3.org/Graphics/SVG/1.1/DTD/svg11.dtd">
<svg version="1.1" id="Layer_1" xmlns="http://www.w3.org/2000/svg" xmlns:xlink="http://www.w3.org/1999/xlink" x="0px" y="0px"
	 viewBox="0 0 50 50" enable-background="new 0 0 50 50" xml:space="preserve">
<path fill="#333333" d="M43.7,42.1L41,32.5c0.4-0.2,0.8-0.6,1.2-0.8c3.1-2.9,3.7-8.5,2.1-13.7c-0.2-0.4-0.2-0.8-0.4-1.2l0,0
	c-1.3-4.4-4-11.3-4-11.3l-15.6,4c0,0,0.2,0.6,0.4,1.5L10.4,7.3c0,0-2.5,6.9-3.8,11.2c0,0.2,0,0.2-0.2,0.4c-0.2,0.4-0.2,0.6-0.2,1
	c0,0,0,0,0,0.2c-0.6,2.1-0.8,4.2-0.8,6.2c0.2,3.7,1.3,6.7,4,8.5l-2.7,9.6c-3.5-0.6-5.6,0.4-6,1.7l13.8,3.8c0.4-1.5-1-3.3-4.2-4.6
	l2.7-9.6l0,0l0,0h0.2c0.2,0,0.6,0,0.8,0h0.2c0.2,0,0.4,0,0.6-0.2H15c0.2,0,0.4-0.2,0.6-0.2c0,0,0.2,0,0.2-0.2c0.6-0.4,0.8-0.4,1-0.6
	c0,0,0.2,0,0.2-0.2c0.2-0.2,0.4-0.2,0.6-0.4c0,0,0.2,0,0.2-0.2c0.2-0.2,0.6-0.4,0.8-0.6l0,0c0.2-0.2,0.6-0.6,0.8-0.8l0,0
	c0.2-0.2,0.4-0.6,0.8-0.8l0.2-0.2c0.2-0.2,0.4-0.4,0.6-0.8c0-0.2,0.2-0.2,0.2-0.4c0.2-0.2,0.2-0.4,0.4-0.8c0-0.2,0.2-0.2,0.2-0.4
	c0.2-0.2,0.2-0.4,0.4-0.8c0-0.2,0.2-0.2,0.2-0.4c0.2-0.2,0.2-0.6,0.4-0.8c0-0.2,0.2-0.2,0.2-0.4c0.2-0.2,0.2-0.6,0.4-0.8
	c0-0.2,0-0.2,0.2-0.4c0.2-0.4,0.2-0.8,0.4-1.2c0.2-0.4,0.2-1,0.4-1.5l0,0c0.2-0.6,0.2-1.2,0.4-1.7l0,0c0.4-1.9,1-4.2,1.3-6l0,0l0,0
	c0,0.2,0,0.2,0,0.4v0.2c0.2,1.3,0.6,2.7,0.8,3.8c0,0.2,0,0.2,0.2,0.4c0.2,0.4,0.2,0.8,0.4,1.2c0,0.4,0.2,0.6,0.2,0.8
	c0,0.2,0,0.2,0,0.4c0,0.2,0.2,0.4,0.2,0.8c0,0.2,0,0.2,0.2,0.4c0,0.2,0.2,0.4,0.2,0.6s0.2,0.4,0.2,0.4c0,0.2,0.2,0.4,0.2,0.6
	s0.2,0.4,0.2,0.4c0,0.2,0.2,0.4,0.4,0.6c0,0.2,0.2,0.4,0.2,0.4c0.2,0.2,0.2,0.4,0.4,0.6c0,0.2,0.2,0.2,0.2,0.4
	c0.2,0.2,0.2,0.4,0.4,0.6c0,0.2,0.2,0.2,0.2,0.4c0.2,0.2,0.2,0.4,0.4,0.6c0.2,0.2,0.2,0.2,0.4,0.4c0.2,0.2,0.4,0.4,0.6,0.8
	c0.2,0.2,0.4,0.4,0.4,0.4c0.2,0.2,0.2,0.2,0.4,0.4c0.2,0.2,0.2,0.2,0.4,0.4c0.2,0.2,0.2,0.2,0.4,0.2c0.2,0.2,0.2,0.2,0.4,0.2
	c0.2,0,0.2,0.2,0.4,0.2c0.2,0,0.4,0.2,0.4,0.2c0.2,0,0.2,0.2,0.4,0.2c0.2,0,0.4,0.2,0.4,0.2c0.2,0,0.2,0,0.4,0.2
	c0.2,0,0.4,0,0.6,0.2c0.2,0,0.2,0,0.4,0c0.2,0,0.4,0,0.6,0s0.2,0,0.4,0l0,0l0,0l2.7,9.6c-3.3,1.3-4.6,3.3-4.2,4.6l13.8-3.8
	C49.2,42.5,47.1,41.5,43.7,42.1z M11.5,9.8l12.1,3.5c-0.2,1.2-0.6,2.7-0.8,4.2l-11.3,0.2C8.1,27.5,9,31.2,9.6,32.3
	C6.9,30,6.5,25,7.9,20.6c0.2-0.8,0.6-1.9,1-3.1l0,0l0,0C9.8,14.6,11,11.5,11.5,9.8z M38.7,7.7c0.8,1.9,1.7,5,2.7,7.7H29.8
	c2.7,14.8,4.8,15.2,4.8,15.2s0,0-0.2,0c-2.3-1.3-4.4-4.4-5.6-8.5c-0.8-2.9-1.9-8.3-2.5-11L38.7,7.7z M17.5,7.3
	c-0.4-0.4-0.2-1,0.2-1.3c0,0,1.9-1.5,1.5-5c0-0.4,0.2-1,0.8-1c0.4-0.2,1,0,1.2,0.4c0.6,1.2,1.9,1.3,2.7,1.3c1.3,0,2.9-0.6,3.5-1.5
	c0,0,0.4-0.2,0.8-0.2c0.4,0.2,0.8,0.6,0.8,1c0,1,0.4,1.9,1,2.3c0.4,0.4,1.2,0.6,1.9,0.6c0.4,0,1,0.4,1,1c0,0.4-0.4,1-1,1
	c-1.3,0.2-2.5-0.2-3.3-1c-0.6-0.6-1-1.2-1.2-1.7c-1,0.4-2.3,0.8-3.7,0.8c-1,0-1.7-0.2-2.5-0.6c-0.4,2.9-2.1,4.2-2.3,4.2
	c-0.2,0.2-0.4,0.2-0.6,0.2C17.9,7.7,17.7,7.5,17.5,7.3z"/>
</svg>
