<?xml version="1.0" encoding="utf-8"?>
<!-- Generator: Adobe Illustrator 17.1.0, SVG Export Plug-In . SVG Version: 6.00 Build 0)  -->
<!DOCTYPE svg PUBLIC "-//W3C//DTD SVG 1.1//EN" "http://www.w3.org/Graphics/SVG/1.1/DTD/svg11.dtd">
<svg version="1.1" id="Layer_1" xmlns="http://www.w3.org/2000/svg" xmlns:xlink="http://www.w3.org/1999/xlink" x="0px" y="0px"
	 viewBox="0 0 50 50" enable-background="new 0 0 50 50" xml:space="preserve">
<path fill="#333333" d="M44,9.2c0-1.3-0.4-2.5-1.2-3.5c0.4-0.2,0.6-0.4,0.8-0.8c0.6-1.2,0.2-2.5-0.8-3.1c-0.8-0.4-1.5-0.4-2.1,0
	C40.6,1,39.6,0,38.5,0s-1.9,0.8-2.1,1.7c-0.6-0.2-1.3-0.4-1.9,0c-1.2,0.6-1.7,1.9-1.2,3.1c0.2,0.4,0.6,0.8,1,1
	c-4,4.4-3.1,15.4-11.7,15.4c-12.1,0-18.1-5.6-19.2-7.1c-1-1-1.3-0.6-1.3,1.3c0,3.1,2.1,7.1,4.8,7.7c-1.5,0-2.5,0.2-3.5,1.2
	C2.7,24.8,3.1,25,3.5,25c0.8,0.2,1.7,0.8,2.5,1.5c-1.7,0.4-2.3,1-2.7,1.5c-0.2,0.4-0.2,0.4,0.4,0.6c1,0.4,1.7,1.2,2.3,2.1
	c1.5,2.7,4.2,7.5,10.6,7.5c12.7,0,13.8-12.5,13.8-12.5s0.2,14.8-14,14.8c1.9,0.8,4.2,1.3,6.9,1.5v0.2v2.1c-1.9,0.6-3.1,1.7-3.7,2.7
	c-0.6,1-0.2,2.1,0.8,2.7c1,0.6,2.1,0.2,2.7-0.8c0,0,0.6-1,2.1-1s2.1,1,2.1,1c0.4,0.6,1,1,1.7,1c0.4,0,0.6,0,1-0.2
	c1-0.6,1.3-1.7,0.8-2.7c-0.4-0.8-1.7-2.1-3.7-2.7v-2.1c0,0,0,0,0-0.2c6.2-0.6,15.2-4.2,15.2-13.8c0-5-1.3-7.3-1.3-10.6
	c0-2.5,1.3-3.8,1.9-4.4c0.2-0.2,1.7-0.4,3.5,0.4C46.3,10.8,44,9.8,44,9.2z M41.5,9.6c-0.4,0-0.8-0.4-0.8-0.8c0-0.4,0.4-0.8,0.8-0.8
	c0.4,0,0.8,0.4,0.8,0.8S41.9,9.6,41.5,9.6z"/>
</svg>
