<?xml version="1.0" encoding="utf-8"?>
<!-- Generator: Adobe Illustrator 17.1.0, SVG Export Plug-In . SVG Version: 6.00 Build 0)  -->
<!DOCTYPE svg PUBLIC "-//W3C//DTD SVG 1.1//EN" "http://www.w3.org/Graphics/SVG/1.1/DTD/svg11.dtd">
<svg version="1.1" id="Layer_1" xmlns="http://www.w3.org/2000/svg" xmlns:xlink="http://www.w3.org/1999/xlink" x="0px" y="0px"
	 viewBox="0 0 50 50" enable-background="new 0 0 50 50" xml:space="preserve">
<path fill="#333333" d="M42.3,14.2c0-0.6,0-1,0-1.5c0,0,0,0,0-0.2c-0.4-3.3-1.7-6.2-4-8.5c-0.4-0.4-1-1-1.5-1.3
	c-0.2,0-0.2-0.2-0.4-0.2c-0.6-0.2-1.2-0.6-1.7-1l0,0l0,0c-1-0.6-1.9-1-3.1-1.2l0,0l0,0C31,0.2,30.6,0.2,30,0h-0.2
	c-0.6,0-1.2,0-1.7,0c-0.6,0-1,0-1.5,0l0,0c-0.6,0-1,0.2-1.5,0.2l0,0l0,0c-1.2,0.2-2.1,0.6-3.1,1l0,0l0,0c-0.8,0.4-1.5,0.8-2.1,1.2
	l0,0c-0.6,0.4-1.3,1-1.9,1.5l0,0l0,0c-0.8,0.8-0.8,2.1,0,2.9s2.1,2.1,2.9,2.9C21,9.8,21.2,10,21.3,10s0.4,0.2,0.6,0.2c0,0,0,0,0.2,0
	l0,0c0.4,0,1-0.2,1.3-0.6l0,0l0,0c0,0,0,0,0.2,0l0,0l0,0c0.8-0.8,1.7-1.3,2.9-1.5l0,0c0.2,0,0.2,0,0.4,0l0,0c0.4,0,1-0.2,1.3-0.2
	c0.8,0,1.5,0.2,2.3,0.4l0,0c0.2,0.2,0.6,0.2,0.8,0.4c0,0,0,0,0.2,0c0.2,0.2,0.6,0.4,0.8,0.6l0,0c0.2,0.2,0.4,0.2,0.6,0.4
	c0.8,0.8,1.3,1.9,1.7,2.9c0,0.2,0,0.4,0.2,0.8c0,0.2,0,0.6,0,0.8c0,0.8-0.2,1.7-0.4,2.3c-0.2,0.2-0.2,0.4-0.4,0.8
	c0,0.2-0.2,0.2-0.2,0.4l0,0c-0.2,0.4-0.4,0.6-0.8,1l-25,25l0,0c-0.2,0.2-0.4,0.6-0.4,0.8c0,0.2,0,0.4-0.2,0.6c0,0.2,0,0.2,0,0.4
	c0,0.2,0,0.2,0,0.4v0.2c0,0.2,0.2,0.4,0.4,0.6c0.8,0.8,2.1,2.1,2.9,2.9c0.2,0.2,0.4,0.4,0.6,0.4c-0.2,0.4,0,0.4,0.4,0.4
	c0.6,0,1-0.2,1.3-0.6l6.3-6.3l0,0l1-1l6-6l0,0l2.5-2.5l9-9c2.7-2.7,4-6,4.2-9.8l0,0C42.3,14.4,42.3,14.4,42.3,14.2z M23.1,7.3
	l-0.6-3.7c1-0.6,1.9-1,3.1-1.2L26.2,6C25,6.2,23.8,6.7,23.1,7.3z M28.3,5.8l2.1-3.3c1.2,0.2,2.1,0.6,3.1,1l-1.7,2.9
	C30.6,6,29.4,5.8,28.3,5.8z M37.5,6.9c0.6,0.8,1.2,1.7,1.5,2.7L36,11c-0.4-1-1-1.9-1.7-2.7L37.5,6.9z M34.8,24.4l-4-0.6l2.9-2.9
	l4,0.6c-0.4,0.4-0.6,0.8-1,1.2L34.8,24.4z M30.6,28.7l-2.9,2.9l-4-0.8l2.9-2.9L30.6,28.7z M13.7,45.6l-4-0.6l2.9-2.9l4,0.6
	L13.7,45.6z M20.8,38.5l-4-0.6l2.9-2.9l4,0.6L20.8,38.5z M39.6,17.5l-3.5-0.6c0.2-0.8,0.4-1.7,0.4-2.7c0-0.2,0-0.4,0-0.4l3.5,0.6
	C40,15.4,39.8,16.3,39.6,17.5z"/>
</svg>
