<?xml version="1.0" encoding="utf-8"?>
<!-- Generator: Adobe Illustrator 17.1.0, SVG Export Plug-In . SVG Version: 6.00 Build 0)  -->
<!DOCTYPE svg PUBLIC "-//W3C//DTD SVG 1.1//EN" "http://www.w3.org/Graphics/SVG/1.1/DTD/svg11.dtd">
<svg version="1.1" id="Layer_1" xmlns="http://www.w3.org/2000/svg" xmlns:xlink="http://www.w3.org/1999/xlink" x="0px" y="0px"
	 viewBox="0 0 50 50" enable-background="new 0 0 50 50" xml:space="preserve">
<path fill="#333333" d="M48.1,42.3c-1.2,0-1.9,0.8-1.9,1.9s-0.8,1.9-1.9,1.9c-3.5,0-5.6-2.3-6.7-4.2c7.3-0.8,10.6-3.3,10.6-3.8
	c0-6.5-4.6-10-11-10c-2.9,0-9.8-4-11.7-8.8C24,15.8,25,5.8,25,2.7C25,1.5,23.5,0,20.4,0c-2.9,0-5,1.3-5,3.8c-3.5,0-9.6,1.9-9.6,7.7
	c0,1.5,0,7.1,0,8.8c0,6.2-1.9,8.5-1.9,16.2c0,1.9,0.4,3.3,0.4,3.3s1.3,0.6,5.2,0.6c-1,3.8-4.2,5.8-7.5,5.8c-1.2,0-1.9,0.8-1.9,1.9
	S0.8,50,1.9,50h42.3c3.3,0,5.8-2.5,5.8-5.8C50,43.1,49.2,42.3,48.1,42.3z M30.8,28.8c1.2,0,1.9,0.8,1.9,1.9s-0.8,1.9-1.9,1.9
	s-1.9-0.8-1.9-1.9S29.6,28.8,30.8,28.8z M25,25c1.2,0,1.9,0.8,1.9,1.9s-0.8,1.9-1.9,1.9s-1.9-0.8-1.9-1.9S23.8,25,25,25z M23.1,21.2
	c0,1.2-0.8,1.9-1.9,1.9s-1.9-0.8-1.9-1.9s0.8-1.9,1.9-1.9S23.1,20,23.1,21.2z M19.2,11.5c1.2,0,1.9,0.8,1.9,1.9s-0.8,1.9-1.9,1.9
	s-1.9-0.8-1.9-1.9S18.1,11.5,19.2,11.5z M13.3,40.6c10.6,0.4,12.9,1.7,18.8,1.7c0.4,0,0.8,0,1.2,0c0.4,1,1.3,2.5,2.5,3.8H10.6
	C11.9,44.6,12.9,42.7,13.3,40.6z"/>
</svg>
