<?xml version="1.0" encoding="utf-8"?>
<!-- Generator: Adobe Illustrator 17.1.0, SVG Export Plug-In . SVG Version: 6.00 Build 0)  -->
<!DOCTYPE svg PUBLIC "-//W3C//DTD SVG 1.1//EN" "http://www.w3.org/Graphics/SVG/1.1/DTD/svg11.dtd">
<svg version="1.1" id="Layer_1" xmlns="http://www.w3.org/2000/svg" xmlns:xlink="http://www.w3.org/1999/xlink" x="0px" y="0px"
	 viewBox="0 0 50 50" enable-background="new 0 0 50 50" xml:space="preserve">
<path fill="#333333" d="M43.3,11.5c-0.6,0-1,0-1.3,0.2c-4.2-5.4-10.4-7.9-17.1-7.9C14.4,3.8,4.4,20.2,3.7,33.1
	c-1.2,0.6-2.1,1.5-2.5,2.9c-0.4,1.2-1,4.8-1.2,6c-0.4,2.1,0.8,3.7,2.7,4.2c0.4,0,7.7,1.9,18.3,1.9c9.2,0,15.8-1.3,18.3-1.9
	c1.2-0.2,1.9-1,2.5-1.7c0.4-0.6,0.6-1.5,0.4-2.7c-0.2-0.4-0.4-1.7-0.6-2.9c-0.2-1.5-0.4-2.5-0.6-2.9c-0.2-0.8-0.8-2.7-3.3-3.1
	c-5.8-14-4.6-17.1-0.8-16.5c-0.2,0.4-0.4,1.2-0.4,1.9c0,3.7,3.1,6.7,6.7,6.7s6.7-3.1,6.7-6.7S46.9,11.5,43.3,11.5z M21.2,44.2
	c-9.4,0-16-1.5-17.3-1.9c0.2-1.3,0.8-4.6,1-5.6c0,0,0.2-0.4,0.4-0.4c0.4,0,1.2,0.2,1.9,0.4c2.7,0.8,6.9,1.7,14,1.7
	c7.3,0,11.7-1,14.2-1.5c0.6-0.2,1.3-0.4,1.7-0.4c0.2,0,0.2,0,0.2,0s0,0.2,0.2,0.4c0.2,0.4,0.4,1.5,0.4,2.5c0.2,1.2,0.4,2.3,0.6,2.9
	C36.5,42.9,30,44.2,21.2,44.2z M43.3,21.2c-1.5,0-2.9-1.3-2.9-2.9s1.3-2.9,2.9-2.9s2.9,1.3,2.9,2.9S44.8,21.2,43.3,21.2z"/>
</svg>
