<?xml version="1.0" encoding="utf-8"?>
<!-- Generator: Adobe Illustrator 17.1.0, SVG Export Plug-In . SVG Version: 6.00 Build 0)  -->
<!DOCTYPE svg PUBLIC "-//W3C//DTD SVG 1.1//EN" "http://www.w3.org/Graphics/SVG/1.1/DTD/svg11.dtd">
<svg version="1.1" id="Layer_1" xmlns="http://www.w3.org/2000/svg" xmlns:xlink="http://www.w3.org/1999/xlink" x="0px" y="0px"
	 viewBox="0 0 50 50" enable-background="new 0 0 50 50" xml:space="preserve">
<path fill="#333333" d="M3.8,17.3h17.3v13.5H0v-9.6C0,19,1.7,17.3,3.8,17.3z M0,46.2C0,48.3,1.7,50,3.8,50h17.3V36.5H0V46.2z
	 M46.2,17.3H28.8v13.5H50v-9.6C50,19,48.3,17.3,46.2,17.3z M28.8,50h17.3c2.1,0,3.8-1.7,3.8-3.8v-9.6H28.8V50z M28.8,11.5v-0.2
	C34.4,10.2,37.5,4,40,7.1c3.1,3.8-10.6,8.3-10.6,8.3h4.8c3.7,0,18.1-4.6,9-13.7c-2.5-2.5-6.2-1.9-7.5,0.8c-1.7,3.3-3.5,6-6.9,8.3
	c-0.6-0.8-1.2-1.2-1.9-1.2h-3.8c-0.8,0-1.3,0.4-1.7,1c-3.3-2.1-5.2-5-6.9-8.1c-1.3-2.7-5-3.3-7.5-0.8c-9,9,5.6,13.7,9,13.7h4.8
	c0,0-13.8-4.4-10.6-8.3c2.5-3.1,5.4,3.1,11,4.2v0.2v1.9c0,1.2,0.8,1.9,1.9,1.9h3.8c1.2,0,1.9-0.8,1.9-1.9V11.5z"/>
</svg>
