<?xml version="1.0" encoding="utf-8"?>
<!-- Generator: Adobe Illustrator 17.1.0, SVG Export Plug-In . SVG Version: 6.00 Build 0)  -->
<!DOCTYPE svg PUBLIC "-//W3C//DTD SVG 1.1//EN" "http://www.w3.org/Graphics/SVG/1.1/DTD/svg11.dtd">
<svg version="1.1" id="Layer_1" xmlns="http://www.w3.org/2000/svg" xmlns:xlink="http://www.w3.org/1999/xlink" x="0px" y="0px"
	 viewBox="0 0 50 50" enable-background="new 0 0 50 50" xml:space="preserve">
<path fill="#333333" d="M26.9,50h-5.8V28.7c-7.7-1-13.5-5.8-13.5-12.5c0-9,8.1-12.3,8.1-12.3c-0.4,3.3,0.8,7.7,1.5,9.6
	c0-8.7,5-11.5,6.7-13.5l0,0l0,0c1.7,1.9,6.7,4.8,6.7,13.5c0.8-1.9,1.9-6.3,1.5-9.6c0,0,8.1,3.5,8.1,12.3c0,6.7-5.8,11.5-13.5,12.5
	v11.7c2.3-6.2,13.5-15.8,22.7-17.1C51.7,45.2,35.4,49.8,26.9,50z M0.2,23.3c0,0-0.4,7.9,1.5,14.4C4,45.2,10.8,50,19.2,50V39.6
	C13.1,28.8,0.2,23.3,0.2,23.3z"/>
</svg>
