<?xml version="1.0" encoding="utf-8"?>
<!-- Generator: Adobe Illustrator 17.1.0, SVG Export Plug-In . SVG Version: 6.00 Build 0)  -->
<!DOCTYPE svg PUBLIC "-//W3C//DTD SVG 1.1//EN" "http://www.w3.org/Graphics/SVG/1.1/DTD/svg11.dtd">
<svg version="1.1" id="Layer_1" xmlns="http://www.w3.org/2000/svg" xmlns:xlink="http://www.w3.org/1999/xlink" x="0px" y="0px"
	 viewBox="0 0 50 50" enable-background="new 0 0 50 50" xml:space="preserve">
<path fill="#333333" d="M45,11.5c-1.3-5-6.5-7.7-6.5-7.7l-5.8-1.3L30.8,0L25,9.8L19.2,0l-1.9,2.5l-5.8,1.3c0,0-5.2,2.7-6.5,7.7
	c-0.4,2.1-5,12.1-5,14c0,2.1,0,16.7,0,16.7h7.7c0,0,0-14.6,0-15.8s3.8-6.9,3.8-6.9V50h26.9V25.2v-5.8c0,0,3.8,5.8,3.8,6.9
	s0,15.8,0,15.8H50c0,0,0-14.6,0-16.7C50,23.7,45.4,13.7,45,11.5z M19.2,40.6c-1.2,0-2.1-1-2.1-2.1s1-2.1,2.1-2.1s2.1,1,2.1,2.1
	S20.4,40.6,19.2,40.6z M19.2,31c-1.2,0-2.1-1-2.1-2.1s1-2.1,2.1-2.1s2.1,1,2.1,2.1S20.4,31,19.2,31z M19.2,21.3
	c-1.2,0-2.1-1-2.1-2.1s1-2.1,2.1-2.1s2.1,1,2.1,2.1S20.4,21.3,19.2,21.3z M30.8,40.6c-1.2,0-2.1-1-2.1-2.1s1-2.1,2.1-2.1
	s2.1,1,2.1,2.1S31.9,40.6,30.8,40.6z M30.8,31c-1.2,0-2.1-1-2.1-2.1s1-2.1,2.1-2.1s2.1,1,2.1,2.1S31.9,31,30.8,31z M30.8,21.3
	c-1.2,0-2.1-1-2.1-2.1s1-2.1,2.1-2.1s2.1,1,2.1,2.1S31.9,21.3,30.8,21.3z"/>
</svg>
