<?xml version="1.0" encoding="utf-8"?>
<!-- Generator: Adobe Illustrator 17.1.0, SVG Export Plug-In . SVG Version: 6.00 Build 0)  -->
<!DOCTYPE svg PUBLIC "-//W3C//DTD SVG 1.1//EN" "http://www.w3.org/Graphics/SVG/1.1/DTD/svg11.dtd">
<svg version="1.1" id="Layer_1" xmlns="http://www.w3.org/2000/svg" xmlns:xlink="http://www.w3.org/1999/xlink" x="0px" y="0px"
	 viewBox="0 0 50 50" enable-background="new 0 0 50 50" xml:space="preserve">
<path fill="#333333" d="M47.7,12.7c0.4-0.6,0.6-1.3,0.2-2.1c-0.4-0.6-1-1-1.7-1H24.6C23.3,4,18.5,0,12.5,0C5.6,0,0,5.6,0,12.5
	S5.6,25,12.5,25c2.3,0,4.2-0.6,6.2-1.7l8.3,10v11.3c-3.7,0.8-11.3,2.9-11.3,5.4h26.5c0-2.5-7.7-4.4-11.3-5.4V33.3L47.7,12.7z
	 M39,17.3h-16l7.9,9.6l-2.1,2.7L15.6,13.5h26.5L39,17.3z M16.2,9.6c1.2-1.2,2.1-2.3,2.3-3.5c1,1,1.7,2.1,2.3,3.5H16.2z M16.5,4.8
	c-1.3,0.8-2.5,3.1-3.3,4.8h-1.3C11.2,7.9,10,5.4,8.7,4.8c1.2-0.6,2.5-1,3.8-1C14,3.8,15.2,4.2,16.5,4.8z M6.7,6
	c0,1.3,1.7,3.3,3.1,4.4l-0.2,0.2c0,0.6,0,1,0,1.5c-2.1,0.2-5.2,0.8-5.8,2.1c0-0.6,0-1.2,0-1.7C3.8,10,5,7.7,6.7,6z M4.4,15.6
	C5.8,16.7,9,15,11,13.8l0.8,1c-0.6,2.1-1.2,5.8,0.4,6.3C8.5,21,5.6,18.7,4.4,15.6z M13.3,21.2c0.8-0.4,1-1.7,1-3.3l2.1,2.5
	C15.4,20.8,14.2,21,13.3,21.2z"/>
</svg>
