<?xml version="1.0" encoding="utf-8"?>
<!-- Generator: Adobe Illustrator 17.1.0, SVG Export Plug-In . SVG Version: 6.00 Build 0)  -->
<!DOCTYPE svg PUBLIC "-//W3C//DTD SVG 1.1//EN" "http://www.w3.org/Graphics/SVG/1.1/DTD/svg11.dtd">
<svg version="1.1" id="Layer_1" xmlns="http://www.w3.org/2000/svg" xmlns:xlink="http://www.w3.org/1999/xlink" x="0px" y="0px"
	 viewBox="0 0 50 50" enable-background="new 0 0 50 50" xml:space="preserve">
<path fill="#333333" d="M48.7,30.6l-2.5,1.2c0,3.7,0,6.9,0,6.9c0,4.6-4.8,11.3-11.5,11.3H15.4C8.7,50,3.8,43.3,3.8,38.7
	c0,0,0-3.3,0-6.9l-2.5-1.2c-1-0.4-1.5-1.5-1-2.5c0.4-1,1.5-1.5,2.5-1l1,0.4c0-0.4,0-1,0-1.3c0-5.4-3.7-4.6-3.7-5.2
	c0-1.3,0.4-3.7,3.7-3.7h42.3c3.3,0,3.7,2.3,3.7,3.7c0,0.8-3.7,0-3.7,5.2c0,0.4,0,1,0,1.3l1.2-0.4c1-0.4,2.1,0,2.5,1
	C50.2,29,49.6,30.2,48.7,30.6z M3.8,15.4c0,0,4-3.5,11.7-5.4c0.8-4.6,4.6-8.1,9.4-8.1s8.7,3.5,9.4,8.1c7.7,1.7,11.7,5.4,11.7,5.4
	H3.8z M19.8,9.2C21.3,9,23.1,8.8,25,8.8s3.7,0.2,5.2,0.4c-0.8-2.1-2.9-3.5-5.2-3.5S20.6,7.1,19.8,9.2z"/>
</svg>
