<?xml version="1.0" encoding="utf-8"?>
<!-- Generator: Adobe Illustrator 17.1.0, SVG Export Plug-In . SVG Version: 6.00 Build 0)  -->
<!DOCTYPE svg PUBLIC "-//W3C//DTD SVG 1.1//EN" "http://www.w3.org/Graphics/SVG/1.1/DTD/svg11.dtd">
<svg version="1.1" id="Layer_1" xmlns="http://www.w3.org/2000/svg" xmlns:xlink="http://www.w3.org/1999/xlink" x="0px" y="0px"
	 viewBox="0 0 50 50" enable-background="new 0 0 50 50" xml:space="preserve">
<path fill="#333333" d="M36.5,26.9c0,4.8,1.9,10.2,1.9,19.8c0,2.1-1.7,3.3-3.8,3.3c-2.1,0-3.8-1.2-3.8-3.3V2.9
	c0-1.5,0.4-2.9,1.9-2.9c2.1,0,7.7,5.2,7.7,11.5C40.4,21.9,36.5,24.6,36.5,26.9z M21.2,0c0,0,0,12.3,0,12.5c0,0.6-0.4,1-1,1
	s-1-0.4-1-1c0-0.2-0.6-12.5-0.6-12.5H16c0,0-0.6,12.3-0.6,12.5c0,0.6-0.4,1-1,1s-1-0.4-1-1c0-0.2,0-12.5,0-12.5h-1.9
	c0,0-1.9,13.5-1.9,15.4s4.2,5.8,4.2,5.8l-0.4,25.6c0,2.1,1.7,3.3,3.8,3.3s3.8-1.2,3.8-3.3l-0.4-25.6c0,0,4.2-3.8,4.2-5.8
	S23.1,0,23.1,0H21.2z"/>
</svg>
