<?xml version="1.0" encoding="utf-8"?>
<!-- Generator: Adobe Illustrator 17.1.0, SVG Export Plug-In . SVG Version: 6.00 Build 0)  -->
<!DOCTYPE svg PUBLIC "-//W3C//DTD SVG 1.1//EN" "http://www.w3.org/Graphics/SVG/1.1/DTD/svg11.dtd">
<svg version="1.1" id="Layer_1" xmlns="http://www.w3.org/2000/svg" xmlns:xlink="http://www.w3.org/1999/xlink" x="0px" y="0px"
	 viewBox="0 0 50 50" enable-background="new 0 0 50 50" xml:space="preserve">
<path fill="#333333" d="M46.9,13.7c1.3,4,3.7,9.6,2.9,13.3c-0.8,4-2.9,4.6-4.2,5.2c-1.3,0.6-3.1,0.6-4,0c-1.3-0.8-3.1,0.6-3.7-0.6
	c-0.8-1.2,0.2-1.3,0.4-1.9c0,0-1.5-0.2-2.3-1c-0.6-0.6-1-1.5-0.6-2.7c0.8-2.1,3.1-1.9,3.7-1.2c0.6,0.6,1.2,1.3,1.2,1.3l0.8,0.4
	c0,0,3.8-5,5.2-12.9c-2.9,1-6.3,1.7-6.3,1.7s-1,0.2-1.9,0c-1.9-0.6-2.3,3.5-3.8,6.2c-1.5,2.5-4,4.2-9.8,5c-2.5,0.4-4.6,2.1-6.7,3.3
	c-2.3,4.6-8.3,10.4-15.6,11.3H1.7c-0.6,0-1.2-0.6-1.3-1.2c-0.2-0.8,0.4-1.3,1.2-1.5c4.8-0.6,8.8-3.7,11.3-6.7
	c-2.5,0.4-5.6,0-8.8-3.7c0.6-0.2,6.9-1.2,8.5-3.3C6.9,23.3,2.3,17.3,2.1,14c0.8,0,2.3-0.8,2.9-1.3c-1.7-2.3-1.7-5.6-0.6-7.9
	c0.4,0.8,3.1,2.7,4.2,2.7c-0.4-3.3,2.7-5.2,3.8-5.4c-0.4,9.6,5.4,10,6.2,13.5c1.3,0,2.9-5.2,1-7.9c1.2-0.4,1.7-0.4,2.1-0.4
	C21.3,5.6,19.4,4,19.4,4s7.1-0.4,7.1,6.2c0,5-1.9,4.6-1.5,7.3c0.4,1.9,1.5,3.7,3.7,3.7c3.7,0,5-3.3,3.8-5.4
	c-0.6-1.2-1.3-2.1-1.2-3.7c0-1.7,1.3-2.7,2.9-2.7c2.7,0,3.1,2.1,3.1,2.1s8.8-0.6,12.9,0.8C49.6,12.9,48.5,13.3,46.9,13.7z"/>
</svg>
