<?xml version="1.0" encoding="utf-8"?>
<!-- Generator: Adobe Illustrator 17.1.0, SVG Export Plug-In . SVG Version: 6.00 Build 0)  -->
<!DOCTYPE svg PUBLIC "-//W3C//DTD SVG 1.1//EN" "http://www.w3.org/Graphics/SVG/1.1/DTD/svg11.dtd">
<svg version="1.1" id="Layer_1" xmlns="http://www.w3.org/2000/svg" xmlns:xlink="http://www.w3.org/1999/xlink" x="0px" y="0px"
	 viewBox="0 0 50 50" enable-background="new 0 0 50 50" xml:space="preserve">
<path fill="#333333" d="M25,0.4C11.3,0.4,0.4,11.3,0.4,25s11,24.6,24.6,24.6s24.6-11,24.6-24.6S38.7,0.4,25,0.4z M41.7,37.3
	l-0.2-2.1l-7.9,1.7l-4,6.9l1.9,1C29.4,45.6,27.3,46,25,46s-4.4-0.4-6.5-1.2l1.9-1l-4-6.9l-7.9-1.7l-0.2,2.1c-2.5-3.5-4-7.7-4-12.3
	c0,0,0,0,0-0.2l1.5,1.7l5.2-6l-0.8-8.1l-2.1,0.4c2.5-3.7,6.2-6.3,10.6-7.7l-1.2,1.9l7.5,3.1l7.3-3.1l-1.2-1.9
	c4.2,1.3,7.9,4,10.6,7.7l-2.1-0.4l-0.8,8.1l5.2,6l1.5-1.5c0,0,0,0,0,0.2C45.8,29.6,44.2,33.8,41.7,37.3z M25,16.7l8.7,6.3l-3.3,10.2
	H19.6l-3.3-10.2L25,16.7z"/>
</svg>
