<?xml version="1.0" encoding="utf-8"?>
<!-- Generator: Adobe Illustrator 17.1.0, SVG Export Plug-In . SVG Version: 6.00 Build 0)  -->
<!DOCTYPE svg PUBLIC "-//W3C//DTD SVG 1.1//EN" "http://www.w3.org/Graphics/SVG/1.1/DTD/svg11.dtd">
<svg version="1.1" id="Layer_1" xmlns="http://www.w3.org/2000/svg" xmlns:xlink="http://www.w3.org/1999/xlink" x="0px" y="0px"
	 viewBox="0 0 50 50" enable-background="new 0 0 50 50" xml:space="preserve">
<path fill="#333333" d="M50,25.6c0,2.1,0,16.7,0,16.7h-7.7c0,0,0-14.6,0-15.8s-3.8-6.9-3.8-6.9v5.8v20.8H11.5V19.4
	c0,0-3.8,5.8-3.8,6.9s0,16,0,16H0c0,0,0-14.6,0-16.7c0-1.9,4.6-11.9,5-14c1.3-5,6.5-7.7,6.5-7.7l7.7-1.9c0,0,1.9,4.4,5.8,4.4
	s5.8-4.4,5.8-4.4l7.7,1.9c0,0,5.2,2.7,6.5,7.7C45.4,13.7,50,23.7,50,25.6z"/>
</svg>
