<?xml version="1.0" encoding="utf-8"?>
<!-- Generator: Adobe Illustrator 17.1.0, SVG Export Plug-In . SVG Version: 6.00 Build 0)  -->
<!DOCTYPE svg PUBLIC "-//W3C//DTD SVG 1.1//EN" "http://www.w3.org/Graphics/SVG/1.1/DTD/svg11.dtd">
<svg version="1.1" id="Layer_1" xmlns="http://www.w3.org/2000/svg" xmlns:xlink="http://www.w3.org/1999/xlink" x="0px" y="0px"
	 viewBox="0 0 50 50" enable-background="new 0 0 50 50" xml:space="preserve">
<path fill="#333333" d="M50,29.4c-0.4,1.5-2.1,4.2-5.8,5v11.7c0,2.1-1.7,3.8-3.8,3.8H9.6c-2.1,0-3.8-1.7-3.8-3.8V34.4
	c-3.5-0.8-5.2-3.5-5.8-5c-0.4-1,0.2-2.1,1.3-2.3c1-0.4,2.1,0.2,2.3,1.3c0,0.2,0.6,1.5,1.9,2.1V25c-1.2,0-1.9-0.8-1.9-1.9
	c0-1.2,0.8-1.9,1.9-1.9H44c1.2,0,1.9,0.8,1.9,1.9c0,1.2-0.8,1.9-1.9,1.9v5.4c1.5-0.6,1.9-1.9,1.9-2.1c0.4-1,1.3-1.5,2.3-1.3
	C49.6,27.3,50.2,28.5,50,29.4z M2.5,17.7c0-1.2,0.6-2.1,1.7-2.1l0,0l0,0c1.9-0.2,2.7-1.2,3.5-2.5c1-1.2,1.7-2.1,3.5-2.5l5.8-0.8V8.7
	c-0.2-2.1,1.2-4,3.3-4.2L24,3.8c1-0.2,1.9,0,2.7,0.8c0.8,0.6,1.3,1.5,1.5,2.5l0.2,1.3l5.8-0.8c1.9-0.2,2.9,0.4,4,1.3s2.1,1.7,4,1.3
	l0,0l0,0c1.2-0.2,2.1,0.6,2.1,1.7c0.2,1-0.6,2.1-1.7,2.1L4.8,19.4H4.6C3.5,19.4,2.7,18.7,2.5,17.7z M20.8,9.4l3.8-0.6l-0.2-1.3
	l-3.8,0.6L20.8,9.4z"/>
</svg>
