<?xml version="1.0" encoding="utf-8"?>
<!-- Generator: Adobe Illustrator 17.1.0, SVG Export Plug-In . SVG Version: 6.00 Build 0)  -->
<!DOCTYPE svg PUBLIC "-//W3C//DTD SVG 1.1//EN" "http://www.w3.org/Graphics/SVG/1.1/DTD/svg11.dtd">
<svg version="1.1" id="Layer_1" xmlns="http://www.w3.org/2000/svg" xmlns:xlink="http://www.w3.org/1999/xlink" x="0px" y="0px"
	 viewBox="0 0 50 50" enable-background="new 0 0 50 50" xml:space="preserve">
<path fill="#333333" d="M0,0v50h50V0H0z M46.2,23.1H26.9V3.8h19.2V23.1z M23.1,3.8v15l-4.4-4.2l-4.2,2.1l-5.2-6.2l-5.4,4.6V3.8H23.1
	z M3.8,26.9h19.2v19.2H3.8V26.9z M26.9,46.2V26.9h19.2v19.2H26.9z M17.3,9.6c0-1.2,0.8-1.9,1.9-1.9s1.9,0.8,1.9,1.9
	s-0.8,1.9-1.9,1.9S17.3,10.8,17.3,9.6z M30.8,30.8c0-1.2,0.8-1.9,1.9-1.9s1.9,0.8,1.9,1.9s-0.8,1.9-1.9,1.9S30.8,31.9,30.8,30.8z
	 M18.5,34C18.3,33.8,18.3,33.8,18.5,34c-0.2,0,0.6-3.5-1.2-4.6c-1.9-1.2-4.4,1.3-4.4,1.3s-0.2-0.2-0.4-0.2c-0.8-0.6-2.9-1.3-4.2-0.2
	C6.5,32.1,8.1,35,8.1,35s-2.5,2.1-1.7,4.2c0.2,0.6,0.6,1,1,1.2c1.3,0.8,3.5,0.4,3.5,0.4s1,1.9,2.3,2.7c0.4,0.2,0.8,0.4,1.3,0.4
	c2.1-0.2,2.9-3.7,2.9-3.7s3.5-0.4,4-2.5C21.3,35.8,18.8,34.2,18.5,34z M13.7,36.2c0,0,1.3,3.1,0.2,3.3c-1.2,0.2-0.6-3.1-0.6-3.1
	s-2.7,2.1-3.1,1.2c-0.4-1.2,2.9-1.5,2.9-1.5s-2.9-1.7-1.9-2.5s2.3,2.3,2.3,2.3s0.8-3.3,1.7-2.7c1.2,0.6-1.3,2.9-1.3,2.9
	s3.3-0.4,3.1,0.8C16.5,37.9,13.7,36.2,13.7,36.2z M28.3,13.5L28.3,13.5L28.3,13.5c0,0,3.1,1.2,3.3,1.9c0.4,1.2-1,3.8-1,3.8
	s2.7-1.5,3.7-1c1,0.4,2.1,3.5,2.1,3.5s1-3.1,1.9-3.5c1-0.4,3.8,1,3.8,1s-1.3-2.9-1-3.8c0.2-0.8,3.5-1.9,3.5-1.9l0,0l0,0
	c0,0-3.1-1.2-3.3-1.9c-0.2-1.2,1-3.8,1-3.8s-2.7,1.5-3.7,1c-1-0.6-2.1-3.5-2.1-3.5s-1,3.1-1.9,3.5c-1,0.4-3.8-1-3.8-1s1.3,2.9,1,3.8
	C31.5,12.3,28.3,13.5,28.3,13.5z M36.5,9.6c2.1,0,3.8,1.7,3.8,3.8s-1.7,3.8-3.8,3.8c-2.1,0-3.8-1.7-3.8-3.8S34.4,9.6,36.5,9.6z
	 M44.2,39c0,1.7-1.5,3.3-3.3,3.3h-9.4c-1.5,0-2.7-1.2-2.7-2.7c0-1.3,1.2-2.5,2.5-2.7c0.4-1.5,1.7-2.5,3.5-2.3
	c0.8-1.2,1.9-1.7,3.3-1.7c1.7,0,3.5,1.3,3.7,3.1C43.1,36.3,44.2,37.5,44.2,39z"/>
</svg>
