<?xml version="1.0" encoding="utf-8"?>
<!-- Generator: Adobe Illustrator 17.1.0, SVG Export Plug-In . SVG Version: 6.00 Build 0)  -->
<!DOCTYPE svg PUBLIC "-//W3C//DTD SVG 1.1//EN" "http://www.w3.org/Graphics/SVG/1.1/DTD/svg11.dtd">
<svg version="1.1" id="Layer_1" xmlns="http://www.w3.org/2000/svg" xmlns:xlink="http://www.w3.org/1999/xlink" x="0px" y="0px"
	 viewBox="0 0 50 50" enable-background="new 0 0 50 50" xml:space="preserve">
<path fill="#333333" d="M14,11.3c-1.3-1.2-2.1-2.7-2.1-4.6c0-3.5,2.9-6.3,6.3-6.3s6.3,2.9,6.3,6.3c0,1.2-0.4,2.3-1,3.3
	c-0.2,0-0.4,0-0.6,0C19.8,10,16.7,10.4,14,11.3z M50,26.9v5.8c0,1.2-0.8,1.9-1.9,1.9h-1.9c-1.2,0-1.7,0.8-1.9,1.3
	c-1.3,2.7-3.3,4.8-6,6.3c-1.3,0.8-0.8,1.7-0.8,1.7l0.6,1.5c0.4,1-0.2,2.3-1.2,2.7l-3.8,1.3c-1,0.4-2.3-0.2-2.7-1.2
	c0,0-0.4-1.2-0.8-2.1c-0.6-1.7-1.2-0.6-6.7-0.6c-5.4,0-5.8-1.7-6.5,0.4c-0.4,1.2-1,2.5-1,2.5c-0.4,1-1.5,1.5-2.7,1.2l-3.8-1.3
	c-1-0.4-1.5-1.5-1.2-2.7c0,0,0.8-1.7,1.2-2.9S8.5,41.2,8.1,41c-2.5-2.1-6-5.6-6-10.4c0-2.1,0.2-4,0.8-5.8C3.7,22.5,0,22.3,0,18.1
	c0-4.4,5-6,6.5-1.9c-3.8-2.7-6,2.3-2.3,3.7c1.2,0.6,2.9-2.1,3.5-2.5c3.7-3.5,8.8-5.4,15.4-5.4c2.5,0,4.8,0.4,7.1,0.8
	c1.9-4.4,5.4-6,8.3-6.7c-1.5,4-2.1,6.3-1.9,10c0.4,3.8,2.7,6,3.1,6.2c-1.3-2.5-1.3-6.2-1-5.8c2.7,1.5,4.6,4.4,5.8,7.7
	c0.2,0.4,0.6,1,1.5,1h1.9C49.2,25,50,25.8,50,26.9z M42.3,27.9c0-1.5-1.3-2.9-2.9-2.9s-2.9,1.3-2.9,2.9s1.3,2.9,2.9,2.9
	S42.3,29.4,42.3,27.9z"/>
</svg>
