<?xml version="1.0" encoding="utf-8"?>
<!-- Generator: Adobe Illustrator 17.1.0, SVG Export Plug-In . SVG Version: 6.00 Build 0)  -->
<!DOCTYPE svg PUBLIC "-//W3C//DTD SVG 1.1//EN" "http://www.w3.org/Graphics/SVG/1.1/DTD/svg11.dtd">
<svg version="1.1" id="Layer_1" xmlns="http://www.w3.org/2000/svg" xmlns:xlink="http://www.w3.org/1999/xlink" x="0px" y="0px"
	 viewBox="0 0 50 50" enable-background="new 0 0 50 50" xml:space="preserve">
<path fill="#333333" d="M1784.6,2821.2v3.8v3.8v15.4v3.8v15.4v3.8v3.8h-50v-3.8v-3.8v-15.4v-3.8v-15.4v-3.8v-3.8H1784.6z M48.1,42.3
	H1.9c-1.2,0-1.9,0.8-1.9,1.9v3.8C0,49.2,0.8,50,1.9,50h46.2c1.2,0,1.9-0.8,1.9-1.9v-3.8C50,43.1,49.2,42.3,48.1,42.3z M48.1,11.5
	L25,0L1.9,11.5C0.8,12.1,0,12.3,0,13.5v1.9c0,1.2,0.8,1.9,1.9,1.9h46.2c1.2,0,1.9-0.8,1.9-1.9v-1.9C50,12.3,49.2,12.1,48.1,11.5z
	 M28.8,40.4V23.1c1.2,0,1.9-0.8,1.9-1.9v-1.9h-3.8h-3.8h-3.8v1.9c0,1.2,0.8,1.9,1.9,1.9v17.3H28.8z M44.2,40.4V23.1
	c1.2,0,1.9-0.8,1.9-1.9v-1.9h-3.8h-3.8h-3.8v1.9c0,1.2,0.8,1.9,1.9,1.9v17.3H44.2z M13.5,40.4V23.1c1.2,0,1.9-0.8,1.9-1.9v-1.9h-3.8
	H7.7H3.8v1.9c0,1.2,0.8,1.9,1.9,1.9v17.3H13.5z"/>
</svg>
