<?xml version="1.0" encoding="utf-8"?>
<!-- Generator: Adobe Illustrator 17.1.0, SVG Export Plug-In . SVG Version: 6.00 Build 0)  -->
<!DOCTYPE svg PUBLIC "-//W3C//DTD SVG 1.1//EN" "http://www.w3.org/Graphics/SVG/1.1/DTD/svg11.dtd">
<svg version="1.1" id="Layer_1" xmlns="http://www.w3.org/2000/svg" xmlns:xlink="http://www.w3.org/1999/xlink" x="0px" y="0px"
	 viewBox="0 0 50 50" enable-background="new 0 0 50 50" xml:space="preserve">
<path fill="#333333" d="M50,25.4V10.2c0-2.5-1.5-6.7-11.2-8.8l0,0l0,0l0,0l0,0C35.8,0.6,30.4,0,25,0c-5.8,0-9.4,0.4-13.8,1.2l0,0
	l0,0C1.2,3.5,0,8.3,0,10.2v15.2c0,0.2,0,0.4,0,0.4V26c0,0.2,0.2,0.4,0.4,0.6l0,0c0,0,6.9,7.7,10.2,13.8c3.1,5.6,3.7,6.2,5.4,7.1
	c2.9,1.9,6.2,2.3,9,2.3s6-0.4,8.5-2.1l0.4-0.2c1.9-1.2,2.1-1.5,5.4-7.3c3.5-6,10.2-13.7,10.2-13.8l0,0c0.2-0.2,0.2-0.4,0.4-0.6v-0.2
	C50,25.8,50,25.6,50,25.4z M39.8,23.8c3.1,0.6,4.8,1.2,5.6,1.7c-1.3,1.7-3.8,4.6-6.2,7.9C39.6,30.4,39.8,27.1,39.8,23.8z M46.2,10.2
	v11.3c-1.5-0.8-3.7-1.2-6.2-1.5c0.2-5.8,0.2-11.2,0.4-14.2C44,6.7,46.2,8.5,46.2,10.2z M10.6,33.1c-2.3-3.1-4.6-6-6-7.7
	c0.8-0.6,2.5-1.2,5.6-1.7C10.2,27.1,10.2,30.2,10.6,33.1z M3.8,10.2c0-1.3,1.5-3.3,5.8-4.6c0,3.1,0,8.5,0.2,14.2
	c-2.5,0.4-4.4,0.8-6,1.5V10.2z M18.7,44.8L18.7,44.8l-0.4-0.4c-1.3-0.8-2.3-2.1-2.9-4.2c-1.5-4.6-1.9-25.8-1.9-35.6
	C16.9,4,20.2,3.8,25,3.8s9,0.4,11.5,0.8c-0.2,9.6-0.6,31-2.1,35.6c-1.5,5-4.8,6-9.4,6C22.5,46.2,20.4,45.8,18.7,44.8z"/>
</svg>
