<?xml version="1.0" encoding="utf-8"?>
<!-- Generator: Adobe Illustrator 17.1.0, SVG Export Plug-In . SVG Version: 6.00 Build 0)  -->
<!DOCTYPE svg PUBLIC "-//W3C//DTD SVG 1.1//EN" "http://www.w3.org/Graphics/SVG/1.1/DTD/svg11.dtd">
<svg version="1.1" id="Layer_1" xmlns="http://www.w3.org/2000/svg" xmlns:xlink="http://www.w3.org/1999/xlink" x="0px" y="0px"
	 viewBox="0 0 50 50" enable-background="new 0 0 50 50" xml:space="preserve">
<path fill="#333333" d="M42.3,0H7.7C3.5,0,0,3.5,0,7.7v34.6C0,46.5,3.5,50,7.7,50h25c2.1,0,4.8-2.9,8.3-6.3c0.4-0.4,1-1,1.3-1.3
	s1-1,1.3-1.3c3.3-3.3,6.3-6.2,6.3-8.3v-25C50,3.5,46.5,0,42.3,0z M46.2,32.7c0,1.9-1.9,1.9-3.8,1.9h-5.8c-1.2,0-1.9,0.8-1.9,1.9v5.8
	c0,1.7,0,3.5-1.3,3.8H7.7c-2.1,0-3.8-1.7-3.8-3.8V7.7c0-2.1,1.7-3.8,3.8-3.8h34.6c2.1,0,3.8,1.7,3.8,3.8V32.7z M38.5,17.3
	c0,1.2-0.8,1.9-1.9,1.9H13.5c-1.2,0-1.9-0.8-1.9-1.9s0.8-1.9,1.9-1.9h23.1C37.7,15.4,38.5,16.2,38.5,17.3z M34.6,26.9
	c0,1.2-0.8,1.9-1.9,1.9H13.5c-1.2,0-1.9-0.8-1.9-1.9s0.8-1.9,1.9-1.9h19.2C33.8,25,34.6,25.8,34.6,26.9z"/>
</svg>
