<?xml version="1.0" encoding="utf-8"?>
<!-- Generator: Adobe Illustrator 17.1.0, SVG Export Plug-In . SVG Version: 6.00 Build 0)  -->
<!DOCTYPE svg PUBLIC "-//W3C//DTD SVG 1.1//EN" "http://www.w3.org/Graphics/SVG/1.1/DTD/svg11.dtd">
<svg version="1.1" id="Layer_1" xmlns="http://www.w3.org/2000/svg" xmlns:xlink="http://www.w3.org/1999/xlink" x="0px" y="0px"
	 viewBox="0 0 50 50" enable-background="new 0 0 50 50" xml:space="preserve">
<path fill="#333333" d="M43.8,32.1l-1,1c-2.7,2.7-8.1-2.3-11.2-4c-0.6-0.4-2.1-0.6-2.9,0.2c-0.8,0.8-2.7,2.7-2.7,2.7
	c-1.2,1.2-2.7,0.8-3.8-0.4l-3.8-3.8c-1.2-1.2-1.5-2.7-0.4-3.8c0,0,1.9-1.9,2.7-2.7s0.6-2.3,0.4-2.9C19.2,15.4,14,10,16.9,7.1l1-1
	C18.5,5.6,23.5,13.5,30,20C36.3,26.5,44.4,31.5,43.8,32.1z M42.3,0c-4.2,0-7.7,3.5-7.7,7.7l0,0l0,0v0.2c0,0,0,0,0,0.2
	c0,0.8-0.4,2.3-1,2.9c-0.8,0.8-2.3,2.3-2.3,2.3c-1,1-0.6,2.1,0.4,3.3l1.7,1.7c1,1,2.3,1.3,3.3,0.4c0,0,1.5-1.5,2.3-2.3
	c0.6-0.6,2.1-1,2.9-1h0.2h0.2l0,0l0,0c4.2,0,7.7-3.5,7.7-7.7S46.5,0,42.3,0z M28.8,32.5c-1.2,0-2.1,1-2.1,2.1c0,6.2-3.5,9.6-9.8,9.6
	c-6.2,0-11.2-5.2-11.2-11.3s3.5-9.6,9.8-9.6c1.2,0,2.1-1,2.1-2.1s-1-2.1-2.1-2.1C7.1,19,0.2,26,0.2,34.4s6.9,15.4,15.4,15.4
	S31,42.9,31,34.4C31,33.3,30,32.5,28.8,32.5z"/>
</svg>
