<?xml version="1.0" encoding="utf-8"?>
<!-- Generator: Adobe Illustrator 17.1.0, SVG Export Plug-In . SVG Version: 6.00 Build 0)  -->
<!DOCTYPE svg PUBLIC "-//W3C//DTD SVG 1.1//EN" "http://www.w3.org/Graphics/SVG/1.1/DTD/svg11.dtd">
<svg version="1.1" id="Layer_1" xmlns="http://www.w3.org/2000/svg" xmlns:xlink="http://www.w3.org/1999/xlink" x="0px" y="0px"
	 viewBox="0 0 50 50" enable-background="new 0 0 50 50" xml:space="preserve">
<path fill="#333333" d="M40.4,50H9.6c-3.5,0-1.7-4,1.7-7.1l0.6-0.6h-0.4c-2.1,0-3.8-1.3-3.8-2.9s1.7-2.9,3.8-2.9h1.9
	c0-2.9,4.4-3.7,6.5-9.8c-1.5-0.4-2.7-1.3-2.7-2.7c0-1.5,1.7-2.9,3.8-2.9c0-0.4,0-1,0-1.5c-2.1-1.2-3.5-3.5-3.5-6.2
	c0-4,3.3-7.3,7.3-7.3s7.3,3.3,7.3,7.3c0,2.7-1.3,5-3.5,6.2c0,0.6,0,1,0,1.5c2.1,0,3.8,1.3,3.8,2.9c0,1.3-1.2,2.3-2.7,2.7
	c2.1,6.2,6.5,6.7,6.5,9.8h1.9c2.1,0,3.8,1.3,3.8,2.9s-1.7,2.9-3.8,2.9h-0.6l0.6,0.6C42.1,46,43.8,50,40.4,50z"/>
</svg>
