<?xml version="1.0" encoding="utf-8"?>
<!-- Generator: Adobe Illustrator 17.1.0, SVG Export Plug-In . SVG Version: 6.00 Build 0)  -->
<!DOCTYPE svg PUBLIC "-//W3C//DTD SVG 1.1//EN" "http://www.w3.org/Graphics/SVG/1.1/DTD/svg11.dtd">
<svg version="1.1" id="Layer_1" xmlns="http://www.w3.org/2000/svg" xmlns:xlink="http://www.w3.org/1999/xlink" x="0px" y="0px"
	 viewBox="0 0 50 50" enable-background="new 0 0 50 50" xml:space="preserve">
<path fill="#333333" d="M47.9,15.4c0-1.9,2.1-4.4,2.1-5.8c0-2.1-1.7-3.8-3.8-3.8c-1.3,0-6,2.1-8.7,2.1s-3.7-2.1-5.8-2.1
	s-4,2.1-6.7,2.1s-3.7-2.1-5.8-2.1s-5,2.1-6.7,2.1S5.2,5.8,3.8,5.8C1.7,5.8,0,7.5,0,9.6c0,1.3,2.1,4,2.1,5.8S0,21,0,25
	s2.1,7.7,2.1,9.6S0,39,0,40.4c0,2.1,1.7,3.8,3.8,3.8c1.3,0,6-2.1,8.7-2.1s3.7,2.1,5.8,2.1s4-2.1,6.7-2.1s3.7,2.1,5.8,2.1
	s5-2.1,6.7-2.1c1.7,0,7.3,2.1,8.7,2.1c2.1,0,3.8-1.7,3.8-3.8c0-1.3-2.1-4-2.1-5.8c0-1.7,2.1-5.8,2.1-9.6S47.9,17.3,47.9,15.4z
	 M44.2,36.5c0,1.2-0.8,1.9-1.9,1.9H7.7c-1.2,0-1.9-0.8-1.9-1.9V13.5c0-1.2,0.8-1.9,1.9-1.9h34.6c1.2,0,1.9,0.8,1.9,1.9V36.5z
	 M40,33.1c1,0.8-0.6,1.5-1.5,1.5H24.6h-2.5H11.3c-1,0-2.1-1-1.3-2.1c0,0,4.2-11.3,7.3-11.3s5.6,8.3,9.8,8.3c2.3,0,2.9-2.5,5.6-2.5
	S40,33.1,40,33.1z M26.9,19.2c0-2.1,1.7-3.8,3.8-3.8s3.8,1.7,3.8,3.8s-1.7,3.8-3.8,3.8S26.9,21.3,26.9,19.2z"/>
</svg>
