<?xml version="1.0" encoding="utf-8"?>
<!-- Generator: Adobe Illustrator 17.1.0, SVG Export Plug-In . SVG Version: 6.00 Build 0)  -->
<!DOCTYPE svg PUBLIC "-//W3C//DTD SVG 1.1//EN" "http://www.w3.org/Graphics/SVG/1.1/DTD/svg11.dtd">
<svg version="1.1" id="Layer_1" xmlns="http://www.w3.org/2000/svg" xmlns:xlink="http://www.w3.org/1999/xlink" x="0px" y="0px"
	 viewBox="0 0 50 50" enable-background="new 0 0 50 50" xml:space="preserve">
<path fill="#333333" d="M36.9,16.7l3.5-3.5l0,0C36.5,8.5,31,5.8,25,5.8C14.4,5.8,5.8,14.4,5.8,25S14.4,44.2,25,44.2
	c9.6,0,17.7-7.1,19-16.5c0.2-1.5,1.7-2.7,3.3-2.5c1.5,0.2,2.7,1.7,2.5,3.3C48.1,40.8,37.5,50,25,50C11.2,50,0,38.8,0,25S11.2,0,25,0
	c7.5,0,14.6,3.5,19.4,9.2l3.1-3.1c0.2-0.4,0.8-0.4,1.2-0.4C49,6,49.4,6.2,49.4,6.5c1,5.2,0.6,11.2,0.6,11.5c0,0.2-0.2,0.4-0.4,0.6
	c-0.2,0.2-0.4,0.2-0.6,0.4c-0.2,0-6.3,0.6-11.5-0.6c-0.4,0-0.8-0.4-0.8-0.8C36.5,17.5,36.5,16.9,36.9,16.7z"/>
</svg>
