<?xml version="1.0" encoding="utf-8"?>
<!-- Generator: Adobe Illustrator 17.1.0, SVG Export Plug-In . SVG Version: 6.00 Build 0)  -->
<!DOCTYPE svg PUBLIC "-//W3C//DTD SVG 1.1//EN" "http://www.w3.org/Graphics/SVG/1.1/DTD/svg11.dtd">
<svg version="1.1" id="Layer_1" xmlns="http://www.w3.org/2000/svg" xmlns:xlink="http://www.w3.org/1999/xlink" x="0px" y="0px"
	 viewBox="0 0 50 50" enable-background="new 0 0 50 50" xml:space="preserve">
<path fill="#333333" d="M50,35.4c0-0.2-0.2-0.6-0.2-0.8l-5.4-8.1l3.5-13.1c0-0.2,0-0.6,0-0.8C48.3,7.3,44.6,0.4,25,0.4
	C5.4,0.2,1.5,7.1,2.1,12.5c0,0.2,0,0.6,0,0.8l3.5,13.3l-5.2,8.1C0.2,34.8,0,35.2,0,35.4l0,0v4.8C0,45.6,4.4,50,9.8,50h30.4
	c5.4,0,9.8-4.4,9.8-9.8V35.4L50,35.4z M6.7,37.7c-1.2,0-2.5-0.2-3.5-0.6c0.2,0,0.2-0.2,0.2-0.4l5.8-8.8l0,0c0-0.2,0.2-0.2,0.2-0.4
	c0-0.2,0-0.2,0.2-0.4v-0.2c0-0.2,0-0.2,0-0.4l0,0L6.2,13.5h37.7l-3.5,12.9l0,0c0,0.2,0,0.2,0,0.4c0,0.2,0,0.2,0,0.4
	c0,0.2,0,0.2,0.2,0.4c0,0.2,0,0.2,0.2,0.4l0,0l5.8,8.8c0,0.2,0.2,0.2,0.2,0.4c-1.2,0.4-2.3,0.6-3.5,0.6C43.3,37.7,6.7,37.7,6.7,37.7
	z M34.6,30.8c0,1.2-0.8,1.9-1.9,1.9s-1.9-0.8-1.9-1.9c0-3.3-2.5-5.8-5.8-5.8s-5.8,2.5-5.8,5.8c0,1.2-0.8,1.9-1.9,1.9
	s-1.9-0.8-1.9-1.9c0-4,2.5-7.5,6.2-9l-2.1-1.5l3.7-2.9h3.8l3.7,2.9l-2.1,1.5C32.1,23.3,34.6,26.7,34.6,30.8z"/>
</svg>
