<?xml version="1.0" encoding="utf-8"?>
<!-- Generator: Adobe Illustrator 17.1.0, SVG Export Plug-In . SVG Version: 6.00 Build 0)  -->
<!DOCTYPE svg PUBLIC "-//W3C//DTD SVG 1.1//EN" "http://www.w3.org/Graphics/SVG/1.1/DTD/svg11.dtd">
<svg version="1.1" id="Layer_1" xmlns="http://www.w3.org/2000/svg" xmlns:xlink="http://www.w3.org/1999/xlink" x="0px" y="0px"
	 viewBox="0 0 50 50" enable-background="new 0 0 50 50" xml:space="preserve">
<path fill="#333333" d="M15.8,25.6c0-3.8-2.9-6.2-7.9-6.2c-4.8,0-7.9,2.3-7.9,6.2c0,5,4.2,7.1,12.5,6.2c1,0,1.7-0.2,2.9-0.4
	c0.4-1.5,0.8-3.1,1.2-4.6C15.6,26.9,15.8,26.2,15.8,25.6z M7.9,28.8c-4.6,0-4.6-2.3-4.6-3.1c0-0.8,0-3.1,4.6-3.1s4.6,2.3,4.6,3.1
	C12.7,26.3,12.7,28.8,7.9,28.8z M49.8,19.4c0,0-2.9,7.9-11,9.4c0,0-5.2,0.8-12.3,1.5c0.4-0.8,0.8-1.3,1.2-1.9c1-1.3,2.1-3.1,3.3-6.2
	C31.2,22.1,49.8,19.4,49.8,19.4z M23.5,33.8c-0.6,0-1.5-0.4-1-1.7c1.7-5,4-4.6,6.2-11.7l5-19.8c0,0-8.1,1.9-10.6,9.8
	c0,0-4.6,18.1-6.2,25.8c-1.7,8.3-0.4,12.7,4.8,13.3c3.8,0.4,6.5-2.1,7.1-7.1C29.2,37.5,27.3,34.2,23.5,33.8z M21,27.3
	c0.8,0,1.5,0.8,1.5,1.5c0,0.8-0.8,1.5-1.5,1.5c-0.8,0-1.5-0.8-1.5-1.5C19.4,27.9,20.2,27.3,21,27.3z M25.6,41.9
	c-0.6,4.6-2.9,4.4-3.7,4.2c-0.8-0.2-3.1-0.4-2.5-5s2.9-4.4,3.7-4.2C23.8,37.1,26.2,37.3,25.6,41.9z"/>
</svg>
