<?xml version="1.0" encoding="utf-8"?>
<!-- Generator: Adobe Illustrator 17.1.0, SVG Export Plug-In . SVG Version: 6.00 Build 0)  -->
<!DOCTYPE svg PUBLIC "-//W3C//DTD SVG 1.1//EN" "http://www.w3.org/Graphics/SVG/1.1/DTD/svg11.dtd">
<svg version="1.1" id="Layer_1" xmlns="http://www.w3.org/2000/svg" xmlns:xlink="http://www.w3.org/1999/xlink" x="0px" y="0px"
	 viewBox="0 0 50 50" enable-background="new 0 0 50 50" xml:space="preserve">
<path fill="#333333" d="M1784.6,2821.2v3.8v3.8v15.4v3.8v15.4v3.8v3.8h-50v-3.8v-3.8v-15.4v-3.8v-15.4v-3.8v-3.8H1784.6z M49.8,38.3
	c0,0.4-0.4,0.4-1.3,0.2c0.8,1.2,1.2,2.5,1.2,3.8c0,4-3.3,7.3-7.3,7.3c-3.5,0-6.3-2.5-7.1-5.8C35,44,34.8,44,34.4,44
	c-0.8,0-1.5-0.4-1.5-3.3l0,0c-2.7,0.8-6,1.3-9.8,1.3c-2.1,0-4,0-6.2-0.2c0,0.2,0,0.4,0,0.6c0,4-3.3,7.3-7.3,7.3s-7.3-3.5-7.3-7.5
	c0-1.3,0.4-2.5,1-3.5c-1.9-1-3.1-2.1-3.1-3.5c0-4.4,1.7-7.3,1.7-7.3s2.9,1,7.9,1c5.2,0,6.7-1.2,7.5-1.2c1.5,0,1.2,1.3,1.2,1.3
	c-2.3,7.9,2.1,7.5,6.2,7.5c11.7,0,8.5-13.7,6.2-20c0,0-2.5,1.9-3.8,2.3c-1.5,0.4-2.5-1.3-0.8-2.1c0.2-0.2,3.1-1.3,5-2.1
	c0,0,0,0,0-0.2c0-1.5,2.1-2.7,4.6-2.7c2.5,0,2.5,1.2,2.5,2.7s0.2,2.7-2.5,2.7c-0.8,0-1.3,0-1.9-0.2c1.9,6.7,6.7,13.3,7.1,13.8
	c0.6,0.8,0.8,1.5,0.8,2.5C47.1,33.3,49.8,36.3,49.8,38.3z M13.8,41.5c-0.4,0-1-0.2-1.3-0.2c-0.6,0.8-1.2,1.3-1.7,1.9
	c-0.2,0.4-0.6,0.4-1,0.4s-0.8-0.2-1-0.4c-0.6-0.6-0.6-1.5,0-2.1C9,41,9.2,40.8,9.4,40.6c-1.2-0.2-2.1-0.4-3.1-0.8
	c-0.4,0.8-0.8,1.5-0.8,2.3c0,2.3,1.9,4.2,4.2,4.2s4.2-1.9,4.2-4.2C13.8,42.1,13.8,41.7,13.8,41.5z M46.5,42.3c0-1.5-1-3.1-2.3-3.7
	c-0.8,0.2-1.7,0.4-2.7,0.8c0.6,0.8,1.2,1.3,1.7,2.1c0.6,0.6,0.6,1.5,0,2.1c-0.2,0.2-0.6,0.4-1,0.4s-0.8-0.2-1-0.4
	c-0.8-0.8-1.5-1.9-2.3-2.9c-0.2,0.2-0.4,0.2-0.6,0.4c-0.2,0.4-0.4,1-0.4,1.5c0,2.3,1.9,4.2,4.2,4.2S46.5,44.6,46.5,42.3z M9.6,26.7
	c5,0,9.4-0.6,9.4-1.7s-0.8-1.9-1.9-1.9H2.3c-1,0-1.9,0.8-1.9,1.9S4.6,26.7,9.6,26.7z"/>
</svg>
