<?xml version="1.0" encoding="utf-8"?>
<!-- Generator: Adobe Illustrator 17.1.0, SVG Export Plug-In . SVG Version: 6.00 Build 0)  -->
<!DOCTYPE svg PUBLIC "-//W3C//DTD SVG 1.1//EN" "http://www.w3.org/Graphics/SVG/1.1/DTD/svg11.dtd">
<svg version="1.1" id="Layer_1" xmlns="http://www.w3.org/2000/svg" xmlns:xlink="http://www.w3.org/1999/xlink" x="0px" y="0px"
	 viewBox="0 0 50 50" enable-background="new 0 0 50 50" xml:space="preserve">
<path fill="#333333" d="M49.6,3.1l-2.5,4.4L44,8.7L26,26.9L23.1,24L41.3,5.8l1.2-3.1l4.4-2.5C47.3,0,47.7,0,48.1,0.4l1.5,1.5
	C50,2.3,50,2.7,49.6,3.1z M25.4,31.2L19,24.8c0,0-1.2-1.7-2.7,0c-0.6,0.6,0,3.8-1,4.8c-1.5,1.5-5.8,1.9-8.1,4.2
	C2.1,39-0.6,46.3,0.6,47.3l2.5,2.5c1,1,8.3-1.5,13.5-6.7c3.1-3.1,3.1-6.9,4.2-8.1c0.8-0.8,4-0.2,4.8-1
	C26.9,32.3,25.4,31.2,25.4,31.2z"/>
</svg>
