<?xml version="1.0" encoding="utf-8"?>
<!-- Generator: Adobe Illustrator 17.1.0, SVG Export Plug-In . SVG Version: 6.00 Build 0)  -->
<!DOCTYPE svg PUBLIC "-//W3C//DTD SVG 1.1//EN" "http://www.w3.org/Graphics/SVG/1.1/DTD/svg11.dtd">
<svg version="1.1" id="Layer_1" xmlns="http://www.w3.org/2000/svg" xmlns:xlink="http://www.w3.org/1999/xlink" x="0px" y="0px"
	 viewBox="0 0 50 50" enable-background="new 0 0 50 50" xml:space="preserve">
<path fill="#333333" d="M33.7,36.5c-3.1,0-4.9,1-4.9,4.3c0,2.2,2.7,3.9,4.6,3.1c0.2-0.1,0.3-0.3,0.1-0.3c-1.4-0.2-2.8-1.2-2.8-2.7
	c0-1.8,1.8-2.3,3.2-2.3c1.3,0,3.4,1.1,3.4,3.7c0,2.5-2.9,4.6-5.2,4.6s-5.3-1.1-5.3-6.5c0-7.5,9.8-8.5,9.8-17.4
	c0-7.3-13.8-8.7-13.8-13.6c0.4,0.8,2.3,2.1,4.1,2.7c2.9,0.9,6.4-0.3,9,2.1c0.8,0.8,3.7-2.7,2.1-4.2c0,0-4.5-0.7-6.1-4.1
	c-0.2-0.5-0.6-1.7,0.7-3c0.3-0.3-0.1-0.5-0.3-0.5c-1.3,0.1-2.5,0.8-2.8,1.2c-0.7-0.5-2-3.5-2-3.5s-12,0.2-12,9.4
	c0,5.1,2.4,9.1,2.3,9.9c-1,0.3-3.8-2.5-5-3.5c-0.4-0.4-1-0.5-1.4-0.1c-0.7,0.5-1.8,1.5-1.8,7.2c0,4.8,4.8,9.3,5.9,9.7
	c0.4,0.2,1.1,0,1.2-0.4c0.7-1.7,1.7-7.4,3.6-7.4c2.2,3-1.1,6-1.1,14.5c0,7.8,5.1,10.7,12.2,10.7c6.3,0,8.9-4.1,8.9-7.7
	C40.4,38.7,36.8,36.5,33.7,36.5z M28.8,6.7c0.5,0,1,0.4,1,1s-0.4,1-1,1s-1-0.4-1-1S28.3,6.7,28.8,6.7z"/>
</svg>
