<?xml version="1.0" encoding="utf-8"?>
<!-- Generator: Adobe Illustrator 17.1.0, SVG Export Plug-In . SVG Version: 6.00 Build 0)  -->
<!DOCTYPE svg PUBLIC "-//W3C//DTD SVG 1.1//EN" "http://www.w3.org/Graphics/SVG/1.1/DTD/svg11.dtd">
<svg version="1.1" id="Layer_1" xmlns="http://www.w3.org/2000/svg" xmlns:xlink="http://www.w3.org/1999/xlink" x="0px" y="0px"
	 viewBox="0 0 50 50" enable-background="new 0 0 50 50" xml:space="preserve">
<path fill="#333333" d="M49.2,24.2c0.6-2.1-1.5-7.5-6.9-8.7c0-1.5-0.6-3.1-1.7-4.4c-1.7-2.1-4.2-3.5-6.9-3.7c-0.4-0.6-0.6-1-1-1.2
	c-1.5-1.5-3.7-2.5-6-2.5c-1.3,0-2.7,0.2-3.7,0.8c-1.3-0.4-2.5-0.8-3.8-0.8c-2.5,0-4.8,1.2-6.2,3.1c-0.2,0-0.4,0-0.6,0
	c-2.9,0-5.6,1.3-6.9,3.7c-0.4,0.6-0.6,1.2-0.8,1.9c-2.9,1.2-4.6,3.8-4.6,6.5c0,1.9,0.8,3.8,2.1,5c-0.2,1.3,0,2.7,0.6,3.8
	c0.6,1.5,1.9,2.7,3.3,3.5C6.5,36,6.9,41.7,7.5,44.2c0.2,2.1,0.6,1.9,1,1.9c0.4,0,0.6,0,1,0c0.8,0,0.8-2.7,0.8-2.7s0.2-4,0.8-9.4
	c0.2,0,0.2,0.2,0.4,0.2c1,4.4,2.1,8.3,2.7,10.4c0.2,1.7,0.6,1.5,1,1.5c0.4,0,1.2,0,1.5,0s0.2-1.9,0.2-1.9s-1-3.7-1.2-8.3
	c0.2,0,0.6,0,0.8,0c1.5,0,2.9-0.4,4.2-1.2c1.5,1,3.3,1.7,5.4,1.7h0.2c0.4,3.7,0.8,6.5,1.2,8.3c0.2,1.3,0.6,1.3,1,1.3s1,0,1.3,0
	c0.6,0,0.8-1.9,0.8-1.9s0-4.4,0.2-8.8c0.4-0.2,1-0.6,1.3-1h0.2c0.8,4.6,1.7,8.3,2.3,10.4c0.4,1.5,0.8,1.3,1.2,1.3s1,0,1.3,0
	c0.6,0,0.6-2.1,0.6-2.1s-0.6-5.2-0.6-10.4c1.2-0.6,2.3-1.3,3.1-2.5c0.6-0.8,1.2-1.7,1.3-2.7C46,29.2,51.7,28.1,49.2,24.2z
	 M33.3,30.8c-1.2,0-2.3-0.4-3.1-1.3c0.4,2.1-1.7,3.5-4,3.5c-1.9,0-4-1-4.8-3.3c-1.5,2.1-3.3,2.9-4.8,2.9c-2.5,0-4.6-2.3-4.6-4
	c-0.6,0.2-1.2,0.4-1.7,0.4c-2.9,0-6.2-2.9-3.1-6.2c-1.7-0.6-3.3-1.5-3.3-3.7c0-1.2,1-3.3,3.5-3.3c0.4,0,0.8,0,1.3,0.2
	c-1.5-2.9,1-5.4,3.8-5.4c1,0,1.7,0.4,2.7,1c0.4-2.7,2.1-3.8,4-3.8c1.3,0,2.9,0.6,3.8,1.9c0.6-1.2,2.1-1.9,3.7-1.9
	c2.1,0,4.4,1.3,4.2,4.2c0.8-0.4,1.5-0.6,2.3-0.6c2.5,0,5,2.1,5.2,4.2c-0.8,0.2-1.3,0.2-2.1,0.4c-5-2.3-7.3,1.7-7.5,2.9
	c0,1.2,3.8,1.2,5.2,1.2c-0.4,0.4,0,0.2-0.2,1.5c-0.2,1.9,0.2,3.5,1.5,5c0.4,0.6,1.2,1,2.1,1.3C36.9,29.8,35.2,30.8,33.3,30.8z
	 M43.7,22.9c-0.6,0-1-0.6-0.8-1.2c0-0.6,0.6-1,1.2-0.8c0.6,0,1,0.6,0.8,1.2C44.6,22.5,44,22.9,43.7,22.9z"/>
</svg>
