<?xml version="1.0" encoding="utf-8"?>
<!-- Generator: Adobe Illustrator 17.1.0, SVG Export Plug-In . SVG Version: 6.00 Build 0)  -->
<!DOCTYPE svg PUBLIC "-//W3C//DTD SVG 1.1//EN" "http://www.w3.org/Graphics/SVG/1.1/DTD/svg11.dtd">
<svg version="1.1" id="Layer_1" xmlns="http://www.w3.org/2000/svg" xmlns:xlink="http://www.w3.org/1999/xlink" x="0px" y="0px"
	 viewBox="0 0 50 50" enable-background="new 0 0 50 50" xml:space="preserve">
<path fill="#333333" d="M45,13.5c-1.3-5-6.5-7.7-6.5-7.7l-5.8-1.3l-1.9-2.5c0,0-1.9,4.4-5.8,4.4s-5.8-4.4-5.8-4.4l-1.9,2.5l-5.8,1.3
	c0,0-5.2,2.7-6.5,7.7c-0.4,2.1-5,12.1-5,14c0,2.1,0,16.7,0,16.7h7.7c0,0,0-14.6,0-15.8c0-1.3,3.8-6.9,3.8-6.9v26.5h26.9v-21v-5.8
	c0,0,3.8,5.8,3.8,6.9c0,1.3,0,15.8,0,15.8H50c0,0,0-14.6,0-16.7C50,25.6,45.4,15.6,45,13.5z M25,38.5l-3.7-6l2.7-21l-1.3-3.8h4.6
	L26,11.5l2.7,21L25,38.5z"/>
</svg>
