<?xml version="1.0" encoding="utf-8"?>
<!-- Generator: Adobe Illustrator 17.1.0, SVG Export Plug-In . SVG Version: 6.00 Build 0)  -->
<!DOCTYPE svg PUBLIC "-//W3C//DTD SVG 1.1//EN" "http://www.w3.org/Graphics/SVG/1.1/DTD/svg11.dtd">
<svg version="1.1" id="Layer_1" xmlns="http://www.w3.org/2000/svg" xmlns:xlink="http://www.w3.org/1999/xlink" x="0px" y="0px"
	 viewBox="0 0 50 50" enable-background="new 0 0 50 50" xml:space="preserve">
<path fill="#333333" d="M49.8,34.4c0,1.3-0.2,1.9-14.8,1.9c-10.2,0-11.9,0.2-16-2.9c-1.5-1.2-2.9-1-5.8-1v4H1.9v-4l0,0
	C1.7,31.9,0.2,28.7,0,25c0-2.1,0.2-5.2,1.3-7.5c3.3-0.4,6.9,6,13.1,3.1c1.9-1,3.5-2.3,4.4-3.3c0.4-0.4,0.2-2.9,0.4-3.3
	c0.8-0.8,1.5-0.2,1.5-0.2s9.6,8.5,14.4,10.8C40,26.9,49.8,25.2,49.8,34.4z"/>
</svg>
