<?xml version="1.0" encoding="utf-8"?>
<!-- Generator: Adobe Illustrator 17.1.0, SVG Export Plug-In . SVG Version: 6.00 Build 0)  -->
<!DOCTYPE svg PUBLIC "-//W3C//DTD SVG 1.1//EN" "http://www.w3.org/Graphics/SVG/1.1/DTD/svg11.dtd">
<svg version="1.1" id="Layer_1" xmlns="http://www.w3.org/2000/svg" xmlns:xlink="http://www.w3.org/1999/xlink" x="0px" y="0px"
	 viewBox="0 0 50 50" enable-background="new 0 0 50 50" xml:space="preserve">
<path fill="#333333" d="M25,34.8c3.5,0,5.6,1.9,5.6,1.9s-1.7,1.5-5.6,1.5s-5.6-1.7-5.6-1.7S21.5,34.8,25,34.8z M49.6,25
	c0,13.7-11,24.6-24.6,24.6S0.4,38.7,0.4,25S11.3,0.4,25,0.4S49.6,11.3,49.6,25z M45.8,25c0-11.5-9.2-20.8-20.8-20.8S4.2,13.5,4.2,25
	S13.5,45.8,25,45.8S45.8,36.5,45.8,25z M32.7,26c-2.1,0-5.8-1.7-5.8-0.6c0,1.2,3.7,3.3,5.8,3.3s5.8-2.1,5.8-3.3
	C38.5,24.4,34.8,26,32.7,26z M22.9,25.6c0-1.2-3.5,0.6-5.6,0.6s-5.6-1.5-5.6-0.6s3.5,3.3,5.6,3.3C19.4,28.7,22.9,26.5,22.9,25.6z"/>
</svg>
