<?xml version="1.0" encoding="utf-8"?>
<!-- Generator: Adobe Illustrator 17.1.0, SVG Export Plug-In . SVG Version: 6.00 Build 0)  -->
<!DOCTYPE svg PUBLIC "-//W3C//DTD SVG 1.1//EN" "http://www.w3.org/Graphics/SVG/1.1/DTD/svg11.dtd">
<svg version="1.1" id="Layer_1" xmlns="http://www.w3.org/2000/svg" xmlns:xlink="http://www.w3.org/1999/xlink" x="0px" y="0px"
	 viewBox="0 0 50 50" enable-background="new 0 0 50 50" xml:space="preserve">
<path fill="#333333" d="M39.4,30.8C45.2,30.8,50,26,50,20.2c0-4.8-3.3-9-7.9-10.2C41,4.2,35.8,0,29.8,0c-4.2,0-8.3,2.3-10.6,5.8
	c-0.4,0-0.6,0-1,0c-4.8,0-8.8,3.3-10.2,7.7c-4.4,0.2-8.1,4-8.1,8.7c0,4.8,3.8,8.7,8.7,8.7H39.4z M3.8,22.1c0-2.7,2.1-4.8,4.8-4.8
	c0.2,0,0.6,0,0.8,0l1.9,0.4l0.2-1.9c0.4-3.5,3.3-6.2,6.7-6.2c0.4,0,1,0,1.5,0.2l1.5,0.4l0.6-1.3c1.5-3.1,4.6-5,7.9-5
	c4.4,0,8.3,3.5,8.7,7.9v1.7h1.7c3.5,0.4,6,3.3,6,6.7c0,3.7-3.1,6.7-6.7,6.7H8.7C6,26.9,3.8,24.8,3.8,22.1z M32.7,43.3
	c0,0.6-0.4,1-1,1h-3.5l2.3,2.3c0.4,0.4,0.4,1,0,1.3c-0.2,0.2-0.4,0.4-0.8,0.4s-0.6-0.2-0.8-0.4l-2.1-2.3V49c0,0.6-0.4,1-1,1
	s-1-0.4-1-1v-3.5l-2.5,2.5c-0.2,0.2-0.4,0.4-0.8,0.4s-0.4-0.2-0.6-0.4c-0.4-0.4-0.4-1,0-1.3l2.3-2.3H20c-0.6,0-1-0.4-1-1
	c0-0.6,0.4-1,1-1h3.5l-2.3-2.7c-0.4-0.4-0.4-1,0-1.3s1-0.4,1.3,0l2.3,2.3v-3.5c0-0.6,0.4-1,1-1s1,0.4,1,1v3.5l2.3-2.3
	c0.4-0.4,1-0.4,1.3,0s0.4,1,0,1.3l-2.1,2.5h3.5C32.3,42.3,32.7,42.7,32.7,43.3z M48.1,37.5c0,0.6-0.4,1-1,1h-3.5l2.3,2.3
	c0.4,0.4,0.4,1,0,1.3c-0.2,0.2-0.4,0.4-0.8,0.4s-0.6-0.2-0.8-0.4L42.3,40v3.5c0,0.6-0.4,1-1,1c-0.6,0-1-0.6-1-1.2v-3.5l-2.5,2.5
	c-0.2,0.2-0.4,0.4-0.8,0.4s-0.4-0.2-0.6-0.4c-0.4-0.4-0.4-1,0-1.3l2.3-2.3h-3.5c-0.6,0-1-0.4-1-1c0-0.6,0.4-1,1-1h3.5L36.5,34
	c-0.4-0.4-0.4-1,0-1.3s1-0.4,1.3,0l2.3,2.3v-1.5c0-0.6,0.4-1,1-1c0.6,0,1,0.4,1,1V35l2.3-2.3c0.4-0.4,1-0.4,1.3,0s0.4,1,0,1.3
	l-1.9,2.5h3.5C47.7,36.5,48.1,36.9,48.1,37.5z M17.3,39.4c0,0.6-0.4,1-1,1h-3.5l2.5,2.5c0.4,0.4,0.4,1,0,1.3
	c-0.2,0.2-0.4,0.4-0.8,0.4s-0.4-0.2-0.6-0.4l-2.5-2.5v3.5c0,0.6-0.4,1-1,1s-1-0.4-1-1v-3.5l-2.5,2.5c-0.2,0.2-0.4,0.4-0.8,0.4
	S6,44.4,5.8,44.2c-0.4-0.4-0.4-1,0-1.3l2.5-2.5H4.8c-0.6,0-1-0.4-1-1c0-0.6,0.4-1,1-1h3.5L5.8,36c-0.4-0.4-0.4-1,0-1.3
	c0.4-0.4,1-0.4,1.3,0l2.5,2.5v-3.5c0-0.6,0.4-1,1-1s1,0.4,1,1v3.5l2.5-2.5c0.4-0.4,1-0.4,1.3,0s0.4,1,0,1.3l-2.5,2.5h3.5
	C16.9,38.5,17.3,38.8,17.3,39.4z"/>
</svg>
