<?xml version="1.0" encoding="utf-8"?>
<!-- Generator: Adobe Illustrator 17.1.0, SVG Export Plug-In . SVG Version: 6.00 Build 0)  -->
<!DOCTYPE svg PUBLIC "-//W3C//DTD SVG 1.1//EN" "http://www.w3.org/Graphics/SVG/1.1/DTD/svg11.dtd">
<svg version="1.1" id="Layer_1" xmlns="http://www.w3.org/2000/svg" xmlns:xlink="http://www.w3.org/1999/xlink" x="0px" y="0px"
	 viewBox="0 0 50 50" enable-background="new 0 0 50 50" xml:space="preserve">
<path fill="#333333" d="M46.2,25c-2.5,0-0.4,6-6.7,7.3c-0.6-2.5-1.7-5.2-3.5-7.3h-24c-0.4,0.6-0.8,1.3-1.2,1.9H7.7
	c-5.2,0-7.7,2.5-7.7,7.7c0,2.5,3.7,8.1,10.6,9.4c1.2,1.5,2.9,2.9,4.8,3.8v0.2c0,1.2,0.8,1.9,1.9,1.9h13.5c1.2,0,1.9-0.8,1.9-1.9
	v-0.4c2.7-1.3,5-3.3,6.2-6c10-2.5,8.1-15,11.2-16.7C50,25,46.2,25,46.2,25z M3.8,34.6c0-1.9,0-3.8,3.8-3.8H9c-0.6,1.9-1,3.8-1,5.8
	c0,1,0.2,1.9,0.4,2.9C5.4,37.7,3.8,35.2,3.8,34.6z M34.6,23.1H13.5c2.9-3.3,6.5-5.4,10.6-5.4S31.7,19.8,34.6,23.1z M21.2,14.4
	c0-1.5,1.3-2.9,2.9-2.9c1.5,0,2.9,1.3,2.9,2.9s-1.3,2.9-2.9,2.9C22.5,17.3,21.2,16,21.2,14.4z"/>
</svg>
