<?xml version="1.0" encoding="utf-8"?>
<!-- Generator: Adobe Illustrator 17.1.0, SVG Export Plug-In . SVG Version: 6.00 Build 0)  -->
<!DOCTYPE svg PUBLIC "-//W3C//DTD SVG 1.1//EN" "http://www.w3.org/Graphics/SVG/1.1/DTD/svg11.dtd">
<svg version="1.1" id="Layer_1" xmlns="http://www.w3.org/2000/svg" xmlns:xlink="http://www.w3.org/1999/xlink" x="0px" y="0px"
	 viewBox="0 0 50 50" enable-background="new 0 0 50 50" xml:space="preserve">
<path fill="#333333" d="M44.2,15.4H27.7L39.8,3.3c0.8-0.8,0.8-1.9,0-2.7s-1.9-0.8-2.7,0L25,12.7l-6.3-6.3c-0.8-0.8-1.9-0.8-2.7,0
	S15.2,8.3,16,9l6.3,6.3H5.8c-3.3,0-5.8,2.5-5.8,5.8v23.1C0,47.5,2.5,50,5.8,50h38.5c3.3,0,5.8-2.5,5.8-5.8V21.2
	C50,17.9,47.5,15.4,44.2,15.4z M20.2,46.2C6,46.2,3.8,46,3.8,32.7S6,19.2,20.2,19.2s16.3,0,16.3,13.5S34.4,46.2,20.2,46.2z
	 M43.3,38.7c-1.7,0-3.1-1.3-3.1-3.1c0-1.7,1.3-3.1,3.1-3.1c1.7,0,3.1,1.3,3.1,3.1C46.3,37.3,45,38.7,43.3,38.7z M43.3,31
	c-1.7,0-3.1-1.3-3.1-3.1s1.3-3.1,3.1-3.1c1.7,0,3.1,1.3,3.1,3.1S45,31,43.3,31z"/>
</svg>
