<?xml version="1.0" encoding="utf-8"?>
<!-- Generator: Adobe Illustrator 17.1.0, SVG Export Plug-In . SVG Version: 6.00 Build 0)  -->
<!DOCTYPE svg PUBLIC "-//W3C//DTD SVG 1.1//EN" "http://www.w3.org/Graphics/SVG/1.1/DTD/svg11.dtd">
<svg version="1.1" id="Layer_1" xmlns="http://www.w3.org/2000/svg" xmlns:xlink="http://www.w3.org/1999/xlink" x="0px" y="0px"
	 viewBox="0 0 50 50" enable-background="new 0 0 50 50" xml:space="preserve">
<path fill="#333333" d="M44.1,8c0.7-0.5,1.1-1.4,1.1-2.3V3.8c0-1.6-1.3-2.9-2.9-2.9h-7.7c-1.6,0-2.9,1.3-2.9,2.9v1.9
	c0,0.6,0.2,1.1,0.5,1.5c-1.9,2.3-3.3,6.7-4.2,10.3c0.2,0.1,0.3,0.2,0.5,0.3c0.4,0.4,0.6,0.9,0.5,1.4c0.8,0.3,1.5,0.7,2.2,1.1
	c0.8-3.9,3-9.7,4.1-11c0.4-0.1,0.8-0.4,1-0.8h5.9c1.4,0.9,4.9,10.5,4.9,14.2V44c0,1.6-1.3,2.8-2.8,2.8h-9.9
	c-0.3-0.6-0.9-0.9-1.6-0.9c-0.4,0-0.7-0.1-1-0.3c-0.9,1-1.9,1.8-2.9,2.6c1,1,2.4,1.6,4,1.6c0.7,0,1.3-0.4,1.6-0.9h9.9
	c2.7,0,4.8-2.2,4.8-4.8V22.9C49.1,20.4,46.7,11.5,44.1,8z M33.7,3.8c0-0.5,0.4-0.9,0.9-0.9h7.7c0.5,0,0.9,0.4,0.9,0.9v1.9
	c0,0.5-0.4,0.9-1,0.9h-6c-0.3-0.6-0.9-0.9-1.6-0.9c-0.3,0-0.6,0.1-0.9,0.2c0-0.1,0-0.1,0-0.2C33.7,5.7,33.7,3.8,33.7,3.8z M17.3,50
	C7.7,50,0,42.2,0,33.6c0-6.5,2.1-11.8,8.8-13.3c0,1.3,1,1.8,1.7,2c-0.6,1.5-3.2,2.8-4.7,3.2C5.7,26.7,8,29.1,12,28.8
	c1-0.1,2.1-0.5,3-0.9c0.6,1.5,1,4.4,4.7,5.3c2.1-1.3,1.9-5.2,2-6c1.3,1.3,4.2,1.4,5.7,0.4c0.9-0.6,1.6-2.2,1.7-3.2
	c-1.3,0.5-2.8-1.1-3.8-1.4c0.9,0,2.7-1.1,2.6-2.1c4.9,1.7,6.7,5.6,6.7,10.8C34.6,44.3,25.8,50,17.3,50z M9.4,16.9
	c1.3,3.4,4.6-0.2,7.3,3.9c0.8-2.9,3.2-5.2,3.2-5.2s0.7-0.3,1.4,0.3c-1.9,1.7-2.4,4-2.6,5.3C22.4,18,24,21,27,19.5
	c-1.9,3.7-3.1,3-5.8,2.8c3.7,0.6,3.2,2.8,6.1,3.5c-3.6,2.3-6.7-0.7-8.8-3.2c0,0,0,0-0.1,0c1.4,2.8,1.9,5.1,0.9,8.4
	c-4.2-2.5-2.7-7-2.5-8.3c-1.2,3.3-4,5.3-8.5,3.5c3.6-0.7,2.8-4.6,7.7-4.2C14.7,20.9,9.4,22.2,9.4,16.9z"/>
</svg>
