<?xml version="1.0" encoding="utf-8"?>
<!-- Generator: Adobe Illustrator 17.1.0, SVG Export Plug-In . SVG Version: 6.00 Build 0)  -->
<!DOCTYPE svg PUBLIC "-//W3C//DTD SVG 1.1//EN" "http://www.w3.org/Graphics/SVG/1.1/DTD/svg11.dtd">
<svg version="1.1" id="Layer_1" xmlns="http://www.w3.org/2000/svg" xmlns:xlink="http://www.w3.org/1999/xlink" x="0px" y="0px"
	 viewBox="0 0 50 50" enable-background="new 0 0 50 50" xml:space="preserve">
<path fill="#333333" d="M44.2,0H5.8C3.7,0,1.9,1.7,1.9,3.8v42.3c0,2.1,1.7,3.8,3.8,3.8h38.5c2.1,0,3.8-1.7,3.8-3.8V3.8
	C48.1,1.7,46.3,0,44.2,0z M44.2,46.2H5.8V3.8h38.5V46.2z M15.4,17.3h-3.8v-3.8h3.8V17.3z M38.5,17.3H19.2v-3.8h19.2V17.3z
	 M38.5,26.9H19.2v-3.8h19.2V26.9z M38.5,36.5H19.2v-3.8h19.2V36.5z M15.4,26.9h-3.8v-3.8h3.8V26.9z M15.4,36.5h-3.8v-3.8h3.8V36.5z"
	/>
</svg>
