<?xml version="1.0" encoding="utf-8"?>
<!-- Generator: Adobe Illustrator 17.1.0, SVG Export Plug-In . SVG Version: 6.00 Build 0)  -->
<!DOCTYPE svg PUBLIC "-//W3C//DTD SVG 1.1//EN" "http://www.w3.org/Graphics/SVG/1.1/DTD/svg11.dtd">
<svg version="1.1" id="Layer_1" xmlns="http://www.w3.org/2000/svg" xmlns:xlink="http://www.w3.org/1999/xlink" x="0px" y="0px"
	 viewBox="0 0 50 50" enable-background="new 0 0 50 50" xml:space="preserve">
<path fill="#333333" d="M48.1,6.5c0.8-0.8-0.6-2.7,1.7-4.8l-1.5-1.5c-2.3,2.3-4,0.8-4.8,1.7c-0.8,0.8-0.8,2.1,0,3.1l-0.8,0.8
	l-1.9-1.9c-0.6-0.6-1.5-0.6-2.1,0s-0.6,1.5,0,2.1l1.9,1.9l-0.8,0.6l-1.7-1.7c-0.6-0.6-1.5-0.6-2.1,0s-0.6,1.5,0,2.1l1.7,1.7
	l-4.6,4.2c-1.5-1.3-3.8-3.1-6.7-3.1c-1.5,0-3.1,0.4-4.6,1.5c-1,0.6-2.3,1.7-4.2,2.9c1.7,2.3,0.2,4.6-2.1,6.9
	c-1.5,1.5-3.1,2.7-4.6,2.7c-1,0-1.7-0.4-2.5-1.2c-0.4-0.4-0.6-0.8-0.8-1.2c-1.5,1.2-2.9,2.5-4,3.7C-2.1,32.7-0.4,39.4,5.4,45
	c3.1,3.1,6.7,5,10.2,5c2.7,0,5.2-1.2,7.5-3.5c1.2-1.2,2.5-2.5,3.7-4c-0.4-0.2-0.8-0.4-1.2-0.8c-2.5-2.3-1-4.8,1.3-7.1
	c1.5-1.5,3.1-2.7,4.6-2.7c0.8,0,1.5,0.4,2.5,1c1.2-1.7,2.3-3.3,2.9-4c3.5-4.8,0.6-9.2-1.3-11.3l4-4.6l1.7,1.7
	c0.4,0.4,0.8,0.4,1.2,0.4s0.8-0.2,1.2-0.4c0.6-0.6,0.6-1.5,0-2.1l-1.7-1.7l0.4-1l1.9,1.9c0.4,0.4,0.8,0.4,1.2,0.4s0.8-0.2,1.2-0.4
	c0.6-0.6,0.6-1.5,0-2.1l-1.9-1.9l0.8-0.8C46,7.5,47.3,7.3,48.1,6.5z M34.6,27.1c-0.4,0.6-1,1.3-1.5,2.1c-0.6-0.2-1-0.2-1.5-0.2
	c-2.9,0-5,1.9-6.5,3.5c-1.7,1.7-2.7,3.3-3.3,4.8c-0.6,1.9-0.2,3.8,1,5.6c-0.6,0.6-1.2,1.2-1.7,1.7c-1.7,1.7-3.7,2.5-5.6,2.5
	c-2.3,0-4.6-1.2-7.1-3.3l8.1-7.1l-3.7-3.7l-7.1,8.1c-1.9-2.3-3.1-4.6-3.1-6.7c0-1.9,0.8-3.8,2.5-5.6c0.6-0.6,1.2-1,1.7-1.5
	c1.3,1,2.7,1.3,3.7,1.3c2.7,0,5-1.9,6.5-3.5c3.3-3.3,3.8-6,3.3-8.1c0.8-0.6,1.5-1.2,2.1-1.5c1-0.8,1.9-1.2,2.9-1.2
	c1.7,0,3.3,1,4.6,2.1l-6.5,6.5l3.8,3.8l6.5-7.1C35,21.2,36.7,24,34.6,27.1z"/>
</svg>
