<?xml version="1.0" encoding="utf-8"?>
<!-- Generator: Adobe Illustrator 17.1.0, SVG Export Plug-In . SVG Version: 6.00 Build 0)  -->
<!DOCTYPE svg PUBLIC "-//W3C//DTD SVG 1.1//EN" "http://www.w3.org/Graphics/SVG/1.1/DTD/svg11.dtd">
<svg version="1.1" id="Layer_1" xmlns="http://www.w3.org/2000/svg" xmlns:xlink="http://www.w3.org/1999/xlink" x="0px" y="0px"
	 viewBox="0 0 50 50" enable-background="new 0 0 50 50" xml:space="preserve">
<path fill="#333333" d="M25,0.4C11.3,0.4,0.4,11.3,0.4,25s11,24.6,24.6,24.6s24.6-11,24.6-24.6S38.7,0.4,25,0.4z M25,44.4
	C14.4,44.4,5.6,35.6,5.6,25S14.4,5.6,25,5.6S44.4,14.2,44.4,25S35.6,44.4,25,44.4z M25,7.9C15.6,7.9,7.9,15.6,7.9,25
	S15.6,42.1,25,42.1S42.1,34.4,42.1,25S34.4,7.9,25,7.9z M37.5,30.4C37.5,30.4,37.5,30.2,37.5,30.4l-6.3-4.2c0-0.4,0.2-0.8,0.2-1.2
	s0-0.8-0.2-1.2l6.2-4l0,0c0.8,1.5,1.2,3.5,1.2,5.4C38.7,26.9,38.3,28.7,37.5,30.4z M35.8,16.7L35.8,16.7L29,20.2
	c-0.6-0.4-1.2-0.8-1.9-1.2l-0.4-7.5l0,0C30.4,12.1,33.7,14,35.8,16.7z M25,28.1c-1.7,0-3.1-1.3-3.1-3.1s1.3-3.1,3.1-3.1
	c1.7,0,3.1,1.3,3.1,3.1S26.7,28.1,25,28.1z M23.3,11.5L23.3,11.5L22.9,19c-0.8,0.2-1.3,0.6-2.1,1.2l-6.5-3.3l0,0
	C16.3,14,19.6,11.9,23.3,11.5z M12.5,19.8L12.5,19.8l6.3,4c0,0.4-0.2,0.8-0.2,1.2s0,0.8,0.2,1.2l-6.3,4l0,0
	c-0.8-1.5-1.2-3.3-1.2-5.2S11.7,21.3,12.5,19.8z M14.2,33.1L14.2,33.1l6.7-3.3c0.6,0.6,1.3,1,2.1,1.2l0.4,7.5l0,0
	C19.6,38.1,16.3,36,14.2,33.1z M26.7,38.5L26.7,38.5l0.4-7.5c0.8-0.2,1.3-0.6,1.9-1.2l6.7,3.5l0,0C33.7,36,30.4,37.9,26.7,38.5z"/>
</svg>
