<?xml version="1.0" encoding="utf-8"?>
<!-- Generator: Adobe Illustrator 17.1.0, SVG Export Plug-In . SVG Version: 6.00 Build 0)  -->
<!DOCTYPE svg PUBLIC "-//W3C//DTD SVG 1.1//EN" "http://www.w3.org/Graphics/SVG/1.1/DTD/svg11.dtd">
<svg version="1.1" id="Layer_1" xmlns="http://www.w3.org/2000/svg" xmlns:xlink="http://www.w3.org/1999/xlink" x="0px" y="0px"
	 viewBox="0 0 50 50" enable-background="new 0 0 50 50" xml:space="preserve">
<path fill="#333333" d="M25,6.2c1.9,0,3.5,1.5,3.5,3.5s-1.5,3.5-3.5,3.5s-3.5-1.5-3.5-3.5S23.1,6.2,25,6.2z M29.8,26.7
	c0-3.5,0-3.5-0.2-6.5c0,0,5.6-6.2,5.6-9.6c0-4.8-7.7-11.2-8.7-10.2c-0.6,0.8,5.4,5.8,5.4,9.4c0,1.9-2.7,5-3.5,5.4
	c-0.4,0.4-1.9,0.2-3.7,0.2c-1.2,0-3.3,0-3.7-0.4c-1-1-3.3-3.7-3.3-5c0-2.9,5.4-9.6,4.6-10c-0.8-0.4-8.3,7.7-8.3,10.2
	c0,3.8,5.2,9.6,5.2,9.6s0,7.9,0,8.7c0,7.1,2.5,21,4.6,21c1.3,0,0.2-7.3,0.2-11c0-4.2,0.8-8.3,0.8-8.3s6.5,2.3,5.8,3.1
	c-1.7,1.7-6.2,3.3-5.6,4.2c0.8,1.2,7.3-0.6,11.2-3.7C38.1,32.7,29.8,26.7,29.8,26.7z"/>
</svg>
