<?xml version="1.0" standalone="no"?>
<!DOCTYPE svg PUBLIC "-//W3C//DTD SVG 1.1//EN" "http://www.w3.org/Graphics/SVG/1.1/DTD/svg11.dtd" >
<svg xmlns="http://www.w3.org/2000/svg">
<metadata>Generated by IcoMoon</metadata>
<defs>
<font id="coupon_icons" horiz-adv-x="512">
<font-face units-per-em="512" ascent="480" descent="-32" />
<missing-glyph horiz-adv-x="512" />
<glyph unicode="&#x20;" d="" horiz-adv-x="256" />
<glyph unicode="&#xe600;" d="M256 416.512c19.456 0 35.84-15.36 35.84-35.84s-15.36-35.84-35.84-35.84-35.84 15.36-35.84 35.84 16.384 35.84 35.84 35.84zM305.152 206.592c0 35.84 0 35.84-2.048 66.56 0 0 57.344 63.488 57.344 98.304 0 49.152-78.848 114.688-89.088 104.448-6.144-8.192 55.296-59.392 55.296-96.256 0-19.456-27.648-51.2-35.84-55.296-4.096-4.096-19.456-2.048-37.888-2.048-12.288 0-33.792 0-37.888 4.096-10.24 10.24-33.792 37.888-33.792 51.2 0 29.696 55.296 98.304 47.104 102.4-8.192 4.096-84.992-78.848-84.992-104.448 0-38.912 53.248-98.304 53.248-98.304s0-80.896 0-89.088c0-72.704 25.6-215.040 47.104-215.040 13.312 0 2.048 74.752 2.048 112.64 0 43.008 8.192 84.992 8.192 84.992s66.56-23.552 59.392-31.744c-17.408-17.408-63.488-33.792-57.344-43.008 8.192-12.288 74.752 6.144 114.688 37.888 19.456 11.264-65.536 72.704-65.536 72.704z" />
<glyph unicode="&#xe601;" d="M256 475.904c-140.288 0-251.904-111.616-251.904-251.904s112.64-251.904 251.904-251.904 251.904 112.64 251.904 251.904-111.616 251.904-251.904 251.904zM256 25.344c-108.544 0-198.656 90.112-198.656 198.656s90.112 198.656 198.656 198.656 198.656-88.064 198.656-198.656-90.112-198.656-198.656-198.656zM256 399.104c-96.256 0-175.104-78.848-175.104-175.104s78.848-175.104 175.104-175.104 175.104 78.848 175.104 175.104-78.848 175.104-175.104 175.104zM384 168.704c0 0 0 2.048 0 0l-64.512 43.008c0 4.096 2.048 8.192 2.048 12.288s0 8.192-2.048 12.288l63.488 40.96c8.192-15.36 12.288-35.84 12.288-55.296 1.024-17.408-3.072-35.84-11.264-53.248zM366.592 308.992v0l-69.632-35.84c-6.144 4.096-12.288 8.192-19.456 12.288l-4.096 76.8c37.888-6.144 71.68-25.6 93.184-53.248zM256 192.256c-17.408 0-31.744 13.312-31.744 31.744s13.312 31.744 31.744 31.744c17.408 0 31.744-13.312 31.744-31.744s-14.336-31.744-31.744-31.744zM238.592 362.24v0l-4.096-76.8c-8.192-2.048-13.312-6.144-21.504-12.288l-66.56 33.792c20.48 29.696 54.272 51.2 92.16 55.296zM128 277.248v0l64.512-40.96c0-4.096-2.048-8.192-2.048-12.288s0-8.192 2.048-12.288l-64.512-40.96c-8.192 15.36-12.288 33.792-12.288 53.248s4.096 37.888 12.288 53.248zM145.408 141.056v0l68.608 33.792c6.144-6.144 13.312-10.24 21.504-12.288l4.096-76.8c-38.912 4.096-72.704 25.6-94.208 55.296zM273.408 85.76v0l4.096 76.8c8.192 2.048 13.312 6.144 19.456 12.288l68.608-35.84c-20.48-27.648-54.272-47.104-92.16-53.248z" />
<glyph unicode="&#xe602;" d="M492.544 413.44c8.192 8.192-6.144 27.648 17.408 49.152l-15.36 15.36c-23.552-23.552-40.96-8.192-49.152-17.408-8.192-8.192-8.192-21.504 0-31.744l-8.192-8.192-19.456 19.456c-6.144 6.144-15.36 6.144-21.504 0s-6.144-15.36 0-21.504l19.456-19.456-8.192-6.144-17.408 17.408c-6.144 6.144-15.36 6.144-21.504 0s-6.144-15.36 0-21.504l17.408-17.408-47.104-43.008c-15.36 13.312-38.912 31.744-68.608 31.744-15.36 0-31.744-4.096-47.104-15.36-10.24-6.144-23.552-17.408-43.008-29.696 17.408-23.552 2.048-47.104-21.504-70.656-15.36-15.36-31.744-27.648-47.104-27.648-10.24 0-17.408 4.096-25.6 12.288-4.096 4.096-6.144 8.192-8.192 12.288-15.36-12.288-29.696-25.6-40.96-37.888-58.368-58.368-40.96-126.976 18.432-184.32 31.744-31.744 68.608-51.2 104.448-51.2 27.648 0 53.248 12.288 76.8 35.84 12.288 12.288 25.6 25.6 37.888 40.96-4.096 2.048-8.192 4.096-12.288 8.192-25.6 23.552-10.24 49.152 13.312 72.704 15.36 15.36 31.744 27.648 47.104 27.648 8.192 0 15.36-4.096 25.6-10.24 12.288 17.408 23.552 33.792 29.696 40.96 35.84 49.152 6.144 94.208-13.312 115.712l40.96 47.104 17.408-17.408c4.096-4.096 8.192-4.096 12.288-4.096s8.192 2.048 12.288 4.096c6.144 6.144 6.144 15.36 0 21.504l-17.408 17.408 4.096 10.24 19.456-19.456c4.096-4.096 8.192-4.096 12.288-4.096s8.192 2.048 12.288 4.096c6.144 6.144 6.144 15.36 0 21.504l-19.456 19.456 8.192 8.192c4.096-5.12 17.408-3.072 25.6 5.12zM354.304 202.496c-4.096-6.144-10.24-13.312-15.36-21.504-6.144 2.048-10.24 2.048-15.36 2.048-29.696 0-51.2-19.456-66.56-35.84-17.408-17.408-27.648-33.792-33.792-49.152-6.144-19.456-2.048-38.912 10.24-57.344-6.144-6.144-12.288-12.288-17.408-17.408-17.408-17.408-37.888-25.6-57.344-25.6-23.552 0-47.104 12.288-72.704 33.792l82.944 72.704-37.888 37.888-72.704-82.944c-19.456 23.552-31.744 47.104-31.744 68.608 0 19.456 8.192 38.912 25.6 57.344 6.144 6.144 12.288 10.24 17.408 15.36 13.312-10.24 27.648-13.312 37.888-13.312 27.648 0 51.2 19.456 66.56 35.84 33.792 33.792 38.912 61.44 33.792 82.944 8.192 6.144 15.36 12.288 21.504 15.36 10.24 8.192 19.456 12.288 29.696 12.288 17.408 0 33.792-10.24 47.104-21.504l-66.56-66.56 38.912-38.912 66.56 72.704c13.312-16.384 30.72-45.056 9.216-76.8z" />
<glyph unicode="&#xe603;" d="M452.608 480h-393.216c-21.504 0-39.936-17.408-39.936-38.912v-433.152c0-21.504 17.408-38.912 38.912-38.912h394.24c21.504 0 38.912 17.408 38.912 38.912v433.152c1.024 21.504-17.408 38.912-38.912 38.912zM452.608 6.912h-393.216v434.176h394.24v-434.176zM157.696 302.848h-38.912v38.912h38.912v-38.912zM394.24 302.848h-197.632v38.912h196.608v-38.912zM394.24 204.544h-197.632v38.912h196.608v-38.912zM394.24 106.24h-197.632v38.912h196.608v-38.912zM157.696 204.544h-38.912v38.912h38.912v-38.912zM157.696 106.24h-38.912v38.912h38.912v-38.912z" />
<glyph unicode="&#xe604;" d="M451.584 398.080c7.168 5.12 11.264 14.336 11.264 23.552v19.456c0 16.384-13.312 29.696-29.696 29.696h-78.848c-16.384 0-29.696-13.312-29.696-29.696v-19.456c0-6.144 2.048-11.264 5.12-15.36-19.456-23.552-33.792-68.608-43.008-105.472 2.048-1.024 3.072-2.048 5.12-3.072 4.096-4.096 6.144-9.216 5.12-14.336 8.192-3.072 15.36-7.168 22.528-11.264 8.192 39.936 30.72 99.328 41.984 112.64 4.096 1.024 8.192 4.096 10.24 8.192h60.416c14.336-9.216 50.176-107.52 50.176-145.408v-218.112c0-16.384-13.312-28.672-28.672-28.672h-101.376c-3.072 6.144-9.216 9.216-16.384 9.216-4.096 0-7.168 1.024-10.24 3.072-9.216-10.24-19.456-18.432-29.696-26.624 10.24-10.24 24.576-16.384 40.96-16.384 7.168 0 13.312 4.096 16.384 9.216h101.376c27.648 0 49.152 22.528 49.152 49.152v217.088c-1.024 25.6-25.6 116.736-52.224 152.576zM345.088 441.088c0 5.12 4.096 9.216 9.216 9.216h78.848c5.12 0 9.216-4.096 9.216-9.216v-19.456c0-5.12-4.096-9.216-10.24-9.216h-61.44c-3.072 6.144-9.216 9.216-16.384 9.216-3.072 0-6.144-1.024-9.216-2.048 0 1.024 0 1.024 0 2.048 0 0 0 19.456 0 19.456zM177.152-32c-98.304 0-177.152 79.872-177.152 167.936 0 66.56 21.504 120.832 90.112 136.192 0-13.312 10.24-18.432 17.408-20.48-6.144-15.36-32.768-28.672-48.128-32.768-1.024-12.288 22.528-36.864 63.488-33.792 10.24 1.024 21.504 5.12 30.72 9.216 6.144-15.36 10.24-45.056 48.128-54.272 21.504 13.312 19.456 53.248 20.48 61.44 13.312-13.312 43.008-14.336 58.368-4.096 9.216 6.144 16.384 22.528 17.408 32.768-13.312-5.12-28.672 11.264-38.912 14.336 9.216 0 27.648 11.264 26.624 21.504 50.176-17.408 68.608-57.344 68.608-110.592 0-129.024-90.112-187.392-177.152-187.392zM96.256 306.944c13.312-34.816 47.104 2.048 74.752-39.936 8.192 29.696 32.768 53.248 32.768 53.248s7.168 3.072 14.336-3.072c-19.456-17.408-24.576-40.96-26.624-54.272 37.888 32.768 54.272 2.048 84.992 17.408-19.456-37.888-31.744-30.72-59.392-28.672 37.888-6.144 32.768-28.672 62.464-35.84-36.864-23.552-68.608 7.168-90.112 32.768 0 0 0 0-1.024 0 14.336-28.672 19.456-52.224 9.216-86.016-43.008 25.6-27.648 71.68-25.6 84.992-12.288-33.792-40.96-54.272-87.040-35.84 36.864 7.168 28.672 47.104 78.848 43.008-13.312 11.264-67.584-2.048-67.584 52.224z" />
<glyph unicode="&#xe605;" d="M452.608 322.304h-168.96l123.904 123.904c8.192 8.192 8.192 19.456 0 27.648s-19.456 8.192-27.648 0l-123.904-123.904-64.512 64.512c-8.192 8.192-19.456 8.192-27.648 0s-8.192-19.456 0-26.624l64.512-64.512h-168.96c-33.792 0-59.392-25.6-59.392-59.392v-236.544c0-33.792 25.6-59.392 59.392-59.392h394.24c33.792 0 59.392 25.6 59.392 59.392v235.52c-1.024 33.792-26.624 59.392-60.416 59.392zM206.848 6.912c-145.408 0-167.936 2.048-167.936 138.24s22.528 138.24 167.936 138.24 166.912 0 166.912-138.24-21.504-138.24-166.912-138.24zM443.392 83.712c-17.408 0-31.744 13.312-31.744 31.744 0 17.408 13.312 31.744 31.744 31.744 17.408 0 31.744-13.312 31.744-31.744-1.024-17.408-14.336-31.744-31.744-31.744zM443.392 162.56c-17.408 0-31.744 13.312-31.744 31.744s13.312 31.744 31.744 31.744c17.408 0 31.744-13.312 31.744-31.744s-14.336-31.744-31.744-31.744z" />
<glyph unicode="&#xe606;" d="M512 320.256l-74.752-45.056-43.008 64.512v-371.712h-276.48v371.712l-43.008-64.512-74.752 45.056c0 0 40.96 59.392 66.56 102.4 15.36 25.6 51.2 37.888 51.2 37.888l78.848 19.456c0 0 19.456-38.912 59.392-38.912s59.392 38.912 59.392 38.912l78.848-19.456c0 0 35.84-12.288 51.2-37.888 25.6-43.008 66.56-102.4 66.56-102.4z" />
<glyph unicode="&#xe607;" d="M315.392 460.544c0-78.848 78.848-117.76 78.848-117.76v-374.784h-98.304l-39.936 354.304-38.912-354.304h-98.304v373.76c0 0 78.848 38.912 78.848 117.76-13.312-76.8-78.848-78.848-78.848-78.848v99.328h275.456v-98.304c0 0-65.536 8.192-78.848 78.848z" />
<glyph unicode="&#xe608;" d="M226.304 316.16c0 15.36 13.312 29.696 29.696 29.696s29.696-13.312 29.696-29.696-13.312-29.696-29.696-29.696-29.696 14.336-29.696 29.696zM362.496 121.6c-35.84 8.192-72.704-17.408-82.944-61.44-10.24-40.96 12.288-82.944 47.104-90.112 35.84-8.192 72.704 17.408 82.944 61.44 10.24 43.008-12.288 81.92-47.104 90.112zM488.448 164.608c-10.24-23.552-33.792-19.456-45.056-13.312-17.408 6.144-72.704 29.696-72.704 29.696l4.096-35.84c0 0-31.744 6.144-57.344-6.144-4.096 25.6-31.744 45.056-61.44 45.056s-57.344-17.408-61.44-45.056c-25.6 12.288-57.344 6.144-57.344 6.144l4.096 35.84c0 0-55.296-23.552-72.704-29.696-13.312-6.144-35.84-10.24-45.056 13.312s4.096 37.888 21.504 47.104c15.36 8.192 84.992 45.056 108.544 57.344-10.24 13.312-15.36 33.792-15.36 53.248 0 8.192 2.048 17.408 2.048 25.6-23.552 10.24-40.96 35.84-40.96 63.488 0 23.552 15.36 35.84 25.6 47.104l4.096 2.048c10.24 8.192 21.504 19.456 38.912 19.456 27.648 0 53.248-17.408 63.488-40.96 8.192 0 17.408 2.048 25.6 2.048s16.384-2.048 24.576-2.048c10.24 23.552 35.84 40.96 63.488 40.96 19.456 0 31.744-10.24 38.912-19.456l2.048-2.048c13.312-12.288 27.648-23.552 27.648-47.104 0-27.648-17.408-53.248-40.96-63.488 0-8.192 2.048-17.408 2.048-25.6 0-19.456-6.144-38.912-13.312-55.296 21.504-12.288 90.112-47.104 108.544-57.344 14.336-7.168 28.672-23.552 18.432-45.056zM319.488 422.656c15.36-10.24 29.696-23.552 38.912-38.912 8.192 6.144 15.36 15.36 15.36 27.648 0 6.144-4.096 10.24-12.288 17.408l-3.072 4.096c-8.192 6.144-10.24 8.192-13.312 8.192-12.288 0-22.528-8.192-25.6-18.432zM256 369.408c-38.912 0-70.656-31.744-70.656-70.656s31.744-70.656 70.656-70.656 70.656 31.744 70.656 70.656-31.744 70.656-70.656 70.656zM155.648 383.744c10.24 15.36 23.552 29.696 38.912 38.912-6.144 10.24-15.36 17.408-27.648 17.408-4.096 0-6.144-2.048-13.312-10.24l-2.048-1.024c-10.24-8.192-13.312-12.288-13.312-17.408 0-12.288 7.168-21.504 17.408-27.648zM149.504 121.6c-35.84-8.192-57.344-49.152-47.104-90.112s47.104-68.608 82.944-61.44 57.344 49.152 47.104 90.112c-10.24 44.032-47.104 71.68-82.944 61.44z" />
<glyph unicode="&#xe609;" d="M473.088 224c-25.6 0-4.096-61.44-68.608-74.752-6.144 25.6-17.408 53.248-35.84 74.752h-245.76c-4.096-6.144-8.192-13.312-12.288-19.456h-31.744c-53.248 0-78.848-25.6-78.848-78.848 0-25.6 37.888-82.944 108.544-96.256 12.288-15.36 29.696-29.696 49.152-38.912v-2.048c0-12.288 8.192-19.456 19.456-19.456h138.24c12.288 0 19.456 8.192 19.456 19.456v4.096c27.648 13.312 51.2 33.792 63.488 61.44 102.4 25.6 82.944 153.6 114.688 171.008-1.024-1.024-39.936-1.024-39.936-1.024zM38.912 125.696c0 19.456 0 38.912 38.912 38.912h14.336c-6.144-19.456-10.24-38.912-10.24-59.392 0-10.24 2.048-19.456 4.096-29.696-30.72 18.432-47.104 44.032-47.104 50.176zM354.304 243.456h-216.064c29.696 33.792 66.56 55.296 108.544 55.296s77.824-21.504 107.52-55.296zM217.088 332.544c0 15.36 13.312 29.696 29.696 29.696 15.36 0 29.696-13.312 29.696-29.696s-13.312-29.696-29.696-29.696c-16.384 0-29.696 13.312-29.696 29.696z" />
<glyph unicode="&#xe60a;" d="M403.456 164.608c59.392 0 108.544 49.152 108.544 108.544 0 49.152-33.792 92.16-80.896 104.448-11.264 59.392-64.512 102.4-125.952 102.4-43.008 0-84.992-23.552-108.544-59.392-4.096 0-6.144 0-10.24 0-49.152 0-90.112-33.792-104.448-78.848-45.056-2.048-82.944-40.96-82.944-89.088 0-49.152 38.912-89.088 89.088-89.088h315.392zM38.912 253.696c0 27.648 21.504 49.152 49.152 49.152 2.048 0 6.144 0 8.192 0l19.456-4.096 2.048 19.456c4.096 35.84 33.792 63.488 68.608 63.488 4.096 0 10.24 0 15.36-2.048l15.36-4.096 6.144 13.312c15.36 31.744 47.104 51.2 80.896 51.2 45.056 0 84.992-35.84 89.088-80.896v-17.408h17.408c35.84-4.096 61.44-33.792 61.44-68.608 0-37.888-31.744-68.608-68.608-68.608h-314.368c-27.648 0-50.176 21.504-50.176 49.152zM334.848 36.608c0-6.144-4.096-10.24-10.24-10.24h-35.84l23.552-23.552c4.096-4.096 4.096-10.24 0-13.312-2.048-2.048-4.096-4.096-8.192-4.096s-6.144 2.048-8.192 4.096l-21.504 23.552v-34.816c0-6.144-4.096-10.24-10.24-10.24s-10.24 4.096-10.24 10.24v35.84l-25.6-25.6c-2.048-2.048-4.096-4.096-8.192-4.096s-4.096 2.048-6.144 4.096c-4.096 4.096-4.096 10.24 0 13.312l23.552 23.552h-32.768c-6.144 0-10.24 4.096-10.24 10.24s4.096 10.24 10.24 10.24h35.84l-23.552 27.648c-4.096 4.096-4.096 10.24 0 13.312s10.24 4.096 13.312 0l23.552-23.552v35.84c0 6.144 4.096 10.24 10.24 10.24s10.24-4.096 10.24-10.24v-35.84l23.552 23.552c4.096 4.096 10.24 4.096 13.312 0s4.096-10.24 0-13.312l-21.504-25.6h35.84c5.12-1.024 9.216-5.12 9.216-11.264zM492.544 96c0-6.144-4.096-10.24-10.24-10.24h-35.84l23.552-23.552c4.096-4.096 4.096-10.24 0-13.312-2.048-2.048-4.096-4.096-8.192-4.096s-6.144 2.048-8.192 4.096l-20.48 21.504v-35.84c0-6.144-4.096-10.24-10.24-10.24s-10.24 6.144-10.24 12.288v35.84l-25.6-25.6c-2.048-2.048-4.096-4.096-8.192-4.096s-4.096 2.048-6.144 4.096c-4.096 4.096-4.096 10.24 0 13.312l23.552 23.552h-35.84c-6.144 0-10.24 4.096-10.24 10.24s4.096 10.24 10.24 10.24h35.84l-22.528 27.648c-4.096 4.096-4.096 10.24 0 13.312s10.24 4.096 13.312 0l23.552-23.552v15.36c0 6.144 4.096 10.24 10.24 10.24s10.24-4.096 10.24-10.24v-15.36l23.552 23.552c4.096 4.096 10.24 4.096 13.312 0s4.096-10.24 0-13.312l-19.456-25.6h35.84c4.096 0 8.192-4.096 8.192-10.24zM177.152 76.544c0-6.144-4.096-10.24-10.24-10.24h-35.84l25.6-25.6c4.096-4.096 4.096-10.24 0-13.312-2.048-2.048-4.096-4.096-8.192-4.096s-4.096 2.048-6.144 4.096l-25.6 25.6v-35.84c0-6.144-4.096-10.24-10.24-10.24s-10.24 4.096-10.24 10.24v35.84l-25.6-25.6c-2.048-2.048-4.096-4.096-8.192-4.096s-1.024 2.048-3.072 4.096c-4.096 4.096-4.096 10.24 0 13.312l25.6 25.6h-35.84c-6.144 0-10.24 4.096-10.24 10.24s4.096 10.24 10.24 10.24h35.84l-25.6 24.576c-4.096 4.096-4.096 10.24 0 13.312 4.096 4.096 10.24 4.096 13.312 0l25.6-25.6v35.84c0 6.144 4.096 10.24 10.24 10.24s10.24-4.096 10.24-10.24v-35.84l25.6 25.6c4.096 4.096 10.24 4.096 13.312 0s4.096-10.24 0-13.312l-25.6-25.6h35.84c5.12 0 9.216-3.072 9.216-9.216z" />
<glyph unicode="&#xe60b;" d="M256 123.648c35.84 0 57.344-19.456 57.344-19.456s-17.408-15.36-57.344-15.36-57.344 17.408-57.344 17.408 21.504 17.408 57.344 17.408zM507.904 224c0-140.288-112.64-251.904-251.904-251.904s-251.904 111.616-251.904 251.904 111.616 251.904 251.904 251.904 251.904-111.616 251.904-251.904zM468.992 224c0 117.76-94.208 212.992-212.992 212.992s-212.992-95.232-212.992-212.992 95.232-212.992 212.992-212.992 212.992 95.232 212.992 212.992zM334.848 213.76c-21.504 0-59.392 17.408-59.392 6.144 0-12.288 37.888-33.792 59.392-33.792s59.392 21.504 59.392 33.792c0 10.24-37.888-6.144-59.392-6.144zM234.496 217.856c0 12.288-35.84-6.144-57.344-6.144s-57.344 15.36-57.344 6.144 35.84-33.792 57.344-33.792c21.504 2.048 57.344 24.576 57.344 33.792z" />
<glyph unicode="&#xe60c;" d="M509.952 127.744c0-13.312-2.048-19.456-151.552-19.456-104.448 0-121.856-2.048-163.84 29.696-15.36 12.288-29.696 10.24-59.392 10.24v-40.96h-115.712v40.96c-2.048 5.12-17.408 37.888-19.456 75.776 0 21.504 2.048 53.248 13.312 76.8 33.792 4.096 70.656-61.44 134.144-31.744 19.456 10.24 35.84 23.552 45.056 33.792 4.096 4.096 2.048 29.696 4.096 33.792 8.192 8.192 15.36 2.048 15.36 2.048s98.304-87.040 147.456-110.592c50.176-23.552 150.528-6.144 150.528-100.352z" />
<glyph unicode="&#xe60d;" d="M460.8 341.76c-13.312 51.2-66.56 78.848-66.56 78.848l-59.392 13.312-19.456 25.6c0 0-19.456-45.056-59.392-45.056s-59.392 45.056-59.392 45.056l-19.456-25.6-59.392-13.312c0 0-53.248-27.648-66.56-78.848-4.096-21.504-51.2-123.904-51.2-143.36 0-21.504 0-171.008 0-171.008h78.848c0 0 0 149.504 0 161.792 0 13.312 38.912 70.656 38.912 70.656v-271.36h275.456v274.432c0 0 38.912-59.392 38.912-70.656 0-13.312 0-161.792 0-161.792h79.872c0 0 0 149.504 0 171.008 0 16.384-47.104 118.784-51.2 140.288zM256 85.76l-37.888 61.44 27.648 215.040-13.312 38.912h47.104l-13.312-38.912 27.648-215.040-37.888-61.44z" />
<glyph unicode="&#xe60e;" d="M503.808 232.192c6.144 21.504-15.36 76.8-70.656 89.088 0 15.36-6.144 31.744-17.408 45.056-17.408 21.504-43.008 35.84-70.656 37.888-4.096 6.144-6.144 10.24-10.24 12.288-15.36 15.36-37.888 25.6-61.44 25.6-13.312 0-27.648-2.048-37.888-8.192-13.312 4.096-25.6 8.192-38.912 8.192-25.6 0-49.152-12.288-63.488-31.744-2.048 0-4.096 0-6.144 0-29.696 0-57.344-13.312-70.656-37.888-4.096-6.144-6.144-12.288-8.192-19.456-29.696-12.288-47.104-38.912-47.104-66.56 0-19.456 8.192-38.912 21.504-51.2-2.048-13.312 0-27.648 6.144-38.912 6.144-15.36 19.456-27.648 33.792-35.84 4.096-49.152 8.192-107.52 14.336-133.12 2.048-21.504 6.144-19.456 10.24-19.456 4.096 0 6.144 0 10.24 0 8.192 0 8.192 27.648 8.192 27.648s2.048 40.96 8.192 96.256c2.048 0 2.048-2.048 4.096-2.048 10.24-45.056 21.504-84.992 27.648-106.496 2.048-17.408 6.144-15.36 10.24-15.36 4.096 0 12.288 0 15.36 0s2.048 19.456 2.048 19.456-10.24 37.888-12.288 84.992c2.048 0 6.144 0 8.192 0 15.36 0 29.696 4.096 43.008 12.288 15.36-10.24 33.792-17.408 55.296-17.408h2.048c4.096-37.888 8.192-66.56 12.288-84.992 2.048-13.312 6.144-13.312 10.24-13.312s10.24 0 13.312 0c6.144 0 8.192 19.456 8.192 19.456s0 45.056 2.048 90.112c4.096 2.048 10.24 6.144 13.312 10.24h2.048c8.192-47.104 17.408-84.992 23.552-106.496 4.096-15.36 8.192-13.312 12.288-13.312s10.24 0 13.312 0c6.144 0 6.144 21.504 6.144 21.504s-6.144 53.248-6.144 106.496c12.288 6.144 23.552 13.312 31.744 25.6 6.144 8.192 12.288 17.408 13.312 27.648 46.080-9.216 104.448 2.048 78.848 41.984zM340.992 164.608c-12.288 0-23.552 4.096-31.744 13.312 4.096-21.504-17.408-35.84-40.96-35.84-19.456 0-40.96 10.24-49.152 33.792-15.36-21.504-33.792-29.696-49.152-29.696-25.6 0-47.104 23.552-47.104 40.96-6.144-2.048-12.288-4.096-17.408-4.096-29.696 0-63.488 29.696-31.744 63.488-17.408 6.144-33.792 15.36-33.792 37.888 0 12.288 10.24 33.792 35.84 33.792 4.096 0 8.192 0 13.312-2.048-15.36 29.696 10.24 55.296 38.912 55.296 10.24 0 17.408-4.096 27.648-10.24 4.096 27.648 21.504 38.912 40.96 38.912 13.312 0 29.696-6.144 38.912-19.456 6.144 12.288 21.504 19.456 37.888 19.456 21.504 0 45.056-13.312 43.008-43.008 8.192 4.096 15.36 6.144 23.552 6.144 25.6 0 51.2-21.504 53.248-43.008-8.192-2.048-13.312-2.048-21.504-4.096-51.2 23.552-74.752-17.408-76.8-29.696 0-12.288 38.912-12.288 53.248-12.288-4.096-4.096 0-2.048-2.048-15.36-2.048-19.456 2.048-35.84 15.36-51.2 4.096-6.144 12.288-10.24 21.504-13.312-5.12-19.456-22.528-29.696-41.984-29.696zM447.488 245.504c-6.144 0-10.24 6.144-8.192 12.288 0 6.144 6.144 10.24 12.288 8.192 6.144 0 10.24-6.144 8.192-12.288-3.072-4.096-9.216-8.192-12.288-8.192z" />
<glyph unicode="&#xe60f;" d="M345.088 106.24c-31.744 0-50.176-10.24-50.176-44.032 0-22.528 27.648-39.936 47.104-31.744 2.048 1.024 3.072 3.072 1.024 3.072-14.336 2.048-28.672 12.288-28.672 27.648 0 18.432 18.432 23.552 32.768 23.552 13.312 0 34.816-11.264 34.816-37.888 0-25.6-29.696-47.104-53.248-47.104s-54.272 11.264-54.272 66.56c0 76.8 100.352 87.040 100.352 178.176 0 74.752-141.312 89.088-141.312 139.264 4.096-8.192 23.552-21.504 41.984-27.648 29.696-9.216 65.536 3.072 92.16-21.504 8.192-8.192 37.888 27.648 21.504 43.008 0 0-46.080 7.168-62.464 41.984-2.048 5.12-6.144 17.408 7.168 30.72 3.072 3.072-1.024 5.12-3.072 5.12-13.312-1.024-25.6-8.192-28.672-12.288-7.168 5.12-20.48 35.84-20.48 35.84s-122.88-2.048-122.88-96.256c0-52.224 24.576-93.184 23.552-101.376-10.24-3.072-38.912 25.6-51.2 35.84-4.096 4.096-10.24 5.12-14.336 1.024-7.168-5.12-18.432-15.36-18.432-73.728 0-49.152 49.152-95.232 60.416-99.328 4.096-2.048 11.264 0 12.288 4.096 7.168 17.408 17.408 75.776 36.864 75.776 22.528-30.72-11.264-61.44-11.264-148.48 0-79.872 52.224-109.568 124.928-109.568 64.512 0 91.136 41.984 91.136 78.848 1.024 37.888-35.84 60.416-67.584 60.416zM294.912 411.392c5.12 0 10.24-4.096 10.24-10.24s-4.096-10.24-10.24-10.24-10.24 4.096-10.24 10.24 5.12 10.24 10.24 10.24z" />
<glyph unicode="&#xe610;" d="M507.904 448.256l-25.6-45.056-31.744-12.288-184.32-186.368-29.696 29.696 186.368 186.368 12.288 31.744 45.056 25.6c4.096 2.048 8.192 2.048 12.288-2.048l15.36-15.36c4.096-4.096 4.096-8.192 0-12.288zM260.096 160.512l-65.536 65.536c0 0-12.288 17.408-27.648 0-6.144-6.144 0-38.912-10.24-49.152-15.36-15.36-59.392-19.456-82.944-43.008-52.224-53.248-79.872-128-67.584-138.24l25.6-25.6c10.24-10.24 84.992 15.36 138.24 68.608 31.744 31.744 31.744 70.656 43.008 82.944 8.192 8.192 40.96 2.048 49.152 10.24 13.312 17.408-2.048 28.672-2.048 28.672z" />
<glyph unicode="&#xe611;" d="M18274.304-28409.088v-509.952h-512v509.952h512zM509.952 87.808c0-4.096-4.096-4.096-13.312-2.048 8.192-12.288 12.288-25.6 12.288-38.912 0-40.96-33.792-74.752-74.752-74.752-35.84 0-64.512 25.6-72.704 59.392-3.072-2.048-5.12-2.048-9.216-2.048-8.192 0-15.36 4.096-15.36 33.792v0c-27.648-8.192-61.44-13.312-100.352-13.312-21.504 0-40.96 0-63.488 2.048 0-2.048 0-4.096 0-6.144 0-40.96-33.792-74.752-74.752-74.752s-74.752 35.84-74.752 76.8c0 13.312 4.096 25.6 10.24 35.84-19.456 10.24-31.744 21.504-31.744 35.84 0 45.056 17.408 74.752 17.408 74.752s29.696-10.24 80.896-10.24c53.248 0 68.608 12.288 76.8 12.288 15.36 0 12.288-13.312 12.288-13.312-23.552-80.896 21.504-76.8 63.488-76.8 119.808 0 87.040 140.288 63.488 204.8 0 0-25.6-19.456-38.912-23.552-15.36-4.096-25.6 13.312-8.192 21.504 2.048 2.048 31.744 13.312 51.2 21.504 0 0 0 0 0 2.048 0 15.36 21.504 27.648 47.104 27.648 25.6 0 25.6-12.288 25.6-27.648s2.048-27.648-25.6-27.648c-8.192 0-13.312 0-19.456 2.048 19.456-68.608 68.608-136.192 72.704-141.312 6.144-8.192 8.192-15.36 8.192-25.6 53.248-1.024 80.896-31.744 80.896-52.224zM141.312 55.040c-4.096 0-10.24 2.048-13.312 2.048-6.144-8.192-12.288-13.312-17.408-19.456-2.048-4.096-6.144-4.096-10.24-4.096s-8.192 2.048-10.24 4.096c-6.144 6.144-6.144 15.36 0 21.504 2.048 1.024 4.096 3.072 6.144 5.12-12.288 2.048-21.504 4.096-31.744 8.192-4.096-8.192-8.192-15.36-8.192-23.552 0-23.552 19.456-43.008 43.008-43.008s43.008 19.456 43.008 43.008c-1.024 0-1.024 4.096-1.024 6.144zM476.16 46.848c0 15.36-10.24 31.744-23.552 37.888-8.192-2.048-17.408-4.096-27.648-8.192 6.144-8.192 12.288-13.312 17.408-21.504 6.144-6.144 6.144-15.36 0-21.504-2.048-2.048-6.144-4.096-10.24-4.096s-8.192 2.048-10.24 4.096c-8.192 8.192-15.36 19.456-23.552 29.696-2.048-2.048-4.096-2.048-6.144-4.096-2.048-4.096-4.096-10.24-4.096-15.36 0-23.552 19.456-43.008 43.008-43.008s45.056 22.528 45.056 46.080zM98.304 206.592c51.2 0 96.256 6.144 96.256 17.408s-8.192 19.456-19.456 19.456h-151.552c-10.24 0-19.456-8.192-19.456-19.456s43.008-17.408 94.208-17.408z" />
<glyph unicode="&#xe612;" d="M161.792 217.856c0 38.912-29.696 63.488-80.896 63.488-49.152 0-80.896-23.552-80.896-63.488 0-51.2 43.008-72.704 128-63.488 10.24 0 17.408 2.048 29.696 4.096 4.096 15.36 8.192 31.744 12.288 47.104-10.24-1.024-8.192 6.144-8.192 12.288zM80.896 185.088c-47.104 0-47.104 23.552-47.104 31.744s0 31.744 47.104 31.744 47.104-23.552 47.104-31.744c2.048-6.144 2.048-31.744-47.104-31.744zM509.952 281.344c0 0-29.696-80.896-112.64-96.256 0 0-53.248-8.192-125.952-15.36 4.096 8.192 8.192 13.312 12.288 19.456 10.24 13.312 21.504 31.744 33.792 63.488 2.048 1.024 192.512 28.672 192.512 28.672zM240.64 133.888c-6.144 0-15.36 4.096-10.24 17.408 17.408 51.2 40.96 47.104 63.488 119.808l51.2 202.752c0 0-82.944-19.456-108.544-100.352 0 0-47.104-185.344-63.488-264.192-17.408-84.992-4.096-130.048 49.152-136.192 38.912-4.096 66.56 21.504 72.704 72.704 4.096 50.176-15.36 83.968-54.272 88.064zM215.040 200.448c8.192 0 15.36-8.192 15.36-15.36 0-8.192-8.192-15.36-15.36-15.36-8.192 0-15.36 8.192-15.36 15.36-1.024 9.216 7.168 15.36 15.36 15.36zM262.144 50.944c-6.144-47.104-29.696-45.056-37.888-43.008s-31.744 4.096-25.6 51.2 29.696 45.056 37.888 43.008c7.168-2.048 31.744-4.096 25.6-51.2z" />
<glyph unicode="&#xe613;" d="M512 117.504c0 2.048-2.048 6.144-2.048 8.192l-55.296 82.944 35.84 134.144c0 2.048 0 6.144 0 8.192 4.096 54.272-33.792 124.928-234.496 124.928-200.704 2.048-240.64-68.608-234.496-123.904 0-2.048 0-6.144 0-8.192l35.84-136.192-53.248-82.944c-2.048-1.024-4.096-5.12-4.096-7.168v0-49.152c0-55.296 45.056-100.352 100.352-100.352h311.296c55.296 0 100.352 45.056 100.352 100.352v49.152zM68.608 93.952c-12.288 0-25.6 2.048-35.84 6.144 2.048 0 2.048 2.048 2.048 4.096l59.392 90.112c0 2.048 2.048 2.048 2.048 4.096s0 2.048 2.048 4.096v2.048c0 2.048 0 2.048 0 4.096v0l-34.816 133.12h386.048l-35.84-132.096c0-2.048 0-2.048 0-4.096s0-2.048 0-4.096 0-2.048 2.048-4.096c0-2.048 0-2.048 2.048-4.096v0l59.392-90.112c0-2.048 2.048-2.048 2.048-4.096-12.288-4.096-23.552-6.144-35.84-6.144 0 1.024-374.784 1.024-374.784 1.024zM354.304 164.608c0-12.288-8.192-19.456-19.456-19.456s-19.456 8.192-19.456 19.456c0 33.792-25.6 59.392-59.392 59.392s-59.392-25.6-59.392-59.392c0-12.288-8.192-19.456-19.456-19.456s-19.456 8.192-19.456 19.456c0 40.96 25.6 76.8 63.488 92.16l-21.504 15.36 37.888 29.696h38.912l37.888-29.696-21.504-15.36c35.84-15.36 61.44-50.176 61.44-92.16z" />
<glyph unicode="&#xe614;" d="M377.856 308.992l35.84 35.84c-39.936 48.128-96.256 75.776-157.696 75.776-108.544 0-196.608-88.064-196.608-196.608s88.064-196.608 196.608-196.608c98.304 0 181.248 72.704 194.56 168.96 2.048 15.36 17.408 27.648 33.792 25.6 15.36-2.048 27.648-17.408 25.6-33.792-17.408-125.952-125.952-220.16-253.952-220.16-141.312 0-256 114.688-256 256s114.688 256 256 256c76.8 0 149.504-35.84 198.656-94.208l31.744 31.744c2.048 4.096 8.192 4.096 12.288 4.096 3.072-3.072 7.168-5.12 7.168-8.192 10.24-53.248 6.144-114.688 6.144-117.76 0-2.048-2.048-4.096-4.096-6.144-2.048-2.048-4.096-2.048-6.144-4.096-2.048 0-64.512-6.144-117.76 6.144-4.096 0-8.192 4.096-8.192 8.192-2.048 1.024-2.048 7.168 2.048 9.216z" />
<glyph unicode="&#xe615;" d="M490.496 322.304c0 19.456 21.504 45.056 21.504 59.392 0 21.504-17.408 38.912-38.912 38.912-13.312 0-61.44-21.504-89.088-21.504s-37.888 21.504-59.392 21.504-40.96-21.504-68.608-21.504-37.888 21.504-59.392 21.504-51.2-21.504-68.608-21.504-74.752 21.504-89.088 21.504c-21.504 0-38.912-17.408-38.912-38.912 0-13.312 21.504-40.96 21.504-59.392s-21.504-57.344-21.504-98.304 21.504-78.848 21.504-98.304-21.504-45.056-21.504-59.392c0-21.504 17.408-38.912 38.912-38.912 13.312 0 61.44 21.504 89.088 21.504s37.888-21.504 59.392-21.504 40.96 21.504 68.608 21.504 37.888-21.504 59.392-21.504 51.2 21.504 68.608 21.504c17.408 0 74.752-21.504 89.088-21.504 21.504 0 38.912 17.408 38.912 38.912 0 13.312-21.504 40.96-21.504 59.392 0 17.408 21.504 59.392 21.504 98.304s-21.504 78.848-21.504 98.304zM452.608 106.24c0-12.288-8.192-19.456-19.456-19.456h-354.304c-12.288 0-19.456 8.192-19.456 19.456v235.52c0 12.288 8.192 19.456 19.456 19.456h354.304c12.288 0 19.456-8.192 19.456-19.456v-235.52zM409.6 141.056c10.24-8.192-6.144-15.36-15.36-15.36h-278.528c-10.24 0-21.504 10.24-13.312 21.504 0 0 43.008 115.712 74.752 115.712s57.344-84.992 100.352-84.992c23.552 0 29.696 25.6 57.344 25.6s74.752-62.464 74.752-62.464zM275.456 283.392c0 21.504 17.408 38.912 38.912 38.912s38.912-17.408 38.912-38.912-17.408-38.912-38.912-38.912-38.912 17.408-38.912 38.912z" />
<glyph unicode="&#xe616;" d="M413.696-32h-315.392c-35.84 0-17.408 40.96 17.408 72.704l6.144 6.144h-4.096c-21.504 0-38.912 13.312-38.912 29.696s17.408 29.696 38.912 29.696h19.456c0 29.696 45.056 37.888 66.56 100.352-15.36 4.096-27.648 13.312-27.648 27.648 0 15.36 17.408 29.696 38.912 29.696 0 4.096 0 10.24 0 15.36-21.504 12.288-35.84 35.84-35.84 63.488 0 40.96 33.792 74.752 74.752 74.752s74.752-33.792 74.752-74.752c0-27.648-13.312-51.2-35.84-63.488 0-6.144 0-10.24 0-15.36 21.504 0 38.912-13.312 38.912-29.696 0-13.312-12.288-23.552-27.648-27.648 21.504-63.488 66.56-68.608 66.56-100.352h19.456c21.504 0 38.912-13.312 38.912-29.696s-17.408-29.696-38.912-29.696h-6.144l6.144-6.144c40.96-31.744 58.368-72.704 23.552-72.704z" />
<glyph unicode="&#xe617;" d="M448.512 151.296l-10.24-10.24c-27.648-27.648-82.944 23.552-114.688 40.96-6.144 4.096-21.504 6.144-29.696-2.048-8.192-8.192-27.648-27.648-27.648-27.648-12.288-12.288-27.648-8.192-38.912 4.096l-38.912 38.912c-12.288 12.288-15.36 27.648-4.096 38.912 0 0 19.456 19.456 27.648 27.648s6.144 23.552 4.096 29.696c-19.456 30.72-72.704 86.016-43.008 115.712l10.24 10.24c6.144 5.12 57.344-75.776 123.904-142.336 64.512-66.56 147.456-117.76 141.312-123.904zM433.152 480c-43.008 0-78.848-35.84-78.848-78.848v0 0-2.048c0 0 0 0 0-2.048 0-8.192-4.096-23.552-10.24-29.696-8.192-8.192-23.552-23.552-23.552-23.552-10.24-10.24-6.144-21.504 4.096-33.792l17.408-17.408c10.24-10.24 23.552-13.312 33.792-4.096 0 0 15.36 15.36 23.552 23.552 6.144 6.144 21.504 10.24 29.696 10.24h4.096c43.008 0 78.848 35.84 78.848 78.848s-35.84 78.848-78.848 78.848zM294.912 147.2c-12.288 0-21.504-10.24-21.504-21.504 0-63.488-35.84-98.304-100.352-98.304-63.488 0-114.688 53.248-114.688 115.712s35.84 98.304 100.352 98.304c12.288 0 21.504 10.24 21.504 21.504s-10.24 21.504-21.504 21.504c-86.016 1.024-156.672-70.656-156.672-156.672s70.656-157.696 157.696-157.696 157.696 70.656 157.696 157.696c0 11.264-10.24 19.456-22.528 19.456z" />
<glyph unicode="&#xe618;" d="M433.152 480h-354.304c-43.008 0-78.848-35.84-78.848-78.848v-354.304c0-43.008 35.84-78.848 78.848-78.848h256c21.504 0 49.152 29.696 84.992 64.512 4.096 4.096 10.24 10.24 13.312 13.312s10.24 10.24 13.312 13.312c33.792 33.792 64.512 63.488 64.512 84.992v256c1.024 44.032-34.816 79.872-77.824 79.872zM473.088 145.152c0-19.456-19.456-19.456-38.912-19.456h-59.392c-12.288 0-19.456-8.192-19.456-19.456v-59.392c0-17.408 0-35.84-13.312-38.912h-263.168c-21.504 0-38.912 17.408-38.912 38.912v354.304c0 21.504 17.408 38.912 38.912 38.912h354.304c21.504 0 38.912-17.408 38.912-38.912v-256zM394.24 302.848c0-12.288-8.192-19.456-19.456-19.456h-236.544c-12.288 0-19.456 8.192-19.456 19.456s8.192 19.456 19.456 19.456h236.544c11.264 0 19.456-8.192 19.456-19.456zM354.304 204.544c0-12.288-8.192-19.456-19.456-19.456h-196.608c-12.288 0-19.456 8.192-19.456 19.456s8.192 19.456 19.456 19.456h196.608c11.264 0 19.456-8.192 19.456-19.456z" />
<glyph unicode="&#xe619;" d="M512 219.904v155.648c0 25.6-15.36 68.608-114.688 90.112v0 0 0 0c-30.72 8.192-86.016 14.336-141.312 14.336-59.392 0-96.256-4.096-141.312-12.288v0 0c-102.4-23.552-114.688-72.704-114.688-92.16v-155.648c0-2.048 0-4.096 0-4.096v-2.048c0-2.048 2.048-4.096 4.096-6.144v0c0 0 70.656-78.848 104.448-141.312 31.744-57.344 37.888-63.488 55.296-72.704 29.696-19.456 63.488-23.552 92.16-23.552s61.44 4.096 87.040 21.504l4.096 2.048c19.456 12.288 21.504 15.36 55.296 74.752 35.84 61.44 104.448 140.288 104.448 141.312v0c2.048 2.048 2.048 4.096 4.096 6.144v2.048c1.024-2.048 1.024 0 1.024 2.048zM407.552 236.288c31.744-6.144 49.152-12.288 57.344-17.408-13.312-17.408-38.912-47.104-63.488-80.896 4.096 30.72 6.144 64.512 6.144 98.304zM473.088 375.552v-115.712c-15.36 8.192-37.888 12.288-63.488 15.36 2.048 59.392 2.048 114.688 4.096 145.408 36.864-9.216 59.392-27.648 59.392-45.056zM108.544 141.056c-23.552 31.744-47.104 61.44-61.44 78.848 8.192 6.144 25.6 12.288 57.344 17.408 0-34.816 0-66.56 4.096-96.256zM38.912 375.552c0 13.312 15.36 33.792 59.392 47.104 0-31.744 0-87.040 2.048-145.408-25.6-4.096-45.056-8.192-61.44-15.36v113.664zM191.488 21.248v0l-4.096 4.096c-13.312 8.192-23.552 21.504-29.696 43.008-15.36 47.104-19.456 264.192-19.456 364.544 34.816 6.144 68.608 8.192 117.76 8.192s92.16-4.096 117.76-8.192c-2.048-98.304-6.144-317.44-21.504-364.544-15.36-51.2-49.152-61.44-96.256-61.44-25.6 0-47.104 4.096-64.512 14.336z" />
<glyph unicode="&#xe61a;" d="M18274.304-28409.088v-509.952h-512v509.952h512zM492.544 46.848h-473.088c-12.288 0-19.456-8.192-19.456-19.456v-38.912c0-12.288 8.192-20.48 19.456-20.48h473.088c12.288 0 19.456 8.192 19.456 19.456v38.912c0 12.288-8.192 20.48-19.456 20.48zM492.544 362.24l-236.544 117.76-236.544-117.76c-11.264-6.144-19.456-8.192-19.456-20.48v-19.456c0-12.288 8.192-19.456 19.456-19.456h473.088c12.288 0 19.456 8.192 19.456 19.456v19.456c0 12.288-8.192 14.336-19.456 20.48zM294.912 66.304v177.152c12.288 0 19.456 8.192 19.456 19.456v19.456h-116.736v-19.456c0-12.288 8.192-19.456 19.456-19.456v-177.152h77.824zM452.608 66.304v177.152c12.288 0 19.456 8.192 19.456 19.456v19.456h-116.736v-19.456c0-12.288 8.192-19.456 19.456-19.456v-177.152h77.824zM138.24 66.304v177.152c12.288 0 19.456 8.192 19.456 19.456v19.456h-118.784v-19.456c0-12.288 8.192-19.456 19.456-19.456v-177.152h79.872z" />
<glyph unicode="&#xe61b;" d="M143.36 364.288c-13.312 12.288-21.504 27.648-21.504 47.104 0 35.84 29.696 64.512 64.512 64.512s64.512-29.696 64.512-64.512c0-12.288-4.096-23.552-10.24-33.792-2.048 0-4.096 0-6.144 0-31.744 0-63.488-4.096-91.136-13.312zM512 204.544v-59.392c0-12.288-8.192-19.456-19.456-19.456h-19.456c-12.288 0-17.408-8.192-19.456-13.312-13.312-27.648-33.792-49.152-61.44-64.512-13.312-8.192-8.192-17.408-8.192-17.408l6.144-15.36c4.096-10.24-2.048-23.552-12.288-27.648l-38.912-13.312c-10.24-4.096-23.552 2.048-27.648 12.288 0 0-4.096 12.288-8.192 21.504-6.144 17.408-12.288 6.144-68.608 6.144-55.296 0-59.392 17.408-66.56-4.096-4.096-12.288-10.24-25.6-10.24-25.6-4.096-10.24-15.36-15.36-27.648-12.288l-38.912 13.312c-10.24 4.096-15.36 15.36-12.288 27.648 0 0 8.192 17.408 12.288 29.696s-4.096 15.36-8.192 17.408c-25.6 21.504-61.44 57.344-61.44 106.496 0 21.504 2.048 40.96 8.192 59.392 8.192 23.552-29.696 25.6-29.696 68.608 0 45.056 51.2 61.44 66.56 19.456-38.912 27.648-61.44-23.552-23.552-37.888 12.288-6.144 29.696 21.504 35.84 25.6 37.888 35.84 90.112 55.296 157.696 55.296 25.6 0 49.152-4.096 72.704-8.192 19.456 45.056 55.296 61.44 84.992 68.608-15.36-40.96-21.504-64.512-19.456-102.4 4.096-38.912 27.648-61.44 31.744-63.488-13.312 25.6-13.312 63.488-10.24 59.392 27.648-15.36 47.104-45.056 59.392-78.848 2.048-4.096 6.144-10.24 15.36-10.24h19.456c13.312 2.048 21.504-6.144 21.504-17.408zM433.152 194.304c0 15.36-13.312 29.696-29.696 29.696s-29.696-13.312-29.696-29.696 13.312-29.696 29.696-29.696 29.696 14.336 29.696 29.696z" />
<glyph unicode="&#xe61c;" d="M0 480v-512h512v512h-512zM473.088 243.456h-197.632v197.632h196.608v-197.632zM236.544 441.088v-153.6l-45.056 43.008-43.008-21.504-53.248 63.488-55.296-47.104v115.712h196.608zM38.912 204.544h196.608v-196.608h-196.608v196.608zM275.456 6.912v197.632h196.608v-196.608h-196.608zM177.152 381.696c0 12.288 8.192 19.456 19.456 19.456s19.456-8.192 19.456-19.456-8.192-19.456-19.456-19.456-19.456 7.168-19.456 19.456zM315.392 164.608c0 12.288 8.192 19.456 19.456 19.456s19.456-8.192 19.456-19.456-8.192-19.456-19.456-19.456-19.456 8.192-19.456 19.456zM189.44 131.84c-2.048 2.048-2.048 2.048 0 0-2.048 0 6.144 35.84-12.288 47.104-19.456 12.288-45.056-13.312-45.056-13.312s-2.048 2.048-4.096 2.048c-8.192 6.144-29.696 13.312-43.008 2.048-18.432-18.432-2.048-48.128-2.048-48.128s-25.6-21.504-17.408-43.008c2.048-6.144 6.144-10.24 10.24-12.288 13.312-8.192 35.84-4.096 35.84-4.096s10.24-19.456 23.552-27.648c4.096-2.048 8.192-4.096 13.312-4.096 21.504 2.048 29.696 37.888 29.696 37.888s35.84 4.096 40.96 25.6c-1.024 19.456-26.624 35.84-29.696 37.888zM140.288 109.312c0 0 13.312-31.744 2.048-33.792-12.288-2.048-6.144 31.744-6.144 31.744s-27.648-21.504-31.744-12.288c-4.096 12.288 29.696 15.36 29.696 15.36s-29.696 17.408-19.456 25.6 23.552-23.552 23.552-23.552 8.192 33.792 17.408 27.648c12.288-6.144-13.312-29.696-13.312-29.696s33.792 4.096 31.744-8.192c-5.12-10.24-33.792 7.168-33.792 7.168zM289.792 341.76v0 0c0 0 31.744-12.288 33.792-19.456 4.096-12.288-10.24-38.912-10.24-38.912s27.648 15.36 37.888 10.24c10.24-4.096 21.504-35.84 21.504-35.84s10.24 31.744 19.456 35.84c10.24 4.096 38.912-10.24 38.912-10.24s-13.312 29.696-10.24 38.912c2.048 8.192 35.84 19.456 35.84 19.456v0 0c0 0-31.744 12.288-33.792 19.456-2.048 12.288 10.24 38.912 10.24 38.912s-27.648-15.36-37.888-10.24c-10.24 6.144-21.504 35.84-21.504 35.84s-10.24-31.744-19.456-35.84c-10.24-4.096-38.912 10.24-38.912 10.24s13.312-29.696 10.24-38.912c-3.072-7.168-35.84-19.456-35.84-19.456zM373.76 381.696c21.504 0 38.912-17.408 38.912-38.912s-17.408-38.912-38.912-38.912c-21.504 0-38.912 17.408-38.912 38.912s17.408 38.912 38.912 38.912zM452.608 80.64c0-17.408-15.36-33.792-33.792-33.792h-96.256c-15.36 0-27.648 12.288-27.648 27.648 0 13.312 12.288 25.6 25.6 27.648 4.096 15.36 17.408 25.6 35.84 23.552 8.192 12.288 19.456 17.408 33.792 17.408 17.408 0 35.84-13.312 37.888-31.744 13.312-3.072 24.576-15.36 24.576-30.72z" />
<glyph unicode="&#xe61d;" d="M512 178.944c-4.096-15.36-21.504-43.008-59.392-51.2v-119.808c0-21.504-17.408-38.912-38.912-38.912h-315.392c-21.504 0-38.912 17.408-38.912 38.912v119.808c-35.84 8.192-53.248 35.84-59.392 51.2-4.096 10.24 2.048 21.504 13.312 23.552 10.24 4.096 21.504-2.048 23.552-13.312 0-2.048 6.144-15.36 19.456-21.504v56.32c-12.288 0-19.456 8.192-19.456 19.456 0 12.288 8.192 19.456 19.456 19.456h394.24c12.288 0 19.456-8.192 19.456-19.456 0-12.288-8.192-19.456-19.456-19.456v-55.296c15.36 6.144 19.456 19.456 19.456 21.504 4.096 10.24 13.312 15.36 23.552 13.312 14.336-3.072 20.48-15.36 18.432-24.576zM25.6 298.752c0 12.288 6.144 21.504 17.408 21.504v0 0c19.456 2.048 27.648 12.288 35.84 25.6 10.24 12.288 17.408 21.504 35.84 25.6l59.392 8.192v11.264c-2.048 21.504 12.288 40.96 33.792 43.008l37.888 7.168c10.24 2.048 19.456 0 27.648-8.192 8.192-6.144 13.312-15.36 15.36-25.6l2.048-13.312 59.392 8.192c19.456 2.048 29.696-4.096 40.96-13.312s21.504-17.408 40.96-13.312v0 0c12.288 2.048 21.504-6.144 21.504-17.408 2.048-10.24-6.144-21.504-17.408-21.504l-389.12-55.296c-11.264 0-19.456 7.168-21.504 17.408zM212.992 383.744l38.912 6.144-2.048 13.312-38.912-6.144 2.048-13.312z" />
<glyph unicode="&#xe61e;" d="M512 217.856c0-21.504 0-171.008 0-171.008h-78.848c0 0 0 149.504 0 161.792s-38.912 70.656-38.912 70.656v-272.384h-276.48v274.432c0 0-38.912-59.392-38.912-70.656s0-163.84 0-163.84h-78.848c0 0 0 149.504 0 171.008 0 19.456 47.104 121.856 51.2 143.36 13.312 51.2 66.56 78.848 66.56 78.848l78.848 19.456c0 0 19.456-45.056 59.392-45.056s59.392 45.056 59.392 45.056l78.848-19.456c0 0 53.248-27.648 66.56-78.848 4.096-21.504 51.2-123.904 51.2-143.36z" />
<glyph unicode="&#xe61f;" d="M256 475.904c-140.288 0-251.904-111.616-251.904-251.904s112.64-251.904 251.904-251.904 251.904 112.64 251.904 251.904-111.616 251.904-251.904 251.904zM427.008 98.048l-2.048 21.504-80.896-17.408-40.96-70.656 19.456-10.24c-21.504-8.192-43.008-12.288-66.56-12.288s-45.056 4.096-66.56 12.288l19.456 10.24-40.96 70.656-80.896 17.408-2.048-21.504c-25.6 35.84-40.96 78.848-40.96 125.952 0 0 0 0 0 2.048l15.36-17.408 53.248 61.44-8.192 82.944-21.504-4.096c25.6 37.888 63.488 64.512 108.544 78.848l-12.288-19.456 76.8-31.744 74.752 31.744-12.288 19.456c43.008-13.312 80.896-40.96 108.544-78.848l-21.504 4.096-8.192-82.944 53.248-61.44 15.36 15.36c0 0 0 0 0-2.048 3.072-45.056-13.312-88.064-38.912-123.904zM256 308.992l89.088-64.512-33.792-104.448h-110.592l-33.792 104.448 89.088 64.512z" />
<glyph unicode="&#xe620;" d="M480.256 339.712c13.312-40.96 37.888-98.304 29.696-136.192-8.192-40.96-29.696-47.104-43.008-53.248-13.312-6.144-31.744-6.144-40.96 0-13.312 8.192-31.744-6.144-37.888 6.144-8.192 12.288 2.048 13.312 4.096 19.456 0 0-15.36 2.048-23.552 10.24-6.144 6.144-10.24 15.36-6.144 27.648 8.192 21.504 31.744 19.456 37.888 12.288 6.144-6.144 12.288-13.312 12.288-13.312l8.192-4.096c0 0 38.912 51.2 53.248 132.096-29.696-10.24-64.512-17.408-64.512-17.408s-10.24-2.048-19.456 0c-19.456 6.144-23.552-35.84-38.912-63.488-15.36-25.6-40.96-43.008-100.352-51.2-25.6-4.096-47.104-21.504-68.608-33.792-23.552-47.104-84.992-106.496-159.744-115.712h-5.12c-6.144 0-12.288 6.144-13.312 12.288-2.048 8.192 4.096 13.312 12.288 15.36 49.152 6.144 90.112 37.888 115.712 68.608-25.6-4.096-57.344 0-90.112 37.888 6.144 2.048 70.656 12.288 87.040 33.792-58.368 14.336-105.472 75.776-107.52 109.568 8.192 0 23.552 8.192 29.696 13.312-17.408 23.552-17.408 57.344-6.144 80.896 4.096-8.192 31.744-27.648 43.008-27.648-4.096 33.792 27.648 53.248 38.912 55.296-4.096-98.304 55.296-102.4 63.488-138.24 13.312 0 29.696 53.248 10.24 80.896 12.288 4.096 17.408 4.096 21.504 4.096-4.096 17.408-23.552 33.792-23.552 33.792s72.704 4.096 72.704-63.488c0-51.2-19.456-47.104-15.36-74.752 4.096-19.456 15.36-37.888 37.888-37.888 37.888 0 51.2 33.792 38.912 55.296-6.144 12.288-13.312 21.504-12.288 37.888 0 17.408 13.312 27.648 29.696 27.648 27.648 0 31.744-21.504 31.744-21.504s90.112 6.144 132.096-8.192c-6.144-6.144-17.408-10.24-33.792-14.336z" />
<glyph unicode="&#xe621;" d="M373.76 204.544c0-49.152 19.456-104.448 19.456-202.752 0-21.504-17.408-33.792-38.912-33.792-21.504 0-38.912 12.288-38.912 33.792v448.512c0 15.36 4.096 29.696 19.456 29.696 21.504 0 78.848-53.248 78.848-117.76 0-106.496-39.936-134.144-39.936-157.696zM217.088 480c0 0 0-125.952 0-128 0-6.144-4.096-10.24-10.24-10.24s-10.24 4.096-10.24 10.24c0 2.048-6.144 128-6.144 128h-26.624c0 0-6.144-125.952-6.144-128 0-6.144-4.096-10.24-10.24-10.24s-10.24 4.096-10.24 10.24c0 2.048 0 128 0 128h-19.456c0 0-19.456-138.24-19.456-157.696s43.008-59.392 43.008-59.392l-4.096-262.144c0-21.504 17.408-33.792 38.912-33.792s38.912 12.288 38.912 33.792l-4.096 262.144c0 0 43.008 38.912 43.008 59.392s-17.408 157.696-17.408 157.696h-19.456z" />
<glyph unicode="&#xe622;" d="M498.688 166.656l-25.6-12.288c0-37.888 0-70.656 0-70.656 0-47.104-49.152-115.712-117.76-115.712h-197.632c-68.608 0-118.784 68.608-118.784 115.712 0 0 0 33.792 0 70.656l-25.6 12.288c-10.24 4.096-15.36 15.36-10.24 25.6 4.096 10.24 15.36 15.36 25.6 10.24l10.24-4.096c0 4.096 0 10.24 0 13.312 0 55.296-37.888 47.104-37.888 53.248 0 13.312 4.096 37.888 37.888 37.888h433.152c33.792 0 37.888-23.552 37.888-37.888 0-8.192-37.888 0-37.888-53.248 0-4.096 0-10.24 0-13.312l12.288 4.096c10.24 4.096 21.504 0 25.6-10.24 4.096-9.216-2.048-21.504-11.264-25.6zM38.912 322.304c0 0 40.96 35.84 119.808 55.296 8.192 47.104 47.104 82.944 96.256 82.944s89.088-35.84 96.256-82.944c78.848-17.408 119.808-55.296 119.808-55.296h-432.128zM202.752 385.792c15.36 2.048 33.792 4.096 53.248 4.096s37.888-2.048 53.248-4.096c-8.192 21.504-29.696 35.84-53.248 35.84s-45.056-14.336-53.248-35.84z" />
<glyph unicode="&#xe623;" d="M488.448 349.952c4.096 6.144 6.144 13.312 2.048 21.504-4.096 6.144-10.24 10.24-17.408 10.24h-221.184c-13.312 57.344-62.464 98.304-123.904 98.304-70.656 0-128-57.344-128-128s57.344-128 128-128c23.552 0 43.008 6.144 63.488 17.408l84.992-102.4v-115.712c-37.888-8.192-115.712-29.696-115.712-55.296h271.36c0 25.6-78.848 45.056-115.712 55.296v115.712l172.032 210.944zM399.36 302.848h-163.84l80.896-98.304-21.504-27.648-135.168 164.864h271.36l-31.744-38.912zM165.888 381.696c12.288 12.288 21.504 23.552 23.552 35.84 10.24-10.24 17.408-21.504 23.552-35.84h-47.104zM168.96 430.848c-13.312-8.192-25.6-31.744-33.792-49.152h-13.312c-7.168 17.408-19.456 43.008-32.768 49.152 12.288 6.144 25.6 10.24 38.912 10.24 15.36 0 27.648-4.096 40.96-10.24zM68.608 418.56c0-13.312 17.408-33.792 31.744-45.056l-2.048-2.048c0-6.144 0-10.24 0-15.36-21.504-2.048-53.248-8.192-59.392-21.504 0 6.144 0 12.288 0 17.408 0 25.6 12.288 49.152 29.696 66.56zM45.056 320.256c14.336-11.264 47.104 6.144 67.584 18.432l8.192-10.24c-6.144-21.504-12.288-59.392 4.096-64.512-37.888 1.024-67.584 24.576-79.872 56.32zM136.192 262.912c8.192 4.096 10.24 17.408 10.24 33.792l21.504-25.6c-10.24-4.096-22.528-6.144-31.744-8.192z" />
<glyph unicode="&#xe624;" d="M460.8 362.24c-13.312 51.2-66.56 78.848-66.56 78.848l-59.392 13.312-19.456 25.6-59.392-100.352-59.392 100.352-19.456-25.6-59.392-13.312c0 0-53.248-27.648-66.56-78.848-4.096-21.504-51.2-123.904-51.2-143.36 0-21.504 0-171.008 0-171.008h78.848c0 0 0 149.504 0 161.792s38.912 70.656 38.912 70.656v-312.32h275.456v313.344c0 0 38.912-59.392 38.912-70.656s0-161.792 0-161.792h79.872c0 0 0 149.504 0 171.008 0 17.408-47.104 119.808-51.2 142.336zM196.608 64.256c-12.288 0-21.504 10.24-21.504 21.504s10.24 21.504 21.504 21.504 21.504-10.24 21.504-21.504-9.216-21.504-21.504-21.504zM196.608 162.56c-12.288 0-21.504 10.24-21.504 21.504s10.24 21.504 21.504 21.504 21.504-10.24 21.504-21.504-9.216-21.504-21.504-21.504zM196.608 261.888c-12.288 0-21.504 10.24-21.504 21.504s10.24 21.504 21.504 21.504 21.504-10.24 21.504-21.504-9.216-21.504-21.504-21.504zM315.392 64.256c-12.288 0-21.504 10.24-21.504 21.504s10.24 21.504 21.504 21.504 21.504-10.24 21.504-21.504-10.24-21.504-21.504-21.504zM315.392 162.56c-12.288 0-21.504 10.24-21.504 21.504s10.24 21.504 21.504 21.504 21.504-10.24 21.504-21.504-10.24-21.504-21.504-21.504zM315.392 261.888c-12.288 0-21.504 10.24-21.504 21.504s10.24 21.504 21.504 21.504 21.504-10.24 21.504-21.504-10.24-21.504-21.504-21.504z" />
<glyph unicode="&#xe625;" d="M275.456-32h-59.392v218.112c-78.848 10.24-138.24 59.392-138.24 128 0 92.16 82.944 125.952 82.944 125.952-4.096-33.792 8.192-78.848 15.36-98.304 0 89.088 51.2 117.76 68.608 138.24v0 0c17.408-19.456 68.608-49.152 68.608-138.24 8.192 19.456 19.456 64.512 15.36 98.304 0 0 82.944-35.84 82.944-125.952 0-68.608-59.392-117.76-138.24-128v-119.808c23.552 63.488 138.24 161.792 232.448 175.104 23.552-224.256-143.36-271.36-230.4-273.408zM2.048 241.408c0 0-4.096-80.896 15.36-147.456 23.552-76.8 93.184-125.952 179.2-125.952v106.496c-62.464 110.592-194.56 166.912-194.56 166.912z" />
<glyph unicode="&#xe626;" d="M492.544 46.848c-12.288 0-19.456-8.192-19.456-19.456s-8.192-19.456-19.456-19.456c-35.84 0-57.344 23.552-68.608 43.008 74.752 8.192 108.544 33.792 108.544 38.912 0 66.56-47.104 102.4-112.64 102.4-29.696 0-100.352 40.96-119.808 90.112-15.36 35.84-5.12 138.24-5.12 169.984 0 12.288-15.36 27.648-47.104 27.648-29.696 0-51.2-13.312-51.2-38.912-35.84 0-98.304-19.456-98.304-78.848 0-15.36 0-72.704 0-90.112 0-63.488-19.456-87.040-19.456-165.888 0-19.456 4.096-33.792 4.096-33.792s13.312-6.144 53.248-6.144c-10.24-38.912-43.008-59.392-76.8-59.392-12.288 0-19.456-8.192-19.456-19.456s7.168-19.456 18.432-19.456h433.152c33.792 0 59.392 25.6 59.392 59.392 0 11.264-8.192 19.456-19.456 19.456zM315.392 185.088c12.288 0 19.456-8.192 19.456-19.456s-8.192-19.456-19.456-19.456-19.456 8.192-19.456 19.456 7.168 19.456 19.456 19.456zM256 224c12.288 0 19.456-8.192 19.456-19.456s-8.192-19.456-19.456-19.456-19.456 8.192-19.456 19.456 7.168 19.456 19.456 19.456zM236.544 262.912c0-12.288-8.192-19.456-19.456-19.456s-19.456 8.192-19.456 19.456 8.192 19.456 19.456 19.456 19.456-7.168 19.456-19.456zM196.608 362.24c12.288 0 19.456-8.192 19.456-19.456s-8.192-19.456-19.456-19.456-19.456 8.192-19.456 19.456 8.192 19.456 19.456 19.456zM136.192 64.256c108.544-4.096 132.096-17.408 192.512-17.408 4.096 0 8.192 0 12.288 0 4.096-10.24 13.312-25.6 25.6-38.912h-258.048c13.312 15.36 23.552 34.816 27.648 56.32z" />
<glyph unicode="&#xe627;" d="M443.392 362.24c-6.144 0-10.24 0-13.312-2.048-43.008 55.296-106.496 80.896-175.104 80.896-107.52 0-209.92-167.936-217.088-300.032-12.288-6.144-21.504-15.36-25.6-29.696-4.096-12.288-10.24-49.152-12.288-61.44-4.096-21.504 8.192-37.888 27.648-43.008 4.096 0 78.848-19.456 187.392-19.456 94.208 0 161.792 13.312 187.392 19.456 12.288 2.048 19.456 10.24 25.6 17.408 4.096 6.144 6.144 15.36 4.096 27.648-2.048 4.096-4.096 17.408-6.144 29.696-2.048 15.36-4.096 25.6-6.144 29.696-2.048 8.192-8.192 27.648-33.792 31.744-59.392 143.36-47.104 175.104-8.192 168.96-2.048-4.096-4.096-12.288-4.096-19.456 0-37.888 31.744-68.608 68.608-68.608s68.608 31.744 68.608 68.608-30.72 69.632-67.584 69.632zM217.088 27.392c-96.256 0-163.84 15.36-177.152 19.456 2.048 13.312 8.192 47.104 10.24 57.344 0 0 2.048 4.096 4.096 4.096 4.096 0 12.288-2.048 19.456-4.096 27.648-8.192 70.656-17.408 143.36-17.408 74.752 0 119.808 10.24 145.408 15.36 6.144 2.048 13.312 4.096 17.408 4.096 2.048 0 2.048 0 2.048 0s0-2.048 2.048-4.096c2.048-4.096 4.096-15.36 4.096-25.6 2.048-12.288 4.096-23.552 6.144-29.696-20.48-6.144-87.040-19.456-177.152-19.456zM443.392 262.912c-15.36 0-29.696 13.312-29.696 29.696s13.312 29.696 29.696 29.696 29.696-13.312 29.696-29.696-14.336-29.696-29.696-29.696z" />
<glyph unicode="&#xe628;" d="M38.912 302.848h177.152v-138.24h-216.064v98.304c0 22.528 17.408 39.936 38.912 39.936zM0 6.912c0-21.504 17.408-38.912 38.912-38.912h177.152v138.24h-216.064v-99.328zM473.088 302.848h-178.176v-138.24h217.088v98.304c0 22.528-17.408 39.936-38.912 39.936zM294.912-32h177.152c21.504 0 38.912 17.408 38.912 38.912v98.304h-216.064v-137.216zM294.912 362.24v2.048c57.344 11.264 89.088 74.752 114.688 43.008 31.744-38.912-108.544-84.992-108.544-84.992h49.152c37.888 0 185.344 47.104 92.16 140.288-25.6 25.6-63.488 19.456-76.8-8.192-17.408-33.792-35.84-61.44-70.656-84.992-6.144 8.192-12.288 12.288-19.456 12.288h-38.912c-8.192 0-13.312-4.096-17.408-10.24-33.792 21.504-53.248 51.2-70.656 82.944-13.312 27.648-51.2 33.792-76.8 8.192-92.16-92.16 57.344-140.288 92.16-140.288h49.152c0 0-141.312 45.056-108.544 84.992 25.6 31.744 55.296-31.744 112.64-43.008v-21.504c0-12.288 8.192-19.456 19.456-19.456h38.912c12.288 0 19.456 8.192 19.456 19.456v19.456z" />
<glyph unicode="&#xe629;" d="M433.152 334.592c0 6.144 0 10.24 0 15.36 0 0 0 0 0 2.048-4.096 33.792-17.408 63.488-40.96 87.040-4.096 4.096-10.24 10.24-15.36 13.312-2.048 0-2.048 2.048-4.096 2.048-6.144 2.048-12.288 6.144-17.408 10.24v0 0c-10.24 6.144-19.456 10.24-31.744 12.288v0 0c-6.144 1.024-10.24 1.024-16.384 3.072h-2.048c-6.144 0-12.288 0-17.408 0-6.144 0-10.24 0-15.36 0v0c-6.144 0-10.24-2.048-15.36-2.048v0 0c-12.288-2.048-21.504-6.144-31.744-10.24v0 0c-8.192-4.096-15.36-8.192-21.504-12.288v0c-6.144-4.096-13.312-10.24-19.456-15.36v0 0c-8.192-8.192-8.192-21.504 0-29.696s21.504-21.504 29.696-29.696c1.024-1.024 3.072-3.072 4.096-3.072s4.096-2.048 6.144-2.048c0 0 0 0 2.048 0v0c4.096 0 10.24 2.048 13.312 6.144v0 0c0 0 0 0 2.048 0v0 0c8.192 8.192 17.408 13.312 29.696 15.36v0c2.048 0 2.048 0 4.096 0v0c4.096 0 10.24 2.048 13.312 2.048 8.192 0 15.36-2.048 23.552-4.096v0c2.048-2.048 6.144-2.048 8.192-4.096 0 0 0 0 2.048 0 2.048-2.048 6.144-4.096 8.192-6.144v0c2.048-2.048 4.096-2.048 6.144-4.096 8.192-8.192 13.312-19.456 17.408-29.696 0-2.048 0-4.096 2.048-8.192 0-2.048 0-6.144 0-8.192 0-8.192-2.048-17.408-4.096-23.552-2.048-2.048-2.048-4.096-4.096-8.192 0-2.048-2.048-2.048-2.048-4.096v0c-2.048-4.096-4.096-6.144-8.192-10.24l-256-256c-2.048-2.048-4.096-6.144-4.096-8.192s0-4.096-2.048-6.144c0-2.048 0-2.048 0-4.096 0-2.048 0-2.048 0-4.096v-2.048c0-2.048 2.048-4.096 4.096-6.144 8.192-8.192 21.504-21.504 29.696-29.696 2.048-2.048 4.096-4.096 6.144-4.096-2.048-4.096 0-4.096 4.096-4.096 6.144 0 10.24 2.048 13.312 6.144l253.952 253.952c27.648 27.648 40.96 61.44 43.008 100.352v0c3.072 8.192 3.072 8.192 3.072 10.24zM236.544 405.248l-6.144 37.888c10.24 6.144 19.456 10.24 31.744 12.288l6.144-36.864c-12.288-2.048-24.576-7.168-31.744-13.312zM289.792 420.608l21.504 33.792c12.288-2.048 21.504-6.144 31.744-10.24l-17.408-29.696c-12.288 4.096-24.576 6.144-35.84 6.144zM384 409.344c6.144-8.192 12.288-17.408 15.36-27.648l-30.72-14.336c-4.096 10.24-10.24 19.456-17.408 27.648l32.768 14.336zM356.352 230.144l-40.96 6.144 29.696 29.696 40.96-6.144c-4.096-4.096-6.144-8.192-10.24-12.288l-19.456-17.408zM313.344 186.112l-29.696-29.696-40.96 8.192 29.696 29.696 40.96-8.192zM140.288 13.056l-40.96 6.144 29.696 29.696 40.96-6.144-29.696-29.696zM212.992 85.76l-40.96 6.144 29.696 29.696 40.96-6.144-29.696-29.696zM405.504 300.8l-35.84 6.144c2.048 8.192 4.096 17.408 4.096 27.648 0 2.048 0 4.096 0 4.096l35.84-6.144c0-10.24-2.048-19.456-4.096-31.744z" />
<glyph unicode="&#xe62a;" d="M450.56 385.792c0 13.312-4.096 25.6-12.288 35.84 4.096 2.048 6.144 4.096 8.192 8.192 6.144 12.288 2.048 25.6-8.192 31.744-8.192 4.096-15.36 4.096-21.504 0-1.024 8.192-11.264 18.432-22.528 18.432s-19.456-8.192-21.504-17.408c-6.144 2.048-13.312 4.096-19.456 0-12.288-6.144-17.408-19.456-12.288-31.744 2.048-4.096 6.144-8.192 10.24-10.24-40.96-45.056-31.744-157.696-119.808-157.696-123.904 0-185.344 57.344-196.608 72.704-10.24 10.24-13.312 6.144-13.312-13.312 0-31.744 21.504-72.704 49.152-78.848-15.36 0-25.6-2.048-35.84-12.288-7.168-5.12-3.072-7.168 1.024-7.168 8.192-2.048 17.408-8.192 25.6-15.36-17.408-4.096-23.552-10.24-27.648-15.36-2.048-4.096-2.048-4.096 4.096-6.144 10.24-4.096 17.408-12.288 23.552-21.504 15.36-27.648 43.008-76.8 108.544-76.8 130.048 0 141.312 128 141.312 128s2.048-151.552-143.36-151.552c19.456-8.192 43.008-13.312 70.656-15.36v-23.552c-19.456-6.144-31.744-17.408-37.888-27.648s-2.048-21.504 8.192-27.648c10.24-6.144 21.504-2.048 27.648 8.192 0 0 6.144 10.24 21.504 10.24s21.504-10.24 21.504-10.24c4.096-6.144 10.24-10.24 17.408-10.24 4.096 0 6.144 0 10.24 2.048 10.24 6.144 13.312 17.408 8.192 27.648-4.096 8.192-17.408 21.504-37.888 27.648v21.504c0 0 0 0 0 2.048 63.488 6.144 155.648 43.008 155.648 141.312 0 51.2-13.312 74.752-13.312 108.544 0 25.6 13.312 38.912 19.456 45.056 2.048 2.048 17.408 4.096 35.84-4.096-1.024 28.672-24.576 38.912-24.576 45.056zM424.96 381.696c-4.096 0-8.192 4.096-8.192 8.192s4.096 8.192 8.192 8.192c4.096 0 8.192-4.096 8.192-8.192s-4.096-8.192-8.192-8.192z" />
<glyph unicode="&#xe62b;" d="M447.488 48.896l-27.648 98.304c4.096 2.048 8.192 6.144 12.288 8.192 31.744 29.696 37.888 87.040 21.504 140.288-2.048 4.096-2.048 8.192-4.096 12.288v0c-13.312 45.056-40.96 115.712-40.96 115.712l-159.744-40.96c0 0 2.048-6.144 4.096-15.36l-146.432 37.888c0 0-25.6-70.656-38.912-114.688 0-2.048 0-2.048-2.048-4.096-2.048-4.096-2.048-6.144-2.048-10.24 0 0 0 0 0-2.048-6.144-21.504-8.192-43.008-8.192-63.488 2.048-37.888 13.312-68.608 40.96-87.040l-27.648-98.304c-35.84 6.144-57.344-4.096-61.44-17.408l141.312-38.912c4.096 15.36-10.24 33.792-43.008 47.104l27.648 98.304h2.048c2.048 0 6.144 0 8.192 0h2.048c2.048 0 4.096 0 6.144 2.048h2.048c2.048 0 4.096 2.048 6.144 2.048 0 0 2.048 0 2.048 2.048 6.144 4.096 8.192 4.096 10.24 6.144 0 0 2.048 0 2.048 2.048 2.048 2.048 4.096 2.048 6.144 4.096 0 0 2.048 0 2.048 2.048 2.048 2.048 6.144 4.096 8.192 6.144v0c2.048 2.048 6.144 6.144 8.192 8.192v0c2.048 2.048 4.096 6.144 8.192 8.192l2.048 2.048c2.048 2.048 4.096 4.096 6.144 8.192 0 2.048 2.048 2.048 2.048 4.096 2.048 2.048 2.048 4.096 4.096 8.192 0 2.048 2.048 2.048 2.048 4.096 2.048 2.048 2.048 4.096 4.096 8.192 0 2.048 2.048 2.048 2.048 4.096 2.048 2.048 2.048 6.144 4.096 8.192 0 2.048 2.048 2.048 2.048 4.096 2.048 2.048 2.048 6.144 4.096 8.192 0 2.048 0 2.048 2.048 4.096 2.048 4.096 2.048 8.192 4.096 12.288 2.048 4.096 2.048 10.24 4.096 15.36v0c2.048 6.144 2.048 12.288 4.096 17.408v0c4.096 19.456 10.24 43.008 13.312 61.44v0 0c0-2.048 0-2.048 0-4.096v-2.048c2.048-13.312 6.144-27.648 8.192-38.912 0-2.048 0-2.048 2.048-4.096 2.048-4.096 2.048-8.192 4.096-12.288 0-4.096 2.048-6.144 2.048-8.192 0-2.048 0-2.048 0-4.096 0-2.048 2.048-4.096 2.048-8.192 0-2.048 0-2.048 2.048-4.096 0-2.048 2.048-4.096 2.048-6.144s2.048-4.096 2.048-4.096c0-2.048 2.048-4.096 2.048-6.144s2.048-4.096 2.048-4.096c0-2.048 2.048-4.096 4.096-6.144 0-2.048 2.048-4.096 2.048-4.096 2.048-2.048 2.048-4.096 4.096-6.144 0-2.048 2.048-2.048 2.048-4.096 2.048-2.048 2.048-4.096 4.096-6.144 0-2.048 2.048-2.048 2.048-4.096 2.048-2.048 2.048-4.096 4.096-6.144 2.048-2.048 2.048-2.048 4.096-4.096 2.048-2.048 4.096-4.096 6.144-8.192 2.048-2.048 4.096-4.096 4.096-4.096 2.048-2.048 2.048-2.048 4.096-4.096 2.048-2.048 2.048-2.048 4.096-4.096 2.048-2.048 2.048-2.048 4.096-2.048 2.048-2.048 2.048-2.048 4.096-2.048 2.048 0 2.048-2.048 4.096-2.048 2.048 0 4.096-2.048 4.096-2.048 2.048 0 2.048-2.048 4.096-2.048 2.048 0 4.096-2.048 4.096-2.048 2.048 0 2.048 0 4.096-2.048 2.048 0 4.096 0 6.144-2.048 2.048 0 2.048 0 4.096 0 2.048 0 4.096 0 6.144 0s2.048 0 4.096 0v0 0l27.648-98.304c-33.792-13.312-47.104-33.792-43.008-47.104l141.312 38.912c-12.288 8.192-33.792 18.432-68.608 12.288zM117.76 379.648l123.904-35.84c-2.048-12.288-6.144-27.648-8.192-43.008l-115.712-2.048c-34.816-100.352-25.6-138.24-19.456-149.504-27.648 23.552-31.744 74.752-17.408 119.808 2.048 8.192 6.144 19.456 10.24 31.744v0 0c9.216 29.696 21.504 61.44 26.624 78.848zM396.288 401.152c8.192-19.456 17.408-51.2 27.648-78.848h-118.784c27.648-151.552 49.152-155.648 49.152-155.648s0 0-2.048 0c-23.552 13.312-45.056 45.056-57.344 87.040-8.192 29.696-19.456 84.992-25.6 112.64l126.976 34.816zM179.2 405.248c-4.096 4.096-2.048 10.24 2.048 13.312 0 0 19.456 15.36 15.36 51.2 0 4.096 2.048 10.24 8.192 10.24 4.096 2.048 10.24 0 12.288-4.096 6.144-12.288 19.456-13.312 27.648-13.312 13.312 0 29.696 6.144 35.84 15.36 0 0 4.096 2.048 8.192 2.048 4.096-2.048 8.192-6.144 8.192-10.24 0-10.24 4.096-19.456 10.24-23.552 4.096-4.096 12.288-6.144 19.456-6.144 4.096 0 10.24-4.096 10.24-10.24 0-4.096-4.096-10.24-10.24-10.24-13.312-2.048-25.6 2.048-33.792 10.24-6.144 6.144-10.24 12.288-12.288 17.408-10.24-4.096-23.552-8.192-37.888-8.192-10.24 0-17.408 2.048-25.6 6.144-4.096-29.696-21.504-43.008-23.552-43.008-2.048-2.048-4.096-2.048-6.144-2.048-4.096 1.024-6.144 3.072-8.192 5.12z" />
<glyph unicode="&#xe62c;" d="M256 480c-141.312 0-256-114.688-256-256s114.688-256 256-256 256 114.688 256 256-114.688 256-256 256zM256 6.912c-119.808 0-217.088 97.28-217.088 217.088s97.28 217.088 217.088 217.088 217.088-97.28 217.088-217.088-97.28-217.088-217.088-217.088zM125.952 249.6l-53.248 10.24c13.312 74.752 72.704 134.144 147.456 147.456l10.24-53.248c-53.248-10.24-94.208-51.2-104.448-104.448zM439.296 188.16c-13.312-74.752-72.704-134.144-147.456-147.456l-10.24 53.248c53.248 10.24 94.208 51.2 104.448 104.448l53.248-10.24zM352.256 224c0 53.248-43.008 96.256-96.256 96.256s-96.256-43.008-96.256-96.256 43.008-96.256 96.256-96.256 96.256 43.008 96.256 96.256zM256 200.448c-13.312 0-23.552 10.24-23.552 23.552s10.24 23.552 23.552 23.552 23.552-10.24 23.552-23.552-10.24-23.552-23.552-23.552z" />
<glyph unicode="&#xe62d;" d="M450.56 281.344c0-94.208-74.752-102.4-74.752-102.4s-21.504-92.16-35.84-145.408c-6.144-23.552-15.36-61.44-31.744-61.44-12.288 0-13.312 23.552-12.288 61.44 2.048 40.96 6.144 76.8-17.408 76.8-17.408 0-23.552-45.056-33.792-100.352-4.096-23.552-10.24-37.888-17.408-37.888-8.192 0-12.288 19.456-15.36 40.96-2.048 19.456-6.144 47.104-10.24 89.088-4.096 38.912-12.288 47.104-23.552 47.104-21.504 0-19.456-100.352-25.6-149.504-2.048-15.36-8.192-25.6-13.312-25.6-6.144 0-10.24 6.144-15.36 17.408-6.144 14.336-47.104 167.936-47.104 242.688 0 38.912 17.408 68.608 17.408 68.608s-21.504 13.312-21.504 64.512c0 71.68 63.488 108.544 119.808 108.544s74.752-31.744 82.944-40.96c13.312-13.312 4.096-43.008-17.408-23.552-13.312 12.288-25.6 25.6-66.56 25.6-33.792 0-64.512-31.744-64.512-66.56 0-25.6 12.288-31.744 12.288-31.744s25.6 21.504 59.392 21.504c25.6 0 49.152-10.24 49.152-10.24s-53.248-155.648 98.304-168.96c-27.648 8.192-68.608 37.888-68.608 100.352s23.552 82.944 23.552 82.944l31.744-49.152c0 0 17.408 6.144 31.744 6.144 15.36 0 35.84-6.144 35.84-6.144l43.008 45.056c2.048 0 7.168-35.84 7.168-78.848z" />
<glyph unicode="&#xe62e;" d="M503.808 271.104c-4.096 0-4.096 2.048-4.096-2.048 0-8.192 0-17.408-8.192-23.552-6.144-4.096-12.288-4.096-17.408 2.048-6.144 4.096-10.24 13.312-13.312 19.456 4.096-8.192 0-23.552-8.192-31.744-12.288-12.288-19.456 13.312-21.504 21.504-2.048-8.192-10.24-8.192-12.288-2.048-4.096 6.144-6.144 13.312-4.096 19.456-6.144-4.096-10.24-8.192-15.36 0-4.096 6.144 0 12.288-4.096 17.408 0-2.048 0-2.048-2.048-4.096-4.096 0-8.192 4.096-10.24 6.144-13.312 10.24-38.912 0-53.248-8.192-2.048 0-2.048-2.048-4.096-2.048 38.912-43.008 51.2-98.304 37.888-112.64 0 0-13.312-10.24-35.84-23.552-3.072 0-20.48 35.84-44.032 35.84 17.408-17.408 21.504-45.056 19.456-51.2-12.288-17.408-68.608-55.296-82.944-53.248-13.312 2.048-13.312 25.6-40.96 35.84 10.24-17.408 25.6-45.056 17.408-49.152-81.92-50.176-173.056-99.328-186.368-84.992-15.36 15.36 96.256 218.112 106.496 220.16 10.24 2.048 43.008-2.048 74.752-25.6-19.456 40.96-49.152 49.152-55.296 59.392-6.144 10.24 66.56 104.448 68.608 104.448 15.36 15.36 68.608 4.096 112.64-37.888 0 2.048 2.048 2.048 2.048 4.096 8.192 13.312 17.408 38.912 8.192 53.248-2.048 4.096-6.144 6.144-6.144 10.24 2.048 0 2.048 2.048 4.096 2.048-4.096 4.096-12.288 0-15.36 4.096-6.144 6.144-4.096 10.24 0 15.36-6.144-2.048-13.312 0-19.456 4.096s-6.144 12.288 2.048 12.288c-8.192 2.048-33.792 10.24-21.504 21.504 6.144 8.192 21.504 10.24 31.744 8.192-6.144 3.072-15.36 6.144-21.504 12.288-10.24 0-10.24 6.144-6.144 12.288 6.144 8.192 13.312 8.192 23.552 8.192 6.144 0 2.048 2.048 2.048 4.096 2.048 4.096 8.192-2.048 12.288-4.096 0 0 2.048 0 2.048-2.048 10.24-8.192 2.048 4.096 6.144 6.144 4.096 4.096 12.288-6.144 15.36-10.24 4.096-6.144 8.192-12.288 8.192-17.408 0 2.048 0 8.192 4.096 8.192s8.192-8.192 8.192-10.24c4.096-6.144 6.144-12.288 8.192-17.408 2.048-6.144 0-10.24 2.048-15.36 1.024 1.024 1.024 3.072 3.072 5.12 8.192-6.144 4.096-31.744-2.048-37.888 4.096 2.048 6.144 4.096 6.144-2.048 0-4.096-2.048-8.192-2.048-12.288-4.096-12.288-8.192-23.552-13.312-33.792 31.744 40.96 29.696 63.488 38.912 74.752 4.096 6.144 12.288 6.144 15.36 2.048-2.048 8.192-2.048 15.36 2.048 21.504 4.096 8.192 15.36 12.288 19.456 2.048 0 8.192 0 15.36 6.144 23.552 2.048 2.048 8.192 6.144 12.288 4.096s8.192-6.144 6.144-10.24c10.24 10.24 19.456 15.36 31.744 6.144 8.192-8.192 8.192-21.504 0-29.696 0 4.096 2.048-2.048 2.048-4.096 0-4.096-2.048-8.192-6.144-12.288-6.144-6.144-15.36-8.192-25.6-10.24 4.096 0 10.24 0 12.288-4.096 2.048-4.096 0-10.24-4.096-13.312-4.096-6.144-12.288-6.144-19.456-8.192-6.144 0-10.24-2.048-15.36-2.048 4.096-2.048 8.192-4.096 4.096-8.192-13.312-12.288-25.6 0-74.752-38.912 10.24 6.144 19.456 10.24 31.744 13.312 8.192 2.048 12.288 4.096 15.36 4.096 6.144 0 4.096-4.096 2.048-6.144 6.144 6.144 31.744 10.24 37.888 2.048-2.048-2.048-4.096-2.048-6.144-4.096 6.144 0 10.24 0 15.36-2.048s12.288-4.096 17.408-8.192c2.048-2.048 10.24-6.144 10.24-8.192 0-4.096-6.144-4.096-8.192-4.096 6.144-2.048 13.312-4.096 17.408-8.192 2.048-2.048 13.312-10.24 10.24-15.36-2.048-4.096-13.312 4.096-6.144-6.144 0 0 0 0 2.048-2.048-2.048 2.048 4.096-4.096 0-6.144z" />
<glyph unicode="&#xe62f;" d="M18274.304-28409.088v-509.952h-512v509.952h512zM384 62.208c-25.6 0-45.056-19.456-45.056-45.056s19.456-45.056 45.056-45.056c25.6 0 45.056 19.456 45.056 45.056s-19.456 45.056-45.056 45.056zM128 62.208c-25.6 0-45.056-19.456-45.056-45.056s19.456-45.056 45.056-45.056 45.056 19.456 45.056 45.056-19.456 45.056-45.056 45.056zM512 85.76v-38.912c0-12.288-8.192-19.456-19.456-19.456h-38.912c-4.096 33.792-33.792 61.44-68.608 61.44s-64.512-27.648-68.608-61.44h-119.808c-4.096 33.792-33.792 61.44-68.608 61.44s-64.512-27.648-68.608-61.44h-39.936c-12.288 0-19.456 8.192-19.456 19.456v98.304c0 12.288 8.192 19.456 19.456 19.456 0 0 19.456 0 31.744 0 17.408 0 17.408 0 31.744 19.456s51.2 66.56 51.2 66.56c2.048 6.144 12.288 12.288 23.552 12.288h138.24c12.288 0 23.552-6.144 29.696-12.288 0 0 37.888-45.056 53.248-64.512 17.408-21.504 17.408-21.504 35.84-21.504 77.824 0 97.28-58.368 97.28-78.848zM217.088 224h-53.248c-2.048 0-8.192-4.096-8.192-4.096l-40.96-55.296h102.4v59.392zM346.112 164.608l-43.008 53.248c-2.048 2.048-8.192 6.144-15.36 6.144h-31.744v-59.392h90.112z" />
<glyph unicode="&#xe630;" d="M138.24 381.696c13.312-45.056 130.048-336.896 157.696-373.76 0 0-96.256 31.744-112.64 37.888-17.408 6.144-55.296 173.056-55.296 173.056s-37.888-136.192-51.2-136.192c-15.36 5.12-76.8 23.552-76.8 23.552 29.696 28.672 112.64 239.616 138.24 275.456zM384 381.696c-27.648-12.288-155.648-29.696-226.304 0 40.96-115.712 130.048-336.896 157.696-373.76 0 0 149.504 35.84 196.608 78.848-61.44 68.608-94.208 251.904-128 294.912z" />
<glyph unicode="&#xe631;" d="M413.696 283.392c-15.36 0-27.648-2.048-38.912-6.144v45.056c0 12.288-8.192 19.456-19.456 19.456h-276.48c-12.288 0-19.456-8.192-19.456-19.456v-334.848c0-12.288 8.192-19.456 19.456-19.456h275.456c12.288 0 19.456 8.192 19.456 19.456v59.392c0 17.408 15.36 29.696 43.008 47.104 33.792 23.552 74.752 51.2 74.752 108.544 1.024 33.792-20.48 80.896-77.824 80.896zM396.288 127.744c-8.192-4.096-13.312-10.24-21.504-15.36v119.808c8.192 4.096 21.504 10.24 38.912 10.24 37.888 0 38.912-33.792 38.912-38.912 0-36.864-27.648-54.272-56.32-75.776zM294.912 364.288c-55.296 57.344 40.96 40.96 19.456 100.352 56.32-59.392-34.816-44.032-19.456-100.352zM217.088 364.288c-55.296 64.512 40.96 45.056 19.456 114.688 55.296-67.584-35.84-50.176-19.456-114.688zM138.24 364.288c-55.296 57.344 40.96 40.96 19.456 100.352 55.296-59.392-35.84-44.032-19.456-100.352z" />
<glyph unicode="&#xe632;" d="M452.608 381.696h-102.4c-10.24 33.792-49.152 59.392-94.208 59.392s-84.992-25.6-94.208-59.392h-102.4c-33.792 0-59.392-25.6-59.392-59.392v-294.912c0-33.792 25.6-59.392 59.392-59.392h394.24c33.792 0 59.392 25.6 59.392 59.392v294.912c-1.024 33.792-26.624 59.392-60.416 59.392zM217.088 125.696h78.848v-19.456c0-12.288-8.192-19.456-19.456-19.456h-38.912c-12.288 0-19.456 8.192-19.456 19.456v19.456zM256 401.152c21.504 0 40.96-8.192 51.2-19.456h-102.4c10.24 11.264 29.696 19.456 51.2 19.456zM38.912 322.304c0 12.288 8.192 19.456 19.456 19.456h394.24c12.288 0 19.456-8.192 19.456-19.456v-138.24c0-12.288-8.192-19.456-19.456-19.456h-157.696c0 12.288-8.192 19.456-19.456 19.456h-38.912c-12.288 0-19.456-8.192-19.456-19.456h-157.696c-12.288 0-19.456 8.192-19.456 19.456v138.24z" />
<glyph unicode="&#xe633;" d="M503.808 239.36l-138.24 92.16h8.192c4.096 0 8.192 2.048 10.24 8.192s0 8.192-4.096 12.288l-117.76 78.848c-4.096 2.048-8.192 2.048-12.288 0l-117.76-78.848c-4.096-4.096-4.096-8.192-4.096-12.288s6.144-8.192 10.24-8.192h8.192l-138.24-92.16c-8.192-4.096-10.24-13.312-8.192-21.504 4.096-8.192 12.288-13.312 19.456-13.312h29.696c10.24-8.192 27.648-19.456 59.392-19.456 21.504 0 37.888 10.24 49.152 21.504 12.288-12.288 27.648-21.504 49.152-21.504s37.888 10.24 49.152 21.504c12.288-12.288 27.648-21.504 49.152-21.504s37.888 10.24 49.152 21.504c12.288-12.288 27.648-21.504 49.152-21.504 12.288 0 21.504 2.048 29.696 4.096v-141.312h-117.76v114.688c-4.096 0-6.144 0-10.24 0-17.408 0-35.84 6.144-49.152 13.312-13.312-10.24-31.744-13.312-49.152-13.312s-35.84 4.096-49.152 13.312c-13.312-10.24-31.744-13.312-49.152-13.312-31.744 0-53.248 10.24-64.512 19.456h-5.12v-194.56c0-12.288 8.192-19.456 19.456-19.456h394.24c12.288 0 19.456 8.192 19.456 19.456v217.088h19.456c8.192 0 15.36 6.144 19.456 13.312 3.072 8.192-1.024 18.432-7.168 21.504zM217.088 66.304h-78.848v78.848h78.848v-78.848z" />
<glyph unicode="&#xe634;" d="M492.544 224h-33.792l-47.104 25.6c2.048 2.048 2.048 6.144 2.048 8.192v47.104c0 29.696-19.456 72.704-45.056 96.256 4.096 6.144 6.144 12.288 6.144 19.456v20.48c0 21.504-17.408 38.912-38.912 38.912h-79.872c-21.504 0-38.912-17.408-38.912-38.912v-19.456c0-6.144 2.048-12.288 4.096-15.36-15.36-13.312-29.696-35.84-37.888-63.488-2.048 0-4.096 0-6.144 0-64.512 0-114.688-51.2-117.76-117.76h-39.936c-11.264-1.024-19.456-9.216-19.456-20.48v-59.392c0-12.288 8.192-19.456 19.456-19.456h19.456v-19.456c0-2.048 38.912-117.76 38.912-117.76 6.144-10.24 10.24-19.456 19.456-19.456h315.392c12.288 0 15.36 8.192 19.456 19.456 0 0 38.912 115.712 38.912 117.76v19.456h19.456c12.288 0 19.456 8.192 19.456 19.456v59.392c2.048 11.264-6.144 19.456-17.408 19.456zM283.648 277.248l94.208-53.248h-151.552l57.344 53.248zM256 381.696c12.288 0 19.456 8.192 19.456 19.456s-7.168 19.456-19.456 19.456v20.48h78.848v-19.456c-12.288 0-19.456-8.192-19.456-19.456 0-10.24 8.192-19.456 17.408-19.456 12.288-6.144 40.96-49.152 40.96-76.8v-33.792l-84.992 47.104c-8.192 4.096-17.408 4.096-23.552-2.048l-8.192-8.192c-12.288 10.24-23.552 19.456-37.888 25.6 11.264 30.72 32.768 47.104 36.864 47.104zM177.152 302.848c19.456 0 38.912-8.192 53.248-21.504l-61.44-57.344h-70.656c4.096 45.056 35.84 78.848 78.848 78.848zM196.608 46.848c0-12.288-8.192-19.456-19.456-19.456s-19.456 8.192-19.456 19.456v78.848c0 12.288 8.192 19.456 19.456 19.456s19.456-8.192 19.456-19.456v-78.848zM275.456 46.848c0-12.288-8.192-19.456-19.456-19.456s-19.456 8.192-19.456 19.456v78.848c0 12.288 8.192 19.456 19.456 19.456s19.456-8.192 19.456-19.456v-78.848zM354.304 46.848c0-12.288-8.192-19.456-19.456-19.456s-19.456 8.192-19.456 19.456v78.848c0 12.288 8.192 19.456 19.456 19.456s19.456-8.192 19.456-19.456v-78.848z" />
<glyph unicode="&#xe635;" d="M264.192 480l-244.736-98.304v-268.288l256-145.408 217.088 147.456v266.24l-228.352 98.304zM273.408 13.056l-216.064 125.952v217.088l218.112-100.352v-240.64l-2.048-2.048zM287.744 271.104l-206.848 94.208 183.296 73.728 183.296-78.848-159.744-89.088zM163.84 271.104c0 2.048-2.048 2.048-2.048 4.096l-19.456 8.192c-2.048 0-2.048 0-4.096 0s-2.048-2.048-2.048-2.048l-40.96-119.808c0-2.048 0-4.096 2.048-6.144l15.36-10.24c2.048 0 2.048 0 4.096 0 0 0 2.048 0 2.048 2.048l10.24 31.744 37.888-19.456 13.312-51.2c0-2.048 2.048-2.048 2.048-4.096l17.408-10.24h2.048c2.048 0 6.144 2.048 6.144 4.096v2.048l-44.032 171.008zM159.744 190.208l-23.552 12.288 10.24 31.744c0 2.048 0 2.048 2.048 4.096 0-4.096 2.048-6.144 2.048-10.24l9.216-37.888zM307.2 387.84c15.36-6.144 23.552-10.24 27.648-12.288 2.048-2.048 2.048-4.096 2.048-4.096s-2.048-4.096-4.096-6.144l-10.24-4.096c-2.048 0-4.096 0-4.096 0-4.096 4.096-12.288 6.144-19.456 10.24-23.552 8.192-49.152 8.192-64.512 0-4.096-2.048-8.192-6.144-8.192-10.24 0-2.048 2.048-8.192 19.456-15.36 8.192-4.096 19.456-8.192 27.648-10.24 2.048 0 2.048-2.048 4.096-4.096s0-4.096 0-4.096l-4.096-6.144c0-2.048-2.048-2.048-4.096-2.048 0 0 0 0-2.048 0-8.192 2.048-21.504 6.144-35.84 13.312-19.456 10.24-29.696 19.456-29.696 29.696 0 6.144 2.048 13.312 15.36 21.504 19.456 15.36 56.32 15.36 90.112 4.096z" />
<glyph unicode="&#xe636;" d="M473.088 204.544v0 0c8.192-27.648 19.456-59.392 19.456-108.544s-49.152-89.088-108.544-89.088c-43.008 0-80.896 19.456-98.304 43.008-8.192-2.048-19.456-4.096-31.744-4.096s-21.504 2.048-31.744 4.096c-17.408-21.504-55.296-43.008-98.304-43.008-59.392 0-108.544 38.912-108.544 89.088 4.096 49.152 15.36 80.896 23.552 108.544v0 0 66.56c0 40.96-13.312 84.992-35.84 119.808-5.12 8.192-3.072 20.48 7.168 25.6 8.192 6.144 19.456 4.096 25.6-6.144 29.696-40.96 43.008-90.112 43.008-140.288v-66.56c0-2.048 0-2.048 0-2.048 84.992-12.288 145.408-66.56 155.648-112.64 6.144-2.048 13.312-2.048 21.504-2.048 8.192 0 15.36 2.048 21.504 2.048 10.24 47.104 70.656 102.4 155.648 112.64v68.608c0 49.152 13.312 98.304 43.008 141.312 6.144 10.24 17.408 12.288 27.648 6.144 10.24-6.144 12.288-17.408 6.144-27.648-23.552-35.84-35.84-78.848-35.84-119.808v-66.56h-1.024z" />
<glyph unicode="&#xe637;" d="M328.704 356.096c-21.504 21.504-51.2 33.792-82.944 33.792s-58.368-12.288-81.92-33.792l-130.048-132.096c-45.056-45.056-45.056-117.76 0-163.84l58.368-58.368c21.504-21.504 51.2-33.792 82.944-33.792s59.392 12.288 82.944 33.792l132.096 132.096c21.504 21.504 33.792 51.2 33.792 82.944s-12.288 59.392-33.792 82.944l-61.44 56.32zM370.688 174.848l-53.248 53.248c-8.192 8.192-19.456 8.192-27.648 0s-8.192-19.456 0-27.648l55.296-55.296-31.744-31.744-55.296 55.296c-8.192 8.192-19.456 8.192-27.648 0s-8.192-19.456 0-27.648l55.296-55.296-31.744-31.744-55.296 55.296c-8.192 8.192-19.456 8.192-27.648 0s-8.192-19.456 0-27.648l55.296-55.296c-29.696-25.6-76.8-25.6-104.448 2.048l-59.392 59.392c-29.696 29.696-29.696 78.848 0 108.544l132.096 132.096c13.312 13.312 33.792 21.504 53.248 21.504s38.912-8.192 53.248-21.504l59.392-59.392c13.312-13.312 21.504-33.792 21.504-53.248 0-15.36-4.096-29.696-11.264-40.96zM484.352 401.152c-6.144-6.144-6.144-19.456-2.048-23.552 15.36-23.552 12.288-47.104-10.24-68.608l-23.552-23.552c-10.24-10.24-33.792 13.312-63.488 43.008l-23.552 23.552c-29.696 29.696-55.296 51.2-43.008 63.488l24.576 23.552c21.504 21.504 45.056 25.6 68.608 10.24 2.048-2.048 15.36-2.048 21.504 4.096 6.144 6.144 21.504 21.504 21.504 21.504 10.24 10.24 21.504 6.144 29.696-4.096l15.36-15.36c10.24-10.24 13.312-21.504 4.096-29.696 2.048-3.072-13.312-16.384-19.456-24.576z" />
<glyph unicode="&#xe638;" d="M490.496 283.392c2.048 6.144 2.048 10.24 0 15.36v0c0 0 0 2.048-2.048 2.048 0 0-2.048 6.144 2.048 21.504 4.096 10.24-2.048 21.504-12.288 25.6-10.24 4.096-21.504-2.048-25.6-12.288-6.144-17.408-6.144-31.744-4.096-38.912l-149.504-185.344-226.304 67.584c-2.048 0-2.048 0-2.048 0-4.096 2.048-12.288 10.24-12.288 31.744 0 10.24 2.048 17.408 8.192 21.504 4.096 4.096 10.24 4.096 15.36 4.096l207.872-63.488c2.048 0 4.096 0 4.096 0 6.144 0 10.24 2.048 13.312 6.144l181.248 211.968c4.096 4.096 6.144 12.288 4.096 17.408-2.048 6.144-8.192 10.24-13.312 12.288l-245.76 57.344c-6.144 2.048-13.312 0-17.408-6.144l-177.152-196.608c-6.144-4.096-19.456-23.552-19.456-55.296v0c0-2.048 0-6.144 0-10.24 0-23.552 6.144-38.912 13.312-49.152-8.192-10.24-13.312-23.552-13.312-43.008 0-45.056 25.6-66.56 40.96-72.704l240.64-76.8c2.048 0 4.096 0 6.144 0 6.144 0 12.288 2.048 15.36 8.192l165.888 202.752c6.144 6.144 6.144 15.36 2.048 21.504-2.048 0-17.408 33.792 0 82.944zM194.56 389.888l13.312 15.36c4.096 4.096 12.288 6.144 19.456 6.144l125.952-31.744c8.192-2.048 10.24-6.144 6.144-12.288l-13.312-15.36c-4.096-4.096-12.288-6.144-19.456-6.144l-125.952 31.744c-8.192 2.048-9.216 8.192-6.144 12.288zM299.008 11.008l-224.256 71.68c-2.048 0-15.36 8.192-15.36 35.84 0 10.24 4.096 15.36 8.192 21.504l234.496-72.704c2.048 0 4.096 0 6.144 0 6.144 0 12.288 2.048 15.36 8.192l121.856 148.48c2.048-12.288 4.096-23.552 6.144-31.744l-152.576-181.248z" />
<glyph unicode="&#xe639;" d="M177.152 259.84v-189.44c0-8.192-6.144-15.36-13.312-17.408-12.288-4.096-23.552-6.144-38.912-6.144v0c-40.96 0-84.992 17.408-84.992 55.296v239.616c0 15.36 4.096 45.056 33.792 61.44 13.312 8.192 80.896 51.2 114.688 72.704 6.144 4.096 13.312 4.096 19.456 0 6.144-2.048 10.24-8.192 10.24-15.36v-27.648c0-12.288-8.192-19.456-19.456-19.456-8.192 0-15.36 6.144-17.408 13.312-33.792-19.456-76.8-49.152-89.088-55.296-12.288-8.192-13.312-17.408-13.312-23.552 0-6.144 2.048-12.288 4.096-13.312 8.192-8.192 29.696-4.096 55.296 12.288 25.6 13.312 145.408 94.208 145.408 94.208 6.144 4.096 13.312 4.096 19.456 0 8.192-2.048 12.288-8.192 12.288-15.36v-2.048c0-6.144-4.096-12.288-8.192-15.36 0 0-82.944-55.296-90.112-61.44-29.696-18.432-39.936-41.984-39.936-87.040zM473.088 356.096v-256c0-6.144-4.096-13.312-10.24-15.36 0 0-114.688-89.088-138.24-102.4-12.288-8.192-27.648-12.288-45.056-12.288-40.96 0-82.944 21.504-82.944 59.392v241.664c0 13.312 4.096 35.84 31.744 55.296 15.36 12.288 112.64 76.8 115.712 80.896 6.144 4.096 13.312 4.096 19.456 2.048 6.144-4.096 10.24-12.288 10.24-17.408v-29.696c0-12.288-8.192-19.456-19.456-19.456-8.192 0-15.36 6.144-17.408 12.288-31.744-21.504-74.752-51.2-84.992-59.392-12.288-10.24-13.312-15.36-13.312-23.552 0-6.144 2.048-10.24 4.096-13.312 10.24-10.24 37.888-6.144 63.488 10.24 19.456 12.288 104.448 76.8 136.192 102.4 6.144 4.096 13.312 6.144 21.504 2.048s9.216-9.216 9.216-17.408zM433.152 267.008l-98.304-76.8v-38.912l98.304 76.8v38.912z" />
<glyph unicode="&#xe63a;" d="M473.088 460.544v-19.456c0-6.144-4.096-12.288-8.192-15.36l-59.392-38.912c-4.096-2.048-8.192-4.096-12.288-4.096h-115.712l-157.696-19.456h-2.048c-4.096 0-10.24 2.048-13.312 6.144-4.096 2.048-6.144 8.192-6.144 13.312v10.24l-51.2 33.792c-4.096 2.048-8.192 8.192-8.192 14.336v19.456c0 11.264 8.192 19.456 20.48 19.456h394.24c11.264 0 19.456-8.192 19.456-19.456zM464.896 23.296l-51.2 33.792v10.24c0 6.144-2.048 12.288-6.144 15.36-4.096 4.096-10.24 6.144-15.36 4.096l-155.648-19.456h-118.784c-4.096 0-8.192-2.048-12.288-4.096l-59.392-38.912c-4.096-4.096-8.192-10.24-8.192-15.36v-19.456c0-12.288 8.192-19.456 19.456-19.456h394.24c12.288 0 19.456 8.192 19.456 19.456v19.456c2.048 4.096-2.048 10.24-6.144 14.336zM98.304 302.848h2.048l315.392 38.912c10.24 2.048 17.408 12.288 17.408 21.504-2.048 10.24-12.288 17.408-21.504 17.408l-315.392-38.912c-12.288-2.048-19.456-12.288-17.408-21.504s10.24-17.408 19.456-17.408zM98.304 243.456h2.048l315.392 38.912c10.24 2.048 17.408 12.288 17.408 21.504-2.048 10.24-12.288 17.408-21.504 17.408l-315.392-37.888c-10.24-2.048-17.408-12.288-17.408-21.504 2.048-10.24 10.24-18.432 19.456-18.432zM98.304 185.088h2.048l315.392 38.912c10.24 2.048 17.408 12.288 17.408 21.504-2.048 10.24-12.288 17.408-21.504 17.408l-315.392-38.912c-10.24-2.048-17.408-12.288-17.408-21.504 2.048-10.24 10.24-17.408 19.456-17.408zM98.304 125.696h2.048l315.392 38.912c10.24 2.048 17.408 12.288 17.408 21.504-2.048 10.24-12.288 17.408-21.504 17.408l-315.392-38.912c-10.24-2.048-17.408-12.288-17.408-21.504 2.048-9.216 10.24-17.408 19.456-17.408zM98.304 66.304h2.048l315.392 38.912c10.24 2.048 17.408 12.288 17.408 21.504-2.048 10.24-12.288 17.408-21.504 17.408l-315.392-37.888c-10.24-2.048-17.408-12.288-17.408-21.504 2.048-10.24 10.24-18.432 19.456-18.432z" />
<glyph unicode="&#xe63b;" d="M512 6.912c0-33.792-25.6-38.912-59.392-38.912h-393.216c-33.792 0-59.392 6.144-59.392 38.912h38.912v102.4c10.24-12.288 29.696-23.552 68.608-23.552s59.392 12.288 68.608 25.6c12.288-12.288 33.792-25.6 78.848-25.6s66.56 12.288 78.848 25.6c10.24-12.288 29.696-25.6 68.608-25.6s59.392 12.288 68.608 23.552v-102.4h40.96zM196.608 273.152v-49.152c0-12.288 8.192-19.456 19.456-19.456h59.392c12.288 0 19.456 8.192 19.456 19.456 0 0 0 53.248 0 68.608 0 21.504 17.408 31.744 17.408 40.96s-6.144 17.408-17.408 15.36c0 0-12.288-8.192-35.84-12.288-23.552-6.144-35.84-2.048-43.008-4.096-21.504-6.144-35.84-23.552-35.84-43.008s16.384-16.384 16.384-16.384zM247.808 362.24c-21.504 51.2 10.24 43.008 12.288 72.704 2.048-19.456 19.456-37.888-4.096-72.704 0 0 33.792 8.192 37.888 37.888 2.048 29.696-33.792 72.704-43.008 78.848-2.048-27.648-33.792-45.056-31.744-76.8 1.024-34.816 26.624-37.888 28.672-39.936zM108.544 106.24c57.344 0 59.392 29.696 59.392 29.696 0 6.144 4.096 10.24 10.24 10.24v0c6.144 0 10.24-4.096 10.24-10.24 0-2.048 2.048-29.696 68.608-29.696s68.608 29.696 68.608 29.696c0 6.144 4.096 10.24 10.24 10.24 6.144 0 10.24-4.096 10.24-10.24 0-2.048 2.048-29.696 59.392-29.696 63.488 0 64.512 38.912 64.512 38.912-8.192 23.552-29.696 38.912-55.296 38.912h-316.416c-25.6 0-47.104-17.408-55.296-38.912 0 0 4.096-38.912 65.536-38.912z" />
<glyph unicode="&#xe63c;" d="M433.152 480h-354.304c-21.504 0-39.936-17.408-39.936-38.912v-433.152c0-21.504 17.408-38.912 38.912-38.912h354.304c21.504 0 38.912 17.408 38.912 38.912v433.152c2.048 21.504-16.384 38.912-37.888 38.912zM433.152 6.912h-354.304v434.176h354.304v-434.176zM157.696 362.24c0 12.288 8.192 19.456 19.456 19.456h157.696c12.288 0 19.456-8.192 19.456-19.456s-8.192-19.456-19.456-19.456h-157.696c-11.264-1.024-19.456 7.168-19.456 19.456zM354.304 262.912h19.456c12.288 0 19.456-8.192 19.456-19.456 0-12.288-8.192-19.456-19.456-19.456h-19.456c-12.288 0-19.456 8.192-19.456 19.456 0 12.288 8.192 19.456 19.456 19.456zM117.76 243.456c0 12.288 8.192 19.456 19.456 19.456h138.24c12.288 0 19.456-8.192 19.456-19.456 0-12.288-8.192-19.456-19.456-19.456h-137.216c-12.288 0-20.48 8.192-20.48 19.456zM117.76 185.088c0 12.288 8.192 19.456 19.456 19.456h138.24c12.288 0 19.456-8.192 19.456-19.456s-8.192-19.456-19.456-19.456h-137.216c-12.288-1.024-20.48 7.168-20.48 19.456zM394.24 185.088c0-12.288-8.192-19.456-19.456-19.456h-19.456c-12.288 0-19.456 8.192-19.456 19.456s8.192 19.456 19.456 19.456h19.456c11.264 0 19.456-8.192 19.456-19.456zM117.76 125.696c0 12.288 8.192 19.456 19.456 19.456h138.24c12.288 0 19.456-8.192 19.456-19.456s-8.192-19.456-19.456-19.456h-137.216c-12.288 0-20.48 7.168-20.48 19.456zM394.24 125.696c0-12.288-8.192-19.456-19.456-19.456h-19.456c-12.288 0-19.456 8.192-19.456 19.456s8.192 19.456 19.456 19.456h19.456c11.264 0 19.456-8.192 19.456-19.456z" />
<glyph unicode="&#xe63d;" d="M18274.304-28409.088v-509.952h-512v509.952h512zM258.048 68.352v0c-2.048-2.048-2.048-4.096-4.096-4.096 0 0-2.048 0-2.048-2.048v0c-2.048 0-4.096-2.048-6.144-2.048h-137.216c-6.144 0-10.24 2.048-12.288 8.192-2.048 4.096-4.096 10.24 0 13.312l72.704 152.576-8.192 19.456c-25.6-10.24-40.96-21.504-40.96 13.312 0 12.288 4.096 13.312 12.288 13.312 6.144 2.048 64.512 2.048 64.512 2.048 10.24 0 17.408 0 17.408-6.144s-6.144-10.24-25.6-13.312l6.144-13.312h119.808c-10.24 31.744-13.312 55.296-13.312 57.344 0 4.096 0 10.24 4.096 13.312s8.192 6.144 12.288 4.096c0 0 38.912-4.096 55.296 17.408 4.096 6.144 13.312 8.192 19.456 4.096 6.144-4.096 8.192-13.312 4.096-19.456-15.36-23.552-43.008-29.696-63.488-29.696 10.24-38.912 35.84-136.192 82.944-208.896 4.096-6.144 2.048-15.36-4.096-19.456-2.048-2.048-6.144-2.048-8.192-2.048-4.096 0-10.24 2.048-12.288 6.144-23.552 35.84-40.96 76.8-55.296 112.64l-77.824-116.736zM206.848 219.904l43.008-112.64 74.752 108.544c0 2.048 0 2.048 0 4.096h-117.76zM132.096 89.856h92.16l-40.96 106.496-51.2-106.496zM181.248 151.296l-15.36-33.792c2.048-2.048 2.048-4.096 4.096-8.192h37.888c-7.168 16.384-15.36 29.696-26.624 41.984zM168.96 42.752c-12.288-21.504-35.84-37.888-61.44-37.888-38.912 0-70.656 31.744-70.656 70.656 0 37.888 29.696 68.608 66.56 68.608l15.36 33.792c-4.096 0-8.192 2.048-13.312 2.048-57.344 0-104.448-47.104-104.448-104.448s47.104-104.448 104.448-104.448c45.056 0 84.992 29.696 98.304 70.656l-34.816 1.024zM403.456 180.992c-6.144 0-10.24 0-13.312-2.048 4.096-12.288 10.24-21.504 13.312-33.792v0c38.912 0 70.656-31.744 70.656-70.656s-31.744-70.656-70.656-70.656-70.656 31.744-70.656 70.656c0 13.312 4.096 27.648 12.288 37.888-6.144 12.288-12.288 23.552-15.36 35.84-17.408-19.456-29.696-45.056-29.696-72.704 0-57.344 47.104-104.448 104.448-104.448s104.448 47.104 104.448 104.448-48.128 105.472-105.472 105.472z" />
<glyph unicode="&#xe63e;" d="M296.96 196.352c0 0 0 43.008-43.008 43.008-40.96 0-40.96-43.008-40.96-43.008s-40.96 12.288-53.248-25.6 27.648-51.2 27.648-51.2-23.552-38.912 7.168-59.392 59.392 10.24 59.392 10.24 25.6-31.744 59.392-10.24c33.792 21.504 8.192 59.392 8.192 59.392s40.96 15.36 27.648 51.2c-12.288 35.84-52.224 25.6-52.224 25.6zM256 93.952c-25.6 0-47.104 21.504-47.104 47.104s21.504 47.104 47.104 47.104 47.104-21.504 47.104-47.104c0-27.648-21.504-47.104-47.104-47.104zM315.392 480c-33.792 0-59.392-25.6-59.392-59.392s25.6-59.392 57.344-59.392h2.048c8.192 0 38.912-6.144 38.912-29.696 0-19.456-35.84-29.696-98.304-29.696s-98.304 10.24-98.304 29.696c0 10.24 23.552 29.696 38.912 29.696 40.96 0 59.392 31.744 59.392 59.392 0 29.696-29.696 59.392-59.392 59.392-102.4 0-177.152-78.848-177.152-187.392v-38.912c0-84.992 0-285.696 236.544-285.696s236.544 200.704 236.544 285.696v38.912c0 108.544-74.752 187.392-177.152 187.392zM452.608 253.696c0-128-23.552-245.76-196.608-245.76s-196.608 117.76-196.608 245.76v38.912c0 70.656 43.008 147.456 138.24 147.456 8.192 0 19.456-12.288 19.456-19.456 0-19.456-15.36-19.456-19.456-19.456-35.84 0-78.848-31.744-78.848-68.608 0-68.608 104.448-68.608 138.24-68.608s138.24 0 138.24 68.608c0 47.104-47.104 68.608-76.8 68.608h-2.048c-10.24 0-19.456 6.144-19.456 19.456s10.24 19.456 19.456 19.456c90.112 0 138.24-74.752 138.24-147.456v-38.912z" />
<glyph unicode="&#xe63f;" d="M507.904 281.344c-40.96-53.248-94.208-53.248-168.96 25.6-80.896 84.992-8.192 102.4-35.84 168.96 70.656-45.056 13.312-92.16 40.96-136.192 38.912-4.096 70.656 72.704 70.656 115.712 29.696-29.696 21.504-121.856-19.456-149.504 18.432-30.72 67.584-34.816 112.64-24.576zM320.512 290.56c76.8-76.8 132.096-143.36 53.248-224.256-94.208-96.256-291.84-125.952-346.112-70.656-57.344 57.344-10.24 268.288 70.656 346.112 76.8 82.944 145.408 25.6 222.208-51.2zM96.256 236.288c6.144-4.096 17.408 0 25.6 10.24s10.24 23.552 4.096 27.648-17.408 0-25.6-10.24c-8.192-12.288-10.24-24.576-4.096-27.648zM74.752 102.144c-6.144 4.096-15.36-2.048-23.552-13.312-6.144-12.288-6.144-23.552 0-27.648 6.144-4.096 15.36 4.096 23.552 15.36 6.144 9.216 6.144 23.552 0 25.6zM112.64 192.256c-6.144 6.144-17.408 2.048-25.6-8.192-10.24-10.24-13.312-21.504-8.192-25.6 6.144-6.144 17.408-2.048 25.6 8.192 10.24 10.24 13.312 21.504 8.192 25.6zM163.84 46.848c-4.096 6.144-15.36 6.144-27.648-2.048s-17.408-17.408-13.312-23.552c4.096-6.144 15.36-6.144 27.648 2.048 9.216 8.192 16.384 17.408 13.312 23.552zM191.488 145.152c-6.144 6.144-17.408 2.048-25.6-8.192-10.24-10.24-13.312-21.504-8.192-25.6 6.144-6.144 17.408-2.048 25.6 8.192 9.216 10.24 11.264 21.504 8.192 25.6zM206.848 255.744c-6.144 6.144-17.408 2.048-25.6-8.192-10.24-10.24-13.312-21.504-8.192-25.6 6.144-6.144 17.408-2.048 25.6 8.192 10.24 7.168 12.288 19.456 8.192 25.6zM210.944 343.808c-4.096 6.144-15.36 6.144-27.648 0s-19.456-17.408-15.36-23.552 15.36-6.144 27.648 0c11.264 8.192 19.456 18.432 15.36 23.552zM271.36 93.952c-4.096 6.144-15.36 6.144-27.648-2.048-12.288-8.192-17.408-17.408-13.312-23.552 4.096-6.144 15.36-6.144 27.648 2.048 11.264 6.144 17.408 17.408 13.312 23.552zM285.696 208.64c-6.144 6.144-17.408 2.048-25.6-8.192-10.24-10.24-13.312-21.504-8.192-25.6 6.144-6.144 17.408-2.048 25.6 8.192 8.192 9.216 12.288 21.504 8.192 25.6zM285.696 300.8c-4.096 6.144-17.408 2.048-27.648-6.144-10.24-10.24-13.312-19.456-10.24-25.6s17.408-2.048 27.648 6.144c10.24 10.24 14.336 21.504 10.24 25.6zM334.848 123.648c6.144-4.096 17.408 4.096 23.552 15.36 6.144 12.288 6.144 23.552 0 27.648-6.144 4.096-17.408-4.096-23.552-13.312-8.192-14.336-8.192-25.6 0-29.696z" />
<glyph unicode="&#xe640;" d="M346.112 68.352v0c0 6.144-2.048 10.24-2.048 13.312 0 10.24 2.048 21.504 4.096 31.744 12.288 47.104 45.056 104.448 45.056 204.8v0 0 0c0 2.048 0 6.144 0 10.24 0 2.048 0 6.144 0 10.24 0 0 0 0 0 2.048 0 8.192 0 13.312-2.048 21.504v0 0c-3.072 53.248-15.36 117.76-26.624 117.76h-217.088c-15.36 0-29.696-112.64-29.696-161.792 0-123.904 49.152-179.2 49.152-236.544 0-37.888-29.696-90.112-29.696-90.112 0-17.408 12.288-23.552 19.456-23.552 0 0 45.056 8.192 98.304 8.192s98.304-8.192 98.304-8.192c8.192 0 19.456 6.144 19.456 23.552 0 0-8.192 15.36-15.36 37.888-2.048 4.096-4.096 8.192-4.096 12.288 0 0 0 0 0 2.048-2.048 4.096-2.048 8.192-4.096 13.312v2.048c-3.072 1.024-3.072 5.12-3.072 9.216zM256 15.104c-23.552 0-47.104-2.048-64.512-4.096 8.192 21.504 15.36 47.104 15.36 68.608 0 29.696-10.24 57.344-19.456 84.992-13.312 40.96-29.696 87.040-29.696 153.6 0 37.888 8.192 94.208 13.312 121.856h168.96c4.096-17.408 8.192-49.152 12.288-78.848-13.312 0-29.696 0-37.888 0-19.456 0-19.456-23.552-19.456-43.008s27.648-74.752-10.24-74.752-10.24 55.296-10.24 74.752 0 43.008-19.456 43.008-66.56 0-66.56 0c-2.048-15.36-2.048-31.744-2.048-43.008 0-123.904 49.152-179.2 49.152-236.544 0-12.288-2.048-23.552-6.144-37.888 8.192 0 17.408 2.048 25.6 2.048 21.504 0 38.912-2.048 55.296-6.144 2.048-10.24 6.144-19.456 10.24-29.696-17.408 3.072-40.96 5.12-64.512 5.12z" />
<glyph unicode="&#xe641;" d="M492.544 362.24h-19.456c0 0-19.456 0-19.456-19.456h-394.24c0 19.456-19.456 19.456-19.456 19.456h-20.48c-12.288 0-19.456-8.192-19.456-19.456v-354.304c0-12.288 8.192-20.48 19.456-20.48h19.456c0 0 19.456 0 19.456 19.456s0 19.456 0 19.456c0 12.288 8.192 19.456 19.456 19.456h354.304c12.288 0 19.456-8.192 19.456-19.456 0 0 0 0 0-19.456s19.456-19.456 19.456-19.456h19.456c12.288 0 19.456 8.192 19.456 19.456v354.304c2.048 12.288-6.144 20.48-17.408 20.48zM59.392 243.456c0 33.792 6.144 59.392 38.912 59.392h98.304c33.792 0 38.912-25.6 38.912-59.392h-176.128zM275.456 243.456c0 33.792 6.144 59.392 38.912 59.392h98.304c33.792 0 38.912-25.6 38.912-59.392h-176.128z" />
<glyph unicode="&#xe642;" d="M394.24 262.912h-276.48c0 59.392 51.2 108.544 117.76 115.712v101.376h38.912v-100.352c68.608-8.192 119.808-57.344 119.808-116.736zM98.304 204.544h315.392c12.288 0 19.456 8.192 19.456 19.456s-8.192 19.456-19.456 19.456h-315.392c-12.288 0-19.456-8.192-19.456-19.456s8.192-19.456 19.456-19.456zM236.544 145.152c0-12.288 8.192-19.456 19.456-19.456s19.456 8.192 19.456 19.456-8.192 19.456-19.456 19.456-19.456-7.168-19.456-19.456zM315.392 145.152c0-12.288 8.192-19.456 19.456-19.456s19.456 8.192 19.456 19.456-8.192 19.456-19.456 19.456-19.456-7.168-19.456-19.456zM157.696 145.152c0-12.288 8.192-19.456 19.456-19.456s19.456 8.192 19.456 19.456-8.192 19.456-19.456 19.456-19.456-7.168-19.456-19.456zM256 6.912c-12.288 0-19.456-8.192-19.456-19.456s7.168-19.456 19.456-19.456 19.456 8.192 19.456 19.456-7.168 19.456-19.456 19.456zM334.848 6.912c-12.288 0-19.456-8.192-19.456-19.456s8.192-19.456 19.456-19.456 19.456 8.192 19.456 19.456-8.192 19.456-19.456 19.456zM413.696 6.912c-12.288 0-19.456-8.192-19.456-19.456s8.192-19.456 19.456-19.456 19.456 8.192 19.456 19.456-8.192 19.456-19.456 19.456zM177.152 6.912c-12.288 0-19.456-8.192-19.456-19.456s8.192-19.456 19.456-19.456 19.456 8.192 19.456 19.456-7.168 19.456-19.456 19.456zM98.304 6.912c-12.288 0-19.456-8.192-19.456-19.456s8.192-19.456 19.456-19.456 19.456 8.192 19.456 19.456-7.168 19.456-19.456 19.456zM217.088 85.76c-12.288 0-19.456-8.192-19.456-19.456s8.192-19.456 19.456-19.456 19.456 8.192 19.456 19.456-8.192 19.456-19.456 19.456zM294.912 85.76c-12.288 0-19.456-8.192-19.456-19.456s8.192-19.456 19.456-19.456 19.456 8.192 19.456 19.456-7.168 19.456-19.456 19.456zM373.76 85.76c-12.288 0-19.456-8.192-19.456-19.456s8.192-19.456 19.456-19.456 19.456 8.192 19.456 19.456-7.168 19.456-19.456 19.456zM138.24 85.76c-12.288 0-19.456-8.192-19.456-19.456s8.192-19.456 19.456-19.456 19.456 8.192 19.456 19.456-8.192 19.456-19.456 19.456z" />
<glyph unicode="&#xe643;" d="M256 475.904c-140.288 0-251.904-111.616-251.904-251.904s112.64-251.904 251.904-251.904 251.904 112.64 251.904 251.904-111.616 251.904-251.904 251.904zM466.944 257.792c-2.048 0-4.096-2.048-4.096-2.048s-43.008-40.96-151.552-51.2c-2.048 92.16 68.608 155.648 94.208 173.056 31.744-31.744 53.248-72.704 61.44-119.808zM268.288 17.152c0 0-40.96 51.2-53.248 153.6 12.288 0 25.6-2.048 38.912-2.048 10.24 0 17.408 0 25.6 0 13.312-66.56 68.608-102.4 98.304-115.712-31.744-23.552-68.608-37.888-110.592-40.96 2.048 1.024 2.048 3.072 1.024 5.12zM134.144 215.808c-2.048 87.040-19.456 141.312-27.648 159.744 33.792 33.792 76.8 55.296 125.952 61.44-17.408-29.696-51.2-98.304-51.2-210.944 0-6.144 0-12.288 0-17.408-17.408 0-33.792 3.072-47.104 7.168zM78.848 106.24c-21.504 33.792-35.84 72.704-35.84 115.712 12.288-8.192 31.744-19.456 59.392-29.696-2.048-61.44-19.456-84.992-19.456-84.992-2.048 1.024-2.048-1.024-4.096-1.024zM51.2 255.744c-2.048 2.048-2.048 2.048-4.096 2.048 6.144 33.792 17.408 63.488 37.888 90.112 8.192-23.552 17.408-64.512 19.456-121.856-37.888 13.312-53.248 27.648-53.248 29.696zM212.992 224c0 138.24 55.296 206.848 55.296 206.848 2.048 2.048 2.048 4.096 4.096 6.144 38.912-2.048 75.776-18.432 107.52-39.936-33.792-25.6-104.448-94.208-100.352-196.608-8.192 0-15.36 0-23.552 0-15.36 0-29.696 0-43.008 2.048 0 6.144 0 13.312 0 21.504zM96.256 82.688c2.048 0 6.144 2.048 8.192 4.096 2.048 4.096 23.552 29.696 27.648 96.256 15.36-4.096 31.744-8.192 51.2-10.24 8.192-84.992 35.84-138.24 49.152-161.792-53.248 6.144-100.352 33.792-136.192 71.68zM407.552 74.496c-17.408 8.192-78.848 35.84-94.208 96.256 84.992 8.192 132.096 33.792 155.648 49.152 0-55.296-23.552-106.496-61.44-145.408z" />
<glyph unicode="&#xe644;" d="M512 253.696c0 123.904-90.112 190.464-210.944 202.752-4.096 11.264-21.504 23.552-45.056 23.552s-40.96-10.24-45.056-23.552c-118.784-14.336-208.896-78.848-208.896-202.752 0-16.384-2.048-106.496-2.048-121.856v0c0-21.504 29.696-94.208 49.152-128 17.408-29.696 35.84-37.888 53.248-37.888 13.312 0 29.696 6.144 43.008 12.288 23.552 10.24 57.344 21.504 110.592 21.504s84.992-12.288 108.544-21.504c31.744-12.288 64.512-25.6 96.256 25.6 15.36 25.6 49.152 108.544 49.152 130.048 0 2.048 0 2.048 0 4.096 2.048 21.504 2.048 99.328 2.048 115.712zM181.248 343.808c12.288 25.6 40.96 37.888 80.896 37.888 33.792 0 59.392-10.24 70.656-25.6 2.048-4.096 4.096-6.144 4.096-10.24 0-10.24-10.24-15.36-21.504-15.36-8.192 0-15.36 2.048-21.504 8.192-8.192 8.192-15.36 12.288-31.744 12.288-17.408 0-29.696-6.144-33.792-17.408-2.048-6.144-4.096-12.288-4.096-33.792s2.048-27.648 4.096-33.792c6.144-10.24 15.36-17.408 33.792-17.408 13.312 0 21.504 4.096 31.744 12.288 6.144 6.144 13.312 8.192 21.504 8.192 12.288 0 21.504-6.144 21.504-15.36 0-4.096-2.048-8.192-4.096-10.24-12.288-13.312-35.84-25.6-70.656-25.6-38.912 0-68.608 13.312-80.896 37.888-6.144 17.408-6.144 25.6-6.144 49.152s0 29.696 6.144 38.912zM422.912 25.344c-12.288-19.456-12.288-19.456-40.96-8.192-25.6 10.24-64.512 25.6-125.952 25.6s-100.352-15.36-125.952-25.6c-29.696-12.288-29.696-12.288-38.912 8.192-19.456 33.792-40.96 94.208-43.008 106.496 0 2.048 0 6.144-2.048 8.192 45.056 17.408 123.904 49.152 210.944 49.152 89.088 0 165.888-31.744 210.944-49.152 0-2.048-2.048-4.096-2.048-8.192-1.024-12.288-26.624-80.896-43.008-106.496z" />
<glyph unicode="&#xe645;" d="M138.24 420.608v-394.24c0-12.288-8.192-19.456-19.456-19.456h-39.936c-12.288 0-19.456 8.192-19.456 19.456v394.24c0 12.288 8.192 19.456 19.456 19.456h38.912c12.288 1.024 20.48-7.168 20.48-19.456zM315.392 441.088h-78.848c-12.288 0-19.456-8.192-19.456-19.456v-394.24c0-12.288 8.192-19.456 19.456-19.456h78.848c12.288 0 19.456 8.192 19.456 19.456v393.216c0 12.288-8.192 20.48-19.456 20.48zM177.152 441.088c-12.288 0-19.456-8.192-19.456-19.456v-394.24c0-12.288 8.192-19.456 19.456-19.456s19.456 8.192 19.456 19.456v393.216c0 12.288-7.168 20.48-19.456 20.48zM19.456 441.088c-11.264 0-19.456-8.192-19.456-20.48v-394.24c0-12.288 8.192-19.456 19.456-19.456s19.456 8.192 19.456 19.456v394.24c0 12.288-7.168 20.48-19.456 20.48zM373.76 441.088c-12.288 0-19.456-8.192-19.456-19.456v-394.24c0-12.288 8.192-19.456 19.456-19.456s19.456 8.192 19.456 19.456v393.216c1.024 12.288-7.168 20.48-19.456 20.48zM433.152 441.088c-12.288 0-19.456-8.192-19.456-19.456v-394.24c0-12.288 8.192-19.456 19.456-19.456s19.456 8.192 19.456 19.456v393.216c0 12.288-7.168 20.48-19.456 20.48zM492.544 441.088c-12.288 0-19.456-8.192-19.456-19.456v-394.24c0-12.288 8.192-19.456 19.456-19.456s19.456 8.192 19.456 19.456v393.216c0 12.288-8.192 20.48-19.456 20.48z" />
<glyph unicode="&#xe646;" d="M492.544 316.16c8.192-8.192 8.192-19.456 0-27.648l-14.336-13.312c-8.192-8.192-19.456-8.192-27.648 0l-57.344 57.344-245.76-243.712 57.344-57.344c8.192-8.192 8.192-19.456 0-27.648l-13.312-15.36c-8.192-8.192-19.456-8.192-27.648 0l-143.36 143.36c-8.192 8.192-8.192 19.456 0 27.648l13.312 13.312c7.168 8.192 19.456 8.192 27.648 0l57.344-57.344 245.76 243.712-57.344 57.344c-8.192 8.192-8.192 19.456 0 27.648l13.312 15.36c8.192 8.192 19.456 8.192 27.648 0l144.384-143.36zM505.856 389.888l-27.648 27.648 21.504 21.504c8.192 8.192 8.192 19.456 0 27.648s-21.504 8.192-27.648 0l-21.504-22.528-27.648 27.648c-8.192 8.192-19.456 8.192-27.648 0l-10.24-10.24 114.688-114.688 10.24 10.24c4.096 10.24 4.096 24.576-4.096 32.768zM6.144 87.808c-8.192-8.192-8.192-19.456 0-27.648l27.648-27.648-21.504-21.504c-8.192-8.192-8.192-19.456 0-27.648s19.456-8.192 27.648 0l21.504 22.528 27.648-27.648c8.192-8.192 19.456-8.192 27.648 0l10.24 10.24-114.688 113.664-6.144-14.336z" />
<glyph unicode="&#xe647;" d="M373.76-12.544c0 0-64.512 12.288-98.304 40.96v118.784c74.752 12.288 136.192 82.944 136.192 141.312 0 106.496-23.552 175.104-25.6 179.2-2.048 6.144-10.24 12.288-17.408 12.288h-223.232c-8.192 0-15.36-6.144-19.456-13.312 0-2.048-25.6-72.704-25.6-177.152 0-66.56 63.488-132.096 136.192-141.312v-118.784c-33.792-29.696-98.304-40.96-98.304-40.96-12.288 0-19.456-10.24-19.456-19.456h275.456c0 11.264-8.192 18.432-20.48 18.432zM140.288 288.512c0 72.704 13.312 128 19.456 151.552h192.512c2.048-10.24 6.144-21.504 8.192-38.912-4.096 0-163.84 0-163.84 0s-19.456-47.104-19.456-125.952c0-40.96 37.888-80.896 82.944-90.112-2.048 0-4.096 0-4.096 0-59.392 0-115.712 51.2-115.712 103.424z" />
<glyph unicode="&#xe648;" d="M401.408 452.352l82.944-82.944c0 0-53.248-80.896-138.24-165.888s-188.416-160.768-188.416-160.768l-82.944 82.944c0 0 76.8 106.496 161.792 189.44 40.96 40.96 82.944 76.8 114.688 100.352l-24.576 23.552c-12.288-4.096-38.912-13.312-76.8-51.2-55.296-55.296-72.704-110.592-74.752-110.592-2.048-8.192-10.24-13.312-17.408-13.312-2.048 0-4.096 0-6.144 2.048-10.24 4.096-15.36 13.312-12.288 25.6 0 2.048 21.504 64.512 82.944 125.952 63.488 61.44 108.544 63.488 112.64 63.488 6.144 0 10.24-2.048 13.312-6.144l33.792-33.792c12.288 7.168 19.456 11.264 19.456 11.264zM63.488 113.408c-25.6-43.008-33.792-78.848-35.84-100.352l-15.36-15.36c-6.144-6.144-6.144-13.312 0-19.456 2.048-2.048 6.144-4.096 10.24-4.096s8.192 2.048 10.24 4.096l15.36 15.36c21.504 2.048 57.344 10.24 100.352 35.84l-84.992 83.968zM498.688 466.688c-21.504 21.504-40.96 13.312-78.848-4.096l74.752-74.752c19.456 36.864 25.6 58.368 4.096 78.848z" />
<glyph unicode="&#xe649;" d="M330.752 96c6.144-8.192 6.144-21.504-4.096-27.648-2.048-2.048-29.696-21.504-70.656-21.504s-68.608 19.456-70.656 21.504c-8.192 6.144-10.24 19.456-4.096 27.648s19.456 10.24 27.648 4.096c0 0 17.408-13.312 47.104-13.312 29.696 0 45.056 13.312 47.104 13.312 8.192 6.144 21.504 4.096 27.648-4.096zM512 164.608c0-25.6-17.408-47.104-38.912-55.296-31.744-103.424-134.144-141.312-217.088-141.312s-185.344 37.888-217.088 141.312c-23.552 8.192-38.912 29.696-38.912 55.296s17.408 49.152 40.96 57.344c12.288 84.992 76.8 153.6 163.84 173.056-10.24 6.144-23.552 6.144-27.648 6.144-10.24 0-19.456 8.192-19.456 19.456 0 10.24 8.192 19.456 17.408 19.456 17.408 0 47.104-4.096 64.512-23.552 12.288 45.056 45.056 61.44 45.056 61.44 10.24 4.096 21.504 0 25.6-10.24s0-21.504-10.24-25.6c0 0-19.456-12.288-25.6-43.008 100.352-10.24 179.2-82.944 192.512-179.2 27.648-6.144 45.056-29.696 45.056-55.296zM473.088 164.608c0 10.24-8.192 19.456-17.408 19.456h-19.456l-2.048 17.408c-6.144 90.112-82.944 159.744-177.152 159.744s-172.032-68.608-178.176-158.72v-17.408h-19.456c-12.288 0-19.456-10.24-19.456-19.456s8.192-19.456 17.408-19.456h15.36l4.096-14.336c19.456-91.136 106.496-122.88 181.248-122.88 72.704 0 159.744 31.744 181.248 121.856l4.096 13.312 13.312 2.048c8.192-1.024 16.384 9.216 16.384 18.432zM217.088 185.088c0 21.504-17.408 38.912-38.912 38.912s-38.912-17.408-38.912-38.912 17.408-38.912 38.912-38.912 38.912 16.384 38.912 38.912zM334.848 224c-21.504 0-38.912-17.408-38.912-38.912s17.408-38.912 38.912-38.912 38.912 17.408 38.912 38.912-17.408 38.912-38.912 38.912z" />
<glyph unicode="&#xe64a;" d="M179.2 401.152c0 43.008 35.84 76.8 76.8 76.8s76.8-35.84 76.8-76.8-33.792-76.8-76.8-76.8-76.8 33.792-76.8 76.8zM345.088 155.392c-23.552-37.888-61.44-57.344-61.44-57.344l31.744-31.744c0 0-29.696-53.248-33.792-59.392-4.096-8.192-10.24-25.6 6.144-35.84 15.36-10.24 29.696 4.096 35.84 10.24 6.144 6.144 47.104 61.44 59.392 76.8 13.312 19.456 10.24 23.552 0 38.912-7.168 14.336-37.888 58.368-37.888 58.368zM196.608 66.304l31.744 31.744c0 0-37.888 17.408-61.44 57.344 0 0-31.744-43.008-38.912-57.344-10.24-15.36-13.312-21.504 0-38.912 12.288-15.36 53.248-68.608 59.392-76.8s21.504-19.456 35.84-10.24c15.36 10.24 10.24 25.6 6.144 35.84-3.072 7.168-32.768 58.368-32.768 58.368zM433.152 213.76l-100.352 92.16c0 0-12.288 13.312-29.696 13.312s-92.16 0-92.16 0-15.36 2.048-29.696-10.24c-12.288-12.288-87.040-82.944-100.352-96.256 0 0-2.048 0-2.048-2.048h-2.048c-4.096-6.144-8.192-12.288-8.192-17.408 0-15.36 12.288-27.648 27.648-27.648 8.192 0 13.312 4.096 19.456 8.192v0 0 0l61.44 57.344v-47.104h157.696v47.104l59.392-57.344c6.144-6.144 12.288-10.24 21.504-10.24 15.36 0 27.648 12.288 27.648 27.648 0 11.264-4.096 19.456-10.24 22.528z" />
</font>
</defs>
</svg>
